# ALOHA supplier-CAD diagnostic collision candidate
# coordinate frame: owning URDF link; unit: metre
v 0.099595507812499984 -0.021226993560791017 -0.020049999999999957
v 0.099554522705078141 -0.021293891906738281 -0.020049999999999957
v 0.099503558349609389 -0.021353551864624024 -0.020049999999999957
v 0.099304522705078113 -0.021475526809692384 -0.020049999999999957
v 0.099443896484375016 -0.021404508590698243 -0.020049999999999957
v 0.099377001953124988 -0.021445503234863283 -0.020049999999999957
v 0.099643847656250006 -0.021078216552734376 -0.020049999999999957
v 0.099625537109374995 -0.021154508590698243 -0.020049999999999957
v 0.099650012207031236 -0.021000000000000001 -0.020049999999999957
v 0.099228228759765613 -0.021493843078613281 -0.020049999999999957
v 0.099150012207031235 -0.021500000000000002 -0.020049999999999957
v 0.063950000000000007 0.021700000762939455 -0.020049999999999957
v 0.099650012207031236 0.021700000762939455 -0.020049999999999957
v 0.057200000000000029 -0.021500000000000002 -0.020049999999999957
v 0.048038439941406275 -0.021233623504638671 -0.020049999999999957
v 0.0091125671386718676 -0.011743028640747071 -0.020049999999999957
v 0.0087584411621093872 -0.011420657157897949 -0.020049999999999957
v 0.0088377868652343983 -0.011566112518310547 -0.020049999999999957
v 0.0087920715332031052 -0.011496694564819335 -0.020049999999999957
v 0.0088943969726562599 -0.011626993179321289 -0.020049999999999957
v 0.0089603149414062555 -0.01167765235900879 -0.020049999999999957
v 0.0090337097167969005 -0.011716691017150879 -0.020049999999999957
v 0.0087310058593750295 -0.011257258415222168 -0.020049999999999957
v 0.0087379028320312413 -0.011340103149414063 -0.020049999999999957
v 0.046543688964843732 0.042850002288818363 -0.020049999999999957
v 0.0087310058593750295 0.042350002288818363 -0.020049999999999957
v 0.0092310058593750299 0.042850002288818363 -0.020049999999999957
v 0.0087554809570312697 0.042504508972167968 -0.020049999999999957
v 0.0087371704101562586 0.042428218841552734 -0.020049999999999957
v 0.0090764953613281518 0.042825527191162109 -0.020049999999999957
v 0.0091527893066406518 0.042843845367431639 -0.020049999999999957
v 0.0089371215820312488 0.042754508972167968 -0.020049999999999957
v 0.0090040161132812768 0.042795505523681644 -0.020049999999999957
v 0.0088774597167968761 0.042703556060791015 -0.020049999999999957
v 0.0087855102539062258 0.042576995849609375 -0.020049999999999957
v 0.0088264953613281238 0.042643894195556642 -0.020049999999999957
v 0.097865832519531237 -0.029699998855590822 -0.0012405517578124581
v 0.098068438720703144 -0.029699998855590822 -0.0016749999999999821
v 0.098343371582031269 -0.029699998855590822 -0.0020676696777343628
v 0.099509448242187493 -0.029699998855590822 -0.0028841369628905822
v 0.098682330322265643 -0.029699998855590822 -0.0024065979003906057
v 0.099075000000000024 -0.029699998855590822 -0.0026815612792968624
v 0.097741778564453152 -0.029699998855590822 0.0001775390625000095
v 0.097741778564453152 -0.029699998855590822 -0.00077750854492186772
v 0.097700000000000009 -0.029699998855590822 -0.00029999999999996696
v 0.10092753906250002 -0.029699998855590822 -0.003008221435546854
v 0.099972460937500007 -0.029699998855590822 -0.003008221435546854
v 0.10044999999999998 -0.029699998855590822 -0.0030499999999999972
v 0.10221766967773438 -0.029699998855590822 -0.0024065979003906057
v 0.10139055175781253 -0.029699998855590822 -0.0028841369628905822
v 0.101825 -0.029699998855590822 -0.0026815612792968624
v 0.098682330322265643 -0.029699998855590822 0.0018066284179687475
v 0.098068438720703144 -0.029699998855590822 0.0010750000000000481
v 0.097865832519531237 -0.029699998855590822 0.00064055175781252416
v 0.098343371582031269 -0.029699998855590822 0.0014676696777343734
v 0.099075000000000024 -0.029699998855590822 0.0020815917968750042
v 0.10283156127929688 -0.029699998855590822 -0.0016749999999999821
v 0.10255662841796875 -0.029699998855590822 -0.0020676696777343628
v 0.10320000000000001 -0.029699998855590822 -0.00029999999999996696
v 0.10303416748046873 -0.029699998855590822 -0.0012405517578124581
v 0.10315822143554687 -0.029699998855590822 -0.00077750854492186772
v 0.10092753906250002 -0.029699998855590822 0.00240822143554692
v 0.099972460937500007 -0.029699998855590822 0.00240822143554692
v 0.099509448242187493 -0.029699998855590822 0.0022841674804687795
v 0.10044999999999998 -0.029699998855590822 0.0024500000000000077
v 0.10303416748046873 -0.029699998855590822 0.00064055175781252416
v 0.10315822143554687 -0.029699998855590822 0.0001775390625000095
v 0.10255662841796875 -0.029699998855590822 0.0014676696777343734
v 0.10139055175781253 -0.029699998855590822 0.0022841674804687795
v 0.101825 -0.029699998855590822 0.0020815917968750042
v 0.10221766967773438 -0.029699998855590822 0.0018066284179687475
v 0.10283156127929688 -0.029699998855590822 0.0010750000000000481
v 0.10044999999999998 -0.02669999885559082 0.0024500000000000077
v 0.099972460937500007 -0.02669999885559082 0.00240822143554692
v 0.099509448242187493 -0.02669999885559082 0.0022841674804687795
v 0.099075000000000024 -0.02669999885559082 0.0020815917968750042
v 0.098682330322265643 -0.02669999885559082 0.0018066284179687475
v 0.098343371582031269 -0.02669999885559082 0.0014676696777343734
v 0.098068438720703144 -0.02669999885559082 0.0010750000000000481
v 0.097865832519531237 -0.02669999885559082 0.00064055175781252416
v 0.097741778564453152 -0.02669999885559082 0.0001775390625000095
v 0.097700000000000009 -0.02669999885559082 -0.00029999999999996696
v 0.097741778564453152 -0.02669999885559082 -0.00077750854492186772
v 0.097865832519531237 -0.02669999885559082 -0.0012405517578124581
v 0.098068438720703144 -0.02669999885559082 -0.0016749999999999821
v 0.098343371582031269 -0.02669999885559082 -0.0020676696777343628
v 0.098682330322265643 -0.02669999885559082 -0.0024065979003906057
v 0.099075000000000024 -0.02669999885559082 -0.0026815612792968624
v 0.099509448242187493 -0.02669999885559082 -0.0028841369628905822
v 0.099972460937500007 -0.02669999885559082 -0.003008221435546854
v 0.10044999999999998 -0.02669999885559082 -0.0030499999999999972
v 0.10092753906250002 -0.02669999885559082 -0.003008221435546854
v 0.10139055175781253 -0.02669999885559082 -0.0028841369628905822
v 0.101825 -0.02669999885559082 -0.0026815612792968624
v 0.10221766967773438 -0.02669999885559082 -0.0024065979003906057
v 0.10255662841796875 -0.02669999885559082 -0.0020676696777343628
v 0.10283156127929688 -0.02669999885559082 -0.0016749999999999821
v 0.10303416748046873 -0.02669999885559082 -0.0012405517578124581
v 0.10315822143554687 -0.02669999885559082 -0.00077750854492186772
v 0.10320000000000001 -0.02669999885559082 -0.00029999999999996696
v 0.10315822143554687 -0.02669999885559082 0.0001775390625000095
v 0.10303416748046873 -0.02669999885559082 0.00064055175781252416
v 0.10283156127929688 -0.02669999885559082 0.0010750000000000481
v 0.10255662841796875 -0.02669999885559082 0.0014676696777343734
v 0.10221766967773438 -0.02669999885559082 0.0018066284179687475
v 0.101825 -0.02669999885559082 0.0020815917968750042
v 0.10139055175781253 -0.02669999885559082 0.0022841674804687795
v 0.10092753906250002 -0.02669999885559082 0.00240822143554692
v 0.096619769287109358 -0.02669999885559082 -0.0035139282226562263
v 0.09723607177734378 -0.02669999885559082 -0.0041302001953124612
v 0.096119860839843752 -0.02669999885559082 -0.0027999999999999692
v 0.097949999999999982 -0.02669999885559082 -0.0046301086425781235
v 0.095751544189453142 -0.02669999885559082 -0.0020100830078124687
v 0.098739886474609406 -0.02669999885559082 -0.0049984558105468646
v 0.099581744384765636 -0.02669999885559082 -0.0052240417480468593
v 0.095525958251953147 -0.02669999885559082 -0.0011682250976562392
v 0.095449999999999979 -0.02669999885559082 -0.00029999999999996696
v 0.10044999999999998 -0.02669999885559082 -0.0052999999999999714
v 0.095525958251953147 -0.02669999885559082 0.00056825561523438095
v 0.10131825561523439 -0.02669999885559082 -0.0052240417480468593
v 0.095751544189453142 -0.02669999885559082 0.001410113525390666
v 0.096119860839843752 -0.02669999885559082 0.0022000000000000353
v 0.10216011352539062 -0.02669999885559082 -0.0049984558105468646
v 0.10294999999999999 -0.02669999885559082 -0.0046301086425781235
v 0.096619769287109358 -0.02669999885559082 0.0029139587402344236
v 0.10366392822265624 -0.02669999885559082 -0.0041302001953124612
v 0.09723607177734378 -0.02669999885559082 0.0035302307128906585
v 0.10428023071289061 -0.02669999885559082 -0.0035139282226562263
v 0.097949999999999982 -0.02669999885559082 0.0040301391601562653
v 0.10478013916015627 -0.02669999885559082 -0.0027999999999999692
v 0.098739886474609406 -0.02669999885559082 0.0043984863281250064
v 0.10514845581054688 -0.02669999885559082 -0.0020100830078124687
v 0.099581744384765636 -0.02669999885559082 0.0046240417480469254
v 0.10537404174804688 -0.02669999885559082 -0.0011682250976562392
v 0.10044999999999998 -0.02669999885559082 0.0047000000000000375
v 0.10544999999999999 -0.02669999885559082 -0.00029999999999996696
v 0.10131825561523439 -0.02669999885559082 0.0046240417480469254
v 0.10537404174804688 -0.02669999885559082 0.00056825561523438095
v 0.10216011352539062 -0.02669999885559082 0.0043984863281250064
v 0.10514845581054688 -0.02669999885559082 0.001410113525390666
v 0.10294999999999999 -0.02669999885559082 0.0040301391601562653
v 0.10478013916015627 -0.02669999885559082 0.0022000000000000353
v 0.10366392822265624 -0.02669999885559082 0.0035302307128906585
v 0.10428023071289061 -0.02669999885559082 0.0029139587402344236
v 0.0081309997558594027 0.011717982292175293 0.019550006103515649
v 0.0031309997558593983 -0.011517981529235839 0.019550006103515649
v 0.0081309997558594027 -0.011517981529235839 0.019550006103515649
v 0.0031309997558593983 0.011717982292175293 0.019550006103515649
v 0.0081309997558594027 0.013950000762939454 0.018062396240234424
v 0.0031309997558593983 0.013950000762939454 0.018062396240234424
v 0.0031309997558593983 0.013950000762939454 0.016550006103515646
v 0.0081309997558594027 0.013950000762939454 0.016550006103515646
v 0.0031309997558593983 -0.013749999046325683 0.016550006103515646
v 0.0081309997558594027 -0.013749999046325683 0.016550006103515646
v 0.0031309997558593983 -0.011517981529235839 -0.020149975585937452
v 0.0031309997558593983 0.011717982292175293 -0.020149975585937452
v 0.0081309997558594027 0.011717982292175293 -0.020149975585937452
v 0.0081309997558594027 -0.011517981529235839 -0.020149975585937452
v 0.0031309997558593983 -0.016750000000000001 -0.015954937744140585
v 0.0081309997558594027 -0.016750000000000001 -0.015954937744140585
v 0.0031309997558593983 -0.016750000000000001 0.015354968261718782
v 0.0081309997558594027 -0.016750000000000001 0.015354968261718782
v 0.10044999999999998 -0.024399999618530274 0.0047000000000000375
v 0.099581744384765636 -0.024399999618530274 0.0046240417480469254
v 0.098739886474609406 -0.024399999618530274 0.0043984863281250064
v 0.097949999999999982 -0.024399999618530274 0.0040301391601562653
v 0.09723607177734378 -0.024399999618530274 0.0035302307128906585
v 0.096619769287109358 -0.024399999618530274 0.0029139587402344236
v 0.096119860839843752 -0.024399999618530274 0.0022000000000000353
v 0.095751544189453142 -0.024399999618530274 0.001410113525390666
v 0.095525958251953147 -0.024399999618530274 0.00056825561523438095
v 0.095449999999999979 -0.024399999618530274 -0.00029999999999996696
v 0.095525958251953147 -0.024399999618530274 -0.0011682250976562392
v 0.095751544189453142 -0.024399999618530274 -0.0020100830078124687
v 0.096119860839843752 -0.024399999618530274 -0.0027999999999999692
v 0.096619769287109358 -0.024399999618530274 -0.0035139282226562263
v 0.09723607177734378 -0.024399999618530274 -0.0041302001953124612
v 0.097949999999999982 -0.024399999618530274 -0.0046301086425781235
v 0.098739886474609406 -0.024399999618530274 -0.0049984558105468646
v 0.099581744384765636 -0.024399999618530274 -0.0052240417480468593
v 0.10044999999999998 -0.024399999618530274 -0.0052999999999999714
v 0.10131825561523439 -0.024399999618530274 -0.0052240417480468593
v 0.10216011352539062 -0.024399999618530274 -0.0049984558105468646
v 0.10294999999999999 -0.024399999618530274 -0.0046301086425781235
v 0.10366392822265624 -0.024399999618530274 -0.0041302001953124612
v 0.10428023071289061 -0.024399999618530274 -0.0035139282226562263
v 0.10478013916015627 -0.024399999618530274 -0.0027999999999999692
v 0.10514845581054688 -0.024399999618530274 -0.0020100830078124687
v 0.10537404174804688 -0.024399999618530274 -0.0011682250976562392
v 0.10544999999999999 -0.024399999618530274 -0.00029999999999996696
v 0.10537404174804688 -0.024399999618530274 0.00056825561523438095
v 0.10514845581054688 -0.024399999618530274 0.001410113525390666
v 0.10478013916015627 -0.024399999618530274 0.0022000000000000353
v 0.10428023071289061 -0.024399999618530274 0.0029139587402344236
v 0.10366392822265624 -0.024399999618530274 0.0035302307128906585
v 0.10294999999999999 -0.024399999618530274 0.0040301391601562653
v 0.10216011352539062 -0.024399999618530274 0.0043984863281250064
v 0.10131825561523439 -0.024399999618530274 0.0046240417480469254
v 0.0087584411621093872 -0.011420657157897949 0.019450000000000023
v 0.0087920715332031052 -0.011496694564819335 0.019450000000000023
v 0.0088377868652343983 -0.011566112518310547 0.019450000000000023
v 0.0091125671386718676 -0.011743028640747071 0.019450000000000023
v 0.0088943969726562599 -0.011626993179321289 0.019450000000000023
v 0.0089603149414062555 -0.01167765235900879 0.019450000000000023
v 0.0090337097167969005 -0.011716691017150879 0.019450000000000023
v 0.0087310058593750295 -0.011257258415222168 0.019450000000000023
v 0.0087379028320312413 -0.011340103149414063 0.019450000000000023
v 0.0088264953613281238 0.042643894195556642 0.019450000000000023
v 0.0087855102539062258 0.042576995849609375 0.019450000000000023
v 0.0087554809570312697 0.042504508972167968 0.019450000000000023
v 0.0087371704101562586 0.042428218841552734 0.019450000000000023
v 0.0088774597167968761 0.042703556060791015 0.019450000000000023
v 0.0087310058593750295 0.042350002288818363 0.019450000000000023
v 0.0090040161132812768 0.042795505523681644 0.019450000000000023
v 0.0089371215820312488 0.042754508972167968 0.019450000000000023
v 0.0091527893066406518 0.042843845367431639 0.019450000000000023
v 0.0090764953613281518 0.042825527191162109 0.019450000000000023
v 0.0092310058593750299 0.042850002288818363 0.019450000000000023
v 0.099304522705078113 -0.021475526809692384 0.019450000000000023
v 0.099150012207031235 -0.021500000000000002 0.019450000000000023
v 0.099228228759765613 -0.021493843078613281 0.019450000000000023
v 0.099503558349609389 -0.021353551864624024 0.019450000000000023
v 0.099377001953124988 -0.021445503234863283 0.019450000000000023
v 0.099443896484375016 -0.021404508590698243 0.019450000000000023
v 0.099554522705078141 -0.021293891906738281 0.019450000000000023
v 0.099625537109374995 -0.021154508590698243 0.019450000000000023
v 0.099595507812499984 -0.021226993560791017 0.019450000000000023
v 0.099650012207031236 -0.021000000000000001 0.019450000000000023
v 0.099643847656250006 -0.021078216552734376 0.019450000000000023
v 0.063950000000000007 0.021700000762939455 0.019450000000000023
v 0.048038439941406275 -0.021233623504638671 0.019450000000000023
v 0.057200000000000029 -0.021500000000000002 0.019450000000000023
v 0.046543688964843732 0.042850002288818363 0.019450000000000023
v 0.099650012207031236 0.021700000762939455 0.019450000000000023
v 0.046543688964843732 0.042850002288818363 0.01645000000000002
v 0.0092310058593750299 0.042850002288818363 0.01645000000000002
v 0.0087369567871093956 0.042426967620849611 0.01645000000000002
v 0.0087310058593750295 0.042350002288818363 0.01645000000000002
v 0.0087546875000000246 0.04250210189819336 0.01645000000000002
v 0.0087838012695312662 0.042573608398437504 0.01645000000000002
v 0.0088235351562500064 0.042639785766601566 0.01645000000000002
v 0.0088730041503906065 0.042699050903320317 0.01645000000000002
v 0.0089309875488281509 0.042750000000000003 0.01645000000000002
v 0.008998950195312494 0.04279288864135742 0.01645000000000002
v 0.0090728942871093898 0.042824340820312501 0.01645000000000002
v 0.0091508972167969049 0.042843544006347656 0.01645000000000002
v 0.0087310058593750295 -0.011257258415222168 0.01645000000000002
v 0.0091125671386718676 -0.011743028640747071 0.01645000000000002
v 0.0090337097167969005 -0.011716691017150879 0.01645000000000002
v 0.0089603149414062555 -0.01167765235900879 0.01645000000000002
v 0.0088943969726562599 -0.011626993179321289 0.01645000000000002
v 0.0088377868652343983 -0.011566112518310547 0.01645000000000002
v 0.0087920715332031052 -0.011496694564819335 0.01645000000000002
v 0.0087584411621093872 -0.011420657157897949 0.01645000000000002
v 0.0087379028320312413 -0.011340103149414063 0.01645000000000002
v 0.0031309997558593983 0.013950000762939454 -0.018662396240234358
v 0.0031309997558593983 0.012481093406677246 -0.019683178710937499
v 0.0031309997558593983 0.013225474357604981 -0.019187084960937462
v 0.0031309997558593983 0.012481093406677246 0.019083209228515641
v 0.0031309997558593983 0.013225474357604981 0.018587084960937528
v 0.0031309997558593983 0.0085935077667236327 0.021074298095703159
v 0.0031309997558593983 -0.0083935060501098627 0.021074298095703159
v 0.0031309997558593983 0.0052749853134155273 0.022110278320312537
v 0.0031309997558593983 0.0018382331132888795 0.022634234619140658
v 0.0031309997558593983 -0.0016382317543029786 0.022634234619140658
v 0.0031309997558593983 -0.0050749840736389164 0.022110278320312537
v 0.0031309997558593983 -0.013395824432373048 0.018324267578124998
v 0.0031309997558593983 -0.015145374298095704 0.016921466064453161
v 0.0031309997558593983 -0.019109813690185547 0.012348437500000031
v 0.0031309997558593983 -0.019109813690185547 -0.012948437499999965
v 0.0031309997558593983 -0.020939167022705079 -0.0095926330566405982
v 0.0031309997558593983 -0.020939167022705079 0.0089926635742187955
v 0.0031309997558593983 -0.022187543869018556 0.0053802673339843898
v 0.0031309997558593983 -0.022820470809936523 0.001611010742187502
v 0.0031309997558593983 -0.022820470809936523 -0.0022110107421874914
v 0.0031309997558593983 -0.022187543869018556 -0.005980236816406248
v 0.0031309997558593983 -0.013395824432373048 -0.018924237060546856
v 0.0031309997558593983 -0.015145374298095704 -0.017521435546874964
v 0.0031309997558593983 -0.0087961912155151371 -0.021509838867187492
v 0.0031309997558593983 -0.0059187202453613282 -0.022498516845703087
v 0.0031309997558593983 -0.0029359235763549807 -0.023098736572265577
v 0.0031309997558593983 0.00010000068694353103 -0.023299999999999987
v 0.0031309997558593983 0.0089961919784545905 -0.021509838867187492
v 0.0031309997558593983 0.0061187214851379399 -0.022498516845703087
v 0.0031309997558593983 0.0031359250545501711 -0.023098736572265577
v -0.0031689880371093548 -0.019818584442138673 -0.011799999999999977
v -0.0031689880371093548 -0.014684114456176758 -0.017919018554687471
v -0.0031689880371093548 -0.017519021987915041 -0.015084118652343714
v -0.0031689880371093548 -0.022550577163696288 -0.0042938964843750038
v -0.0031689880371093548 -0.021512929916381835 -0.0081664550781249678
v -0.0031689880371093548 -0.022899999618530273 -0.00029999999999996696
v -0.0031689880371093548 0.00010000068694353103 -0.023299999999999987
v -0.0031689880371093548 -0.0038939073085784912 -0.022950573730468715
v -0.0031689880371093548 -0.0077664628028869627 -0.021912915039062453
v -0.0031689880371093548 -0.011399999618530273 -0.020218579101562495
v -0.0031689880371093548 -0.021512929916381835 0.0075664855957031651
v -0.0031689880371093548 -0.022550577163696288 0.0036939270019531456
v -0.0031689880371093548 0.0079664640426635736 -0.021912915039062453
v -0.0031689880371093548 0.0040939087867736821 -0.022950573730468715
v -0.0031689880371093548 -0.017519021987915041 0.01448411865234378
v -0.0031689880371093548 -0.019818584442138673 0.011200000000000043
v -0.0031689880371093548 0.014884116172790528 -0.017919018554687471
v -0.0031689880371093548 0.011600000381469727 -0.020218579101562495
v -0.0031689880371093548 -0.014684114456176758 0.017319018554687537
v -0.0031689880371093548 -0.011399999618530273 0.019618579101562506
v -0.0031689880371093548 -0.0077664628028869627 0.02131294555664065
v -0.0031689880371093548 0.021712930679321289 -0.0081664550781249678
v -0.0031689880371093548 0.020018585205078127 -0.011799999999999977
v -0.0031689880371093548 0.017719022750854494 -0.015084118652343714
v -0.0031689880371093548 -0.0038939073085784912 0.022350573730468781
v -0.0031689880371093548 0.023100000381469726 -0.00029999999999996696
v -0.0031689880371093548 0.022750579833984375 -0.0042938964843750038
v -0.0031689880371093548 0.0079664640426635736 0.02131294555664065
v -0.0031689880371093548 0.00010000068694353103 0.022699999999999998
v -0.0031689880371093548 0.0040939087867736821 0.022350573730468781
v -0.0031689880371093548 0.021712930679321289 0.0075664855957031651
v -0.0031689880371093548 0.022750579833984375 0.0036939270019531456
v -0.0031689880371093548 0.014884116172790528 0.017319018554687537
v -0.0031689880371093548 0.011600000381469727 0.019618579101562506
v -0.0031689880371093548 0.017719022750854494 0.01448411865234378
v -0.0031689880371093548 0.020018585205078127 0.011200000000000043
v 0.0081309997558594027 0.013950000762939454 -0.018662396240234358
v 0.046625994873046861 0.042750000000000003 0.01645000000000002
v 0.0081309997558594027 -0.013749999046325683 0.014450000000000018
v 0.0031309997558593983 -0.013749999046325683 0.014450000000000018
v 0.0031309997558593983 -0.011749999046325683 0.01645000000000002
v 0.0031309997558593983 0.014606656074523926 0.017548175048828163
v 0.0031309997558593983 0.01524423599243164 0.01701048583984377
v 0.0031309997558593983 0.01586190128326416 0.01645000000000002
v 0.0081309997558594027 -0.013749999046325683 -0.015049999999999952
v 0.0081309997558594027 -0.013749999046325683 -0.017149975585937449
v 0.0081309997558594027 0.013950000762939454 -0.017149975585937449
v 0.090491412353515654 -0.024399999618530274 -0.0086562316894531199
v 0.092093768310546886 -0.024399999618530274 -0.010258557128906221
v 0.0891916687011719 -0.024399999618530274 -0.0067999999999999727
v 0.093949999999999978 -0.024399999618530274 -0.011558331298828106
v 0.096003741455078118 -0.024399999618530274 -0.012516003417968713
v 0.088233996582031238 -0.024399999618530274 -0.0047462585449218331
v 0.08764750976562502 -0.024399999618530274 -0.0025574157714843282
v 0.098192584228515623 -0.024399999618530274 -0.013102490234374986
v 0.087450000000000028 -0.024399999618530274 -0.00029999999999996696
v 0.10044999999999998 -0.024399999618530274 -0.013299999999999979
v 0.08764750976562502 -0.024399999618530274 0.0019574462890625255
v 0.1027074157714844 -0.024399999618530274 -0.013102490234374986
v 0.088233996582031238 -0.024399999618530274 0.0041462585449218992
v 0.10489625854492191 -0.024399999618530274 -0.012516003417968713
v 0.0891916687011719 -0.024399999618530274 0.0062000000000000388
v 0.10694999999999999 -0.024399999618530274 -0.011558331298828106
v 0.090491412353515654 -0.024399999618530274 0.0080562622070312617
v 0.10880623168945314 -0.024399999618530274 -0.010258557128906221
v 0.092093768310546886 -0.024399999618530274 0.0096585876464844178
v 0.11040858764648437 -0.024399999618530274 -0.0086562316894531199
v 0.093949999999999978 -0.024399999618530274 0.010958331298828172
v 0.11170833129882812 -0.024399999618530274 -0.0067999999999999727
v 0.096003741455078118 -0.024399999618530274 0.011916003417968779
v 0.11266600341796873 -0.024399999618530274 -0.0047462585449218331
v 0.098192584228515623 -0.024399999618530274 0.012502520751953128
v 0.113252490234375 -0.024399999618530274 -0.0025574157714843282
v 0.10044999999999998 -0.024399999618530274 0.012700000000000045
v 0.11345 -0.024399999618530274 -0.00029999999999996696
v 0.1027074157714844 -0.024399999618530274 0.012502520751953128
v 0.113252490234375 -0.024399999618530274 0.0019574462890625255
v 0.10489625854492191 -0.024399999618530274 0.011916003417968779
v 0.11266600341796873 -0.024399999618530274 0.0041462585449218992
v 0.10694999999999999 -0.024399999618530274 0.010958331298828172
v 0.11170833129882812 -0.024399999618530274 0.0062000000000000388
v 0.10880623168945314 -0.024399999618530274 0.0096585876464844178
v 0.11040858764648437 -0.024399999618530274 0.0080562622070312617
v 0.093949999999999978 0.024600000381469728 -0.011558331298828106
v 0.092093768310546886 0.024600000381469728 -0.010258557128906221
v 0.090491412353515654 0.024600000381469728 -0.0086562316894531199
v 0.0891916687011719 0.024600000381469728 -0.0067999999999999727
v 0.087450000000000028 0.024600000381469728 -0.00029999999999996696
v 0.088233996582031238 0.024600000381469728 -0.0047462585449218331
v 0.08764750976562502 0.024600000381469728 -0.0025574157714843282
v 0.10044999999999998 0.024600000381469728 -0.013299999999999979
v 0.098192584228515623 0.024600000381469728 -0.013102490234374986
v 0.096003741455078118 0.024600000381469728 -0.012516003417968713
v 0.1027074157714844 0.024600000381469728 -0.013102490234374986
v 0.090491412353515654 0.024600000381469728 0.0080562622070312617
v 0.088233996582031238 0.024600000381469728 0.0041462585449218992
v 0.0891916687011719 0.024600000381469728 0.0062000000000000388
v 0.11040858764648437 0.024600000381469728 -0.0086562316894531199
v 0.10880623168945314 0.024600000381469728 -0.010258557128906221
v 0.10694999999999999 0.024600000381469728 -0.011558331298828106
v 0.10489625854492191 0.024600000381469728 -0.012516003417968713
v 0.11266600341796873 0.024600000381469728 -0.0047462585449218331
v 0.08764750976562502 0.024600000381469728 0.0019574462890625255
v 0.092093768310546886 0.024600000381469728 0.0096585876464844178
v 0.093949999999999978 0.024600000381469728 0.010958331298828172
v 0.11170833129882812 0.024600000381469728 -0.0067999999999999727
v 0.10044999999999998 0.024600000381469728 0.012700000000000045
v 0.096003741455078118 0.024600000381469728 0.011916003417968779
v 0.098192584228515623 0.024600000381469728 0.012502520751953128
v 0.1027074157714844 0.024600000381469728 0.012502520751953128
v 0.10489625854492191 0.024600000381469728 0.011916003417968779
v 0.113252490234375 0.024600000381469728 -0.0025574157714843282
v 0.11170833129882812 0.024600000381469728 0.0062000000000000388
v 0.11266600341796873 0.024600000381469728 0.0041462585449218992
v 0.113252490234375 0.024600000381469728 0.0019574462890625255
v 0.11040858764648437 0.024600000381469728 0.0080562622070312617
v 0.10694999999999999 0.024600000381469728 0.010958331298828172
v 0.10880623168945314 0.024600000381469728 0.0096585876464844178
v 0.11345 0.024600000381469728 -0.00029999999999996696
v 0.099643847656250006 -0.021078216552734376 0.01645000000000002
v 0.099650012207031236 -0.021000000000000001 0.01645000000000002
v 0.099625537109374995 -0.021154508590698243 0.01645000000000002
v 0.099595507812499984 -0.021226993560791017 0.01645000000000002
v 0.099554522705078141 -0.021293891906738281 0.01645000000000002
v 0.099503558349609389 -0.021353551864624024 0.01645000000000002
v 0.099443896484375016 -0.021404508590698243 0.01645000000000002
v 0.099377001953124988 -0.021445503234863283 0.01645000000000002
v 0.099304522705078113 -0.021475526809692384 0.01645000000000002
v 0.099228228759765613 -0.021493843078613281 0.01645000000000002
v 0.099150012207031235 -0.021500000000000002 0.01645000000000002
v 0.099650012207031236 0.021700000762939455 0.01645000000000002
v 0.063950000000000007 0.021700000762939455 0.01645000000000002
v 0.0091411621093749895 -0.011749999046325683 0.01645000000000002
v 0.048038439941406275 -0.021233623504638671 0.01645000000000002
v 0.057200000000000029 -0.021500000000000002 0.01645000000000002
v 0.057700000000000029 -0.021500000000000002 0.01645000000000002
v 0.047130999755859382 0.042136379241943363 0.01645000000000002
v 0.063620806884765624 0.022100000381469725 0.01645000000000002
v 0.0031309997558593983 0.042750000000000003 0.01645000000000002
v 0.0031309997558593983 0.014606656074523926 -0.018148144531249966
v 0.0031309997558593983 0.01524423599243164 -0.017610455322265628
v 0.0031309997558593983 0.01586190128326416 -0.017049999999999954
v 0.0031309997558593983 0.018373332977294921 -0.014267285156249976
v 0.0031309997558593983 0.02039940643310547 -0.011113598632812471
v 0.0031309997558593983 0.021886310577392577 -0.007672680664062459
v 0.0031309997558593983 0.022794549942016601 -0.0040359619140624692
v 0.0031309997558593983 0.023100000381469726 -0.00029999999999996696
v 0.0031309997558593983 0.022794549942016601 0.0034359619140625353
v 0.0031309997558593983 0.021886310577392577 0.0070727111816406563
v 0.0031309997558593983 0.02039940643310547 0.010513629150390669
v 0.0031309997558593983 0.018373332977294921 0.013667315673828173
v 0.0031309997558593983 0.013950000762939454 -0.017149975585937449
v 0.0031309997558593983 -0.013749999046325683 -0.017149975585937449
v 0.047130999755859382 0.042750000000000003 0.01645000000000002
v 0.047130999755859382 0.044749999999999998 0.014450000000000018
v 0.0031309997558593983 0.044749999999999998 0.014450000000000018
v 0.0031309997558593983 0.044749999999999998 -0.015049999999999952
v 0.047130999755859382 0.044749999999999998 -0.015049999999999952
v 0.047130999755859382 -0.013749999046325683 0.014450000000000018
v 0.047130999755859382 -0.011749999046325683 0.01645000000000002
v 0.0031309997558593983 -0.013749999046325683 -0.015049999999999952
v 0.047130999755859382 -0.013749999046325683 -0.015049999999999952
v 0.10044999999999998 -0.021899999618530275 0.012700000000000045
v 0.098192584228515623 -0.021899999618530275 0.012502520751953128
v 0.096003741455078118 -0.021899999618530275 0.011916003417968779
v 0.093949999999999978 -0.021899999618530275 0.010958331298828172
v 0.092093768310546886 -0.021899999618530275 0.0096585876464844178
v 0.090491412353515654 -0.021899999618530275 0.0080562622070312617
v 0.0891916687011719 -0.021899999618530275 0.0062000000000000388
v 0.088233996582031238 -0.021899999618530275 0.0041462585449218992
v 0.08764750976562502 -0.021899999618530275 0.0019574462890625255
v 0.087450000000000028 -0.021899999618530275 -0.00029999999999996696
v 0.08764750976562502 -0.021899999618530275 -0.0025574157714843282
v 0.088233996582031238 -0.021899999618530275 -0.0047462585449218331
v 0.0891916687011719 -0.021899999618530275 -0.0067999999999999727
v 0.090491412353515654 -0.021899999618530275 -0.0086562316894531199
v 0.092093768310546886 -0.021899999618530275 -0.010258557128906221
v 0.093949999999999978 -0.021899999618530275 -0.011558331298828106
v 0.096003741455078118 -0.021899999618530275 -0.012516003417968713
v 0.098192584228515623 -0.021899999618530275 -0.013102490234374986
v 0.10044999999999998 -0.021899999618530275 -0.013299999999999979
v 0.1027074157714844 -0.021899999618530275 -0.013102490234374986
v 0.10489625854492191 -0.021899999618530275 -0.012516003417968713
v 0.10694999999999999 -0.021899999618530275 -0.011558331298828106
v 0.10880623168945314 -0.021899999618530275 -0.010258557128906221
v 0.11040858764648437 -0.021899999618530275 -0.0086562316894531199
v 0.11170833129882812 -0.021899999618530275 -0.0067999999999999727
v 0.11266600341796873 -0.021899999618530275 -0.0047462585449218331
v 0.113252490234375 -0.021899999618530275 -0.0025574157714843282
v 0.11345 -0.021899999618530275 -0.00029999999999996696
v 0.113252490234375 -0.021899999618530275 0.0019574462890625255
v 0.11266600341796873 -0.021899999618530275 0.0041462585449218992
v 0.11170833129882812 -0.021899999618530275 0.0062000000000000388
v 0.11040858764648437 -0.021899999618530275 0.0080562622070312617
v 0.10880623168945314 -0.021899999618530275 0.0096585876464844178
v 0.10694999999999999 -0.021899999618530275 0.010958331298828172
v 0.10489625854492191 -0.021899999618530275 0.011916003417968779
v 0.1027074157714844 -0.021899999618530275 0.012502520751953128
v 0.10044999999999998 0.022100000381469725 -0.013299999999999979
v 0.098192584228515623 0.022100000381469725 -0.013102490234374986
v 0.096003741455078118 0.022100000381469725 -0.012516003417968713
v 0.093949999999999978 0.022100000381469725 -0.011558331298828106
v 0.092093768310546886 0.022100000381469725 -0.010258557128906221
v 0.090491412353515654 0.022100000381469725 -0.0086562316894531199
v 0.0891916687011719 0.022100000381469725 -0.0067999999999999727
v 0.088233996582031238 0.022100000381469725 -0.0047462585449218331
v 0.08764750976562502 0.022100000381469725 -0.0025574157714843282
v 0.087450000000000028 0.022100000381469725 -0.00029999999999996696
v 0.08764750976562502 0.022100000381469725 0.0019574462890625255
v 0.088233996582031238 0.022100000381469725 0.0041462585449218992
v 0.0891916687011719 0.022100000381469725 0.0062000000000000388
v 0.090491412353515654 0.022100000381469725 0.0080562622070312617
v 0.092093768310546886 0.022100000381469725 0.0096585876464844178
v 0.093949999999999978 0.022100000381469725 0.010958331298828172
v 0.096003741455078118 0.022100000381469725 0.011916003417968779
v 0.098192584228515623 0.022100000381469725 0.012502520751953128
v 0.10044999999999998 0.022100000381469725 0.012700000000000045
v 0.1027074157714844 0.022100000381469725 0.012502520751953128
v 0.10489625854492191 0.022100000381469725 0.011916003417968779
v 0.10694999999999999 0.022100000381469725 0.010958331298828172
v 0.10880623168945314 0.022100000381469725 0.0096585876464844178
v 0.11040858764648437 0.022100000381469725 0.0080562622070312617
v 0.11170833129882812 0.022100000381469725 0.0062000000000000388
v 0.11266600341796873 0.022100000381469725 0.0041462585449218992
v 0.113252490234375 0.022100000381469725 0.0019574462890625255
v 0.11345 0.022100000381469725 -0.00029999999999996696
v 0.113252490234375 0.022100000381469725 -0.0025574157714843282
v 0.11266600341796873 0.022100000381469725 -0.0047462585449218331
v 0.11170833129882812 0.022100000381469725 -0.0067999999999999727
v 0.11040858764648437 0.022100000381469725 -0.0086562316894531199
v 0.10880623168945314 0.022100000381469725 -0.010258557128906221
v 0.10694999999999999 0.022100000381469725 -0.011558331298828106
v 0.10489625854492191 0.022100000381469725 -0.012516003417968713
v 0.1027074157714844 0.022100000381469725 -0.013102490234374986
v 0.11420000000000002 0.022100000381469725 -0.015049999999999952
v 0.11420000000000002 0.022100000381469725 0.014450000000000018
v 0.11420000000000002 -0.021899999618530275 0.014450000000000018
v 0.11420000000000002 -0.021899999618530275 -0.015049999999999952
v 0.11220000000000002 0.022100000381469725 0.01645000000000002
v 0.11220000000000002 -0.021899999618530275 0.01645000000000002
v 0.057700000000000029 -0.021899999618530275 0.01645000000000002
v 0.057700000000000029 0.022100000381469725 0.01645000000000002
v 0.055700000000000027 -0.021899999618530275 0.014450000000000018
v 0.055700000000000027 0.022100000381469725 0.014450000000000018
v 0.055700000000000027 0.022100000381469725 -0.015049999999999952
v 0.055700000000000027 -0.021899999618530275 -0.015049999999999952
v 0.046625994873046861 0.042750000000000003 -0.017049999999999954
v 0.047130999755859382 0.042750000000000003 -0.017049999999999954
v 0.0089309875488281509 0.042750000000000003 -0.017049999999999954
v 0.0031309997558593983 0.042750000000000003 -0.017049999999999954
v 0.0031309997558593983 -0.011749999046325683 -0.017049999999999954
v 0.047130999755859382 -0.011749999046325683 -0.017049999999999954
v 0.047130999755859382 0.042136379241943363 -0.017049999999999954
v 0.0091411621093749895 -0.011749999046325683 -0.017049999999999954
v 0.057700000000000029 -0.021500000000000002 -0.017049999999999954
v 0.057700000000000029 -0.021899999618530275 -0.017049999999999954
v 0.057700000000000029 0.022100000381469725 -0.017049999999999954
v 0.11220000000000002 -0.021899999618530275 -0.017049999999999954
v 0.11220000000000002 0.022100000381469725 -0.017049999999999954
v 0.063620806884765624 0.022100000381469725 -0.017049999999999954
v 0.0092310058593750299 0.042850002288818363 -0.017049999999999954
v 0.0091508972167969049 0.042843544006347656 -0.017049999999999954
v 0.0090728942871093898 0.042824340820312501 -0.017049999999999954
v 0.008998950195312494 0.04279288864135742 -0.017049999999999954
v 0.046543688964843732 0.042850002288818363 -0.017049999999999954
v 0.0088730041503906065 0.042699050903320317 -0.017049999999999954
v 0.0088235351562500064 0.042639785766601566 -0.017049999999999954
v 0.0087838012695312662 0.042573608398437504 -0.017049999999999954
v 0.0087546875000000246 0.04250210189819336 -0.017049999999999954
v 0.0087369567871093956 0.042426967620849611 -0.017049999999999954
v 0.0087310058593750295 0.042350002288818363 -0.017049999999999954
v 0.0091125671386718676 -0.011743028640747071 -0.017049999999999954
v 0.0087310058593750295 -0.011257258415222168 -0.017049999999999954
v 0.0087379028320312413 -0.011340103149414063 -0.017049999999999954
v 0.0087584411621093872 -0.011420657157897949 -0.017049999999999954
v 0.0087920715332031052 -0.011496694564819335 -0.017049999999999954
v 0.0088377868652343983 -0.011566112518310547 -0.017049999999999954
v 0.0088943969726562599 -0.011626993179321289 -0.017049999999999954
v 0.0089603149414062555 -0.01167765235900879 -0.017049999999999954
v 0.0090337097167969005 -0.011716691017150879 -0.017049999999999954
v 0.048038439941406275 -0.021233623504638671 -0.017049999999999954
v 0.057200000000000029 -0.021500000000000002 -0.017049999999999954
v 0.099443896484375016 -0.021404508590698243 -0.017049999999999954
v 0.099503558349609389 -0.021353551864624024 -0.017049999999999954
v 0.099554522705078141 -0.021293891906738281 -0.017049999999999954
v 0.099595507812499984 -0.021226993560791017 -0.017049999999999954
v 0.099377001953124988 -0.021445503234863283 -0.017049999999999954
v 0.099625537109374995 -0.021154508590698243 -0.017049999999999954
v 0.099304522705078113 -0.021475526809692384 -0.017049999999999954
v 0.099643847656250006 -0.021078216552734376 -0.017049999999999954
v 0.099228228759765613 -0.021493843078613281 -0.017049999999999954
v 0.099150012207031235 -0.021500000000000002 -0.017049999999999954
v 0.099650012207031236 -0.021000000000000001 -0.017049999999999954
v 0.099650012207031236 0.021700000762939455 -0.017049999999999954
v 0.063950000000000007 0.021700000762939455 -0.017049999999999954
f 1 2 3
f 4 5 6
f 4 3 5
f 7 8 1
f 9 10 11
f 9 4 10
f 9 1 3
f 9 7 1
f 9 3 4
f 12 13 9
f 12 11 14
f 12 14 15
f 12 9 11
f 16 12 15
f 17 18 19
f 17 20 18
f 17 21 20
f 17 22 21
f 23 17 24
f 23 16 22
f 23 12 16
f 23 22 17
f 25 12 23
f 26 25 23
f 27 25 26
f 28 26 29
f 30 31 27
f 30 27 26
f 32 33 30
f 34 32 30
f 34 35 36
f 34 28 35
f 34 26 28
f 34 30 26
f 37 38 39
f 40 41 42
f 40 39 41
f 43 44 37
f 43 45 44
f 43 37 39
f 46 47 48
f 46 40 47
f 49 50 51
f 49 46 50
f 52 53 54
f 52 55 53
f 56 52 54
f 57 49 58
f 57 39 40
f 57 43 39
f 57 40 46
f 57 46 49
f 59 60 61
f 59 57 60
f 62 63 64
f 62 65 63
f 66 59 67
f 68 69 62
f 68 70 69
f 68 71 70
f 68 66 72
f 68 54 43
f 68 64 56
f 68 62 64
f 68 43 57
f 68 56 54
f 68 57 59
f 68 59 66
f 63 65 73
f 63 73 74
f 64 74 75
f 64 63 74
f 56 75 76
f 56 64 75
f 52 76 77
f 52 56 76
f 55 77 78
f 55 52 77
f 53 55 78
f 53 78 79
f 54 53 79
f 54 79 80
f 43 54 80
f 43 80 81
f 45 43 81
f 45 81 82
f 44 45 82
f 44 82 83
f 37 44 83
f 37 83 84
f 38 37 84
f 38 85 86
f 38 84 85
f 39 38 86
f 41 39 86
f 41 86 87
f 42 41 87
f 42 88 89
f 42 87 88
f 40 42 89
f 47 40 89
f 47 90 91
f 47 89 90
f 48 47 91
f 46 48 91
f 46 91 92
f 50 92 93
f 50 46 92
f 51 94 95
f 51 93 94
f 51 50 93
f 49 51 95
f 58 96 97
f 58 95 96
f 58 49 95
f 57 58 97
f 60 97 98
f 60 57 97
f 61 98 99
f 61 60 98
f 59 100 101
f 59 99 100
f 59 61 99
f 67 59 101
f 66 102 103
f 66 101 102
f 66 67 101
f 72 66 103
f 68 103 104
f 68 72 103
f 71 68 104
f 71 104 105
f 70 71 105
f 70 106 107
f 70 105 106
f 69 70 107
f 62 69 107
f 62 108 73
f 62 107 108
f 65 62 73
f 87 109 110
f 87 86 109
f 85 111 109
f 85 109 86
f 88 87 110
f 88 110 112
f 84 111 85
f 84 113 111
f 89 88 112
f 89 114 115
f 89 112 114
f 83 116 113
f 83 113 84
f 90 89 115
f 82 117 116
f 82 116 83
f 91 90 115
f 91 115 118
f 81 117 82
f 81 119 117
f 92 91 118
f 92 118 120
f 80 119 81
f 80 121 119
f 80 122 121
f 93 120 123
f 93 92 120
f 79 122 80
f 94 123 124
f 94 93 123
f 78 125 122
f 78 122 79
f 95 124 126
f 95 94 124
f 77 125 78
f 96 95 126
f 127 125 77
f 128 96 126
f 97 96 128
f 129 127 77
f 129 77 76
f 129 76 75
f 130 97 128
f 131 129 75
f 132 99 98
f 132 98 97
f 132 97 130
f 133 75 74
f 133 131 75
f 134 99 132
f 135 73 108
f 135 74 73
f 135 133 74
f 136 100 99
f 136 99 134
f 137 108 107
f 137 135 108
f 138 101 100
f 138 100 136
f 139 137 107
f 140 102 101
f 140 101 138
f 141 107 106
f 141 139 107
f 142 103 102
f 142 102 140
f 143 141 106
f 143 106 105
f 144 103 142
f 144 143 105
f 144 105 104
f 144 104 103
f 145 146 147
f 148 146 145
f 148 145 149
f 150 148 149
f 151 150 149
f 151 149 152
f 153 151 152
f 153 152 154
f 155 156 157
f 155 157 158
f 159 158 160
f 159 155 158
f 161 159 160
f 161 160 162
f 147 161 162
f 146 161 147
f 133 135 163
f 133 163 164
f 131 164 165
f 131 133 164
f 129 165 166
f 129 131 165
f 127 166 167
f 127 129 166
f 125 167 168
f 125 127 167
f 122 125 168
f 122 168 169
f 121 122 169
f 121 169 170
f 119 121 170
f 119 170 171
f 117 119 171
f 117 172 173
f 117 171 172
f 116 117 173
f 113 116 173
f 113 173 174
f 111 113 174
f 111 174 175
f 109 111 175
f 109 176 177
f 109 175 176
f 110 109 177
f 112 110 177
f 112 178 179
f 112 177 178
f 114 112 179
f 114 179 180
f 115 114 180
f 118 115 180
f 118 180 181
f 120 182 183
f 120 181 182
f 120 118 181
f 123 120 183
f 123 183 184
f 124 123 184
f 126 184 185
f 126 124 184
f 128 185 186
f 128 126 185
f 130 186 187
f 130 128 186
f 132 187 188
f 132 130 187
f 134 189 190
f 134 188 189
f 134 132 188
f 136 190 191
f 136 134 190
f 138 136 191
f 140 191 192
f 140 138 191
f 142 193 194
f 142 192 193
f 142 140 192
f 144 142 194
f 143 144 194
f 143 194 195
f 141 143 195
f 141 195 196
f 139 141 196
f 139 197 198
f 139 196 197
f 137 139 198
f 137 198 163
f 135 137 163
f 199 200 201
f 202 201 203
f 202 203 204
f 202 204 205
f 202 199 201
f 206 207 199
f 206 199 202
f 208 209 210
f 208 210 211
f 212 211 213
f 212 208 211
f 214 215 212
f 214 212 213
f 216 217 214
f 216 214 213
f 218 216 213
f 219 220 221
f 222 223 224
f 225 219 223
f 225 220 219
f 225 223 222
f 226 225 227
f 226 220 225
f 228 226 229
f 228 220 226
f 230 220 228
f 230 202 231
f 230 231 232
f 230 232 220
f 230 206 202
f 233 213 206
f 233 206 230
f 233 218 213
f 234 230 228
f 235 236 218
f 235 218 233
f 237 238 213
f 237 213 211
f 239 211 210
f 239 237 211
f 240 210 209
f 240 239 210
f 241 209 208
f 241 240 209
f 242 208 212
f 242 241 208
f 243 212 215
f 243 242 212
f 244 215 214
f 244 243 215
f 245 214 217
f 245 244 214
f 246 217 216
f 246 245 217
f 236 216 218
f 236 246 216
f 213 247 206
f 238 247 213
f 248 202 205
f 249 205 204
f 249 248 205
f 250 204 203
f 250 249 204
f 251 203 201
f 251 250 203
f 252 201 200
f 252 251 201
f 253 200 199
f 253 252 200
f 254 199 207
f 254 253 199
f 255 254 207
f 247 207 206
f 247 255 207
f 256 156 257
f 256 257 258
f 148 150 259
f 259 150 260
f 146 148 261
f 146 261 262
f 262 261 263
f 262 263 264
f 262 264 265
f 262 265 266
f 161 146 267
f 161 267 268
f 159 161 269
f 159 269 270
f 270 269 271
f 271 269 272
f 271 272 273
f 271 273 274
f 271 274 275
f 271 275 276
f 155 159 277
f 277 159 278
f 156 155 279
f 156 279 280
f 156 280 281
f 156 281 282
f 156 282 283
f 283 282 284
f 284 282 285
f 286 287 288
f 289 286 290
f 291 287 286
f 291 286 289
f 292 293 294
f 292 294 295
f 292 295 287
f 296 291 297
f 298 299 292
f 300 296 301
f 300 291 296
f 302 303 298
f 304 287 291
f 304 291 300
f 305 287 304
f 306 287 305
f 307 308 309
f 310 292 287
f 310 287 306
f 311 312 307
f 311 309 302
f 311 307 309
f 313 310 314
f 313 314 315
f 313 298 292
f 313 292 310
f 316 317 311
f 318 313 319
f 318 302 298
f 318 298 313
f 320 302 318
f 320 321 316
f 320 311 302
f 320 316 311
f 156 256 322
f 156 322 157
f 244 245 243
f 245 246 243
f 246 236 243
f 236 323 243
f 236 235 323
f 153 154 324
f 325 153 324
f 326 153 325
f 151 327 150
f 328 327 151
f 329 328 151
f 326 329 153
f 153 329 151
f 154 147 162
f 324 154 162
f 152 149 145
f 330 162 160
f 330 324 162
f 331 330 160
f 158 331 160
f 322 332 157
f 332 331 158
f 332 158 157
f 154 152 147
f 147 152 145
f 177 333 334
f 177 176 333
f 175 335 333
f 175 333 176
f 178 177 334
f 178 336 337
f 178 334 336
f 174 335 175
f 174 338 335
f 174 339 338
f 179 178 337
f 173 339 174
f 180 337 340
f 180 179 337
f 172 339 173
f 172 341 339
f 181 340 342
f 181 180 340
f 171 343 341
f 171 341 172
f 182 342 344
f 182 181 342
f 170 343 171
f 170 345 343
f 183 182 344
f 183 344 346
f 169 347 345
f 169 345 170
f 184 346 348
f 184 183 346
f 168 349 347
f 168 347 169
f 185 348 350
f 185 184 348
f 351 349 168
f 351 168 167
f 352 185 350
f 352 186 185
f 353 351 167
f 353 167 166
f 354 187 186
f 354 186 352
f 355 353 166
f 355 166 165
f 355 165 164
f 356 188 187
f 356 187 354
f 357 355 164
f 358 190 189
f 358 189 188
f 358 188 356
f 359 164 163
f 359 357 164
f 360 191 190
f 360 190 358
f 361 163 198
f 361 359 163
f 362 192 191
f 362 191 360
f 363 198 197
f 363 197 196
f 363 361 198
f 364 193 192
f 364 192 362
f 365 363 196
f 365 196 195
f 366 193 364
f 367 365 195
f 368 193 366
f 368 367 195
f 368 195 194
f 368 194 193
f 369 370 371
f 369 371 372
f 373 372 374
f 373 374 375
f 373 369 372
f 376 377 378
f 379 378 369
f 379 376 378
f 380 381 382
f 383 384 385
f 383 385 386
f 387 373 388
f 387 388 381
f 387 380 389
f 387 389 390
f 387 391 383
f 387 386 379
f 387 369 373
f 387 379 369
f 387 383 386
f 387 381 380
f 392 393 394
f 395 390 393
f 395 393 392
f 396 397 387
f 396 387 390
f 396 390 395
f 398 399 400
f 401 398 400
f 401 396 402
f 401 402 403
f 401 400 404
f 401 404 397
f 401 397 396
f 405 406 228
f 405 228 229
f 407 229 226
f 407 405 229
f 408 226 227
f 408 407 226
f 409 227 225
f 409 408 227
f 410 225 222
f 410 409 225
f 411 222 224
f 411 410 222
f 412 224 223
f 412 411 224
f 413 223 219
f 413 412 223
f 414 219 221
f 414 413 219
f 415 221 220
f 415 414 221
f 406 234 228
f 406 416 234
f 416 417 230
f 416 230 234
f 418 419 231
f 418 231 202
f 248 418 202
f 419 420 232
f 419 232 231
f 421 415 220
f 421 220 232
f 420 421 232
f 323 235 233
f 422 323 233
f 230 422 233
f 423 422 230
f 417 423 230
f 326 418 248
f 326 248 249
f 326 249 250
f 326 250 251
f 326 251 252
f 326 252 253
f 326 253 254
f 326 254 255
f 326 255 247
f 329 326 247
f 424 238 237
f 424 237 239
f 424 239 240
f 424 240 241
f 424 241 242
f 424 242 243
f 424 329 238
f 247 238 329
f 285 282 292
f 285 292 299
f 284 285 299
f 284 299 298
f 283 284 298
f 283 298 303
f 156 283 303
f 257 156 303
f 258 257 303
f 258 303 302
f 256 258 302
f 425 256 302
f 426 425 302
f 427 426 302
f 427 302 309
f 428 427 309
f 428 309 308
f 429 428 308
f 429 308 307
f 430 429 307
f 430 307 312
f 431 312 311
f 431 430 312
f 432 431 311
f 433 311 317
f 433 432 311
f 434 317 316
f 434 433 317
f 435 316 321
f 435 434 316
f 436 321 320
f 436 435 321
f 329 320 318
f 329 436 320
f 328 329 318
f 327 328 318
f 150 327 318
f 260 318 319
f 260 150 318
f 259 260 319
f 148 259 319
f 261 319 313
f 261 148 319
f 263 313 315
f 263 261 313
f 264 315 314
f 264 263 315
f 265 314 310
f 265 264 314
f 266 310 306
f 266 265 310
f 262 306 305
f 262 266 306
f 146 262 305
f 267 146 305
f 267 305 304
f 268 267 304
f 161 268 304
f 161 304 300
f 269 161 300
f 269 300 301
f 272 269 301
f 272 301 296
f 273 296 297
f 273 272 296
f 274 297 291
f 274 273 297
f 275 291 289
f 275 274 291
f 276 289 290
f 276 275 289
f 271 290 286
f 271 276 290
f 270 286 288
f 270 271 286
f 159 288 287
f 159 270 288
f 278 159 287
f 277 287 295
f 277 278 287
f 155 277 295
f 279 295 294
f 279 155 295
f 280 294 293
f 280 279 294
f 281 293 292
f 281 280 293
f 282 281 292
f 256 437 332
f 256 332 322
f 332 438 331
f 437 438 332
f 323 422 439
f 440 323 439
f 243 323 440
f 441 424 243
f 440 441 243
f 442 441 440
f 442 440 443
f 418 324 444
f 418 444 445
f 326 325 324
f 326 324 418
f 438 446 330
f 438 330 331
f 330 447 444
f 324 330 444
f 357 359 448
f 357 448 449
f 355 449 450
f 355 357 449
f 353 450 451
f 353 355 450
f 351 451 452
f 351 353 451
f 349 452 453
f 349 351 452
f 347 349 453
f 347 453 454
f 345 347 454
f 345 454 455
f 343 345 455
f 343 455 456
f 341 343 456
f 341 456 457
f 339 341 457
f 339 457 458
f 338 339 458
f 338 458 459
f 335 338 459
f 335 459 460
f 333 335 460
f 333 460 461
f 334 333 461
f 334 461 462
f 336 334 462
f 336 462 463
f 337 336 463
f 337 463 464
f 340 337 464
f 340 464 465
f 342 340 465
f 342 465 466
f 344 466 467
f 344 342 466
f 346 467 468
f 346 344 467
f 348 468 469
f 348 346 468
f 350 469 470
f 350 348 469
f 352 470 471
f 352 350 470
f 354 471 472
f 354 352 471
f 356 473 474
f 356 472 473
f 356 354 472
f 358 356 474
f 360 474 475
f 360 358 474
f 362 475 476
f 362 360 475
f 364 476 477
f 364 362 476
f 366 477 478
f 366 364 477
f 368 478 479
f 368 366 478
f 367 368 479
f 367 479 480
f 365 367 480
f 365 480 481
f 363 365 481
f 363 481 482
f 361 363 482
f 361 483 448
f 361 482 483
f 359 361 448
f 377 376 484
f 377 484 485
f 378 485 486
f 378 377 485
f 369 486 487
f 369 378 486
f 370 487 488
f 370 369 487
f 371 488 489
f 371 370 488
f 372 371 489
f 372 489 490
f 374 372 490
f 374 490 491
f 375 374 491
f 375 491 492
f 373 375 492
f 373 492 493
f 388 373 493
f 388 493 494
f 381 388 494
f 381 494 495
f 382 381 495
f 382 495 496
f 380 382 496
f 380 496 497
f 389 380 497
f 389 497 498
f 390 389 498
f 390 498 499
f 393 390 499
f 393 499 500
f 394 393 500
f 394 500 501
f 392 394 501
f 392 501 502
f 395 502 503
f 395 392 502
f 396 503 504
f 396 395 503
f 402 504 505
f 402 396 504
f 403 505 506
f 403 402 505
f 401 507 508
f 401 506 507
f 401 403 506
f 398 401 508
f 399 509 510
f 399 508 509
f 399 398 508
f 400 399 510
f 404 510 511
f 404 400 510
f 397 511 512
f 397 404 511
f 387 512 513
f 387 397 512
f 391 513 514
f 391 387 513
f 383 514 515
f 383 391 514
f 384 383 515
f 384 516 517
f 384 515 516
f 385 384 517
f 385 517 518
f 386 385 518
f 379 386 518
f 379 518 519
f 376 379 519
f 376 519 484
f 520 521 522
f 520 522 523
f 521 524 525
f 521 525 522
f 417 416 423
f 406 525 524
f 406 524 416
f 405 525 406
f 407 525 405
f 408 525 407
f 409 525 408
f 410 525 409
f 411 525 410
f 412 525 411
f 413 525 412
f 414 525 413
f 526 415 421
f 526 525 415
f 415 525 414
f 524 423 416
f 418 445 419
f 445 420 419
f 445 421 420
f 527 422 423
f 527 421 445
f 445 422 527
f 421 528 526
f 529 528 421
f 527 529 421
f 530 531 528
f 529 530 528
f 532 443 533
f 534 443 532
f 535 442 534
f 442 443 534
f 436 329 424
f 435 436 424
f 434 435 424
f 433 424 441
f 433 434 424
f 432 441 442
f 432 433 441
f 431 442 535
f 431 432 442
f 430 431 535
f 429 430 535
f 428 429 535
f 427 428 535
f 536 446 438
f 425 437 256
f 426 437 425
f 427 437 426
f 438 437 536
f 427 536 437
f 537 445 444
f 537 444 447
f 440 439 422
f 538 422 445
f 538 445 537
f 538 440 422
f 443 538 533
f 443 440 538
f 539 537 447
f 330 539 447
f 536 539 330
f 446 536 330
f 531 540 541
f 530 542 540
f 530 540 531
f 453 452 526
f 451 526 452
f 454 453 526
f 450 526 451
f 455 454 526
f 449 526 450
f 456 526 528
f 456 455 526
f 457 528 531
f 457 456 528
f 458 531 541
f 458 457 531
f 459 458 541
f 525 448 483
f 525 483 482
f 525 449 448
f 481 525 482
f 460 459 541
f 480 525 481
f 461 460 541
f 522 525 480
f 479 522 480
f 462 461 541
f 478 522 479
f 463 462 541
f 477 522 478
f 464 463 541
f 476 522 477
f 465 464 541
f 523 474 473
f 523 473 472
f 523 472 471
f 523 471 470
f 543 470 469
f 543 469 468
f 543 468 467
f 543 467 466
f 543 466 465
f 543 523 470
f 541 543 465
f 523 522 475
f 475 522 476
f 523 475 474
f 525 526 449
f 520 523 543
f 544 520 543
f 516 520 544
f 515 520 516
f 514 520 515
f 517 516 544
f 513 520 514
f 518 517 544
f 512 520 513
f 519 518 544
f 511 520 512
f 484 519 544
f 485 484 544
f 521 511 510
f 521 510 509
f 521 509 508
f 521 508 507
f 506 521 507
f 524 506 505
f 524 521 506
f 504 524 505
f 503 524 504
f 502 524 503
f 545 493 492
f 545 492 491
f 545 491 490
f 545 490 489
f 545 489 488
f 545 488 487
f 545 487 486
f 545 486 485
f 545 485 544
f 530 545 542
f 423 493 545
f 423 500 499
f 423 499 498
f 423 498 497
f 423 497 496
f 423 496 495
f 423 495 494
f 423 494 493
f 529 423 545
f 529 545 530
f 527 423 529
f 423 524 502
f 423 502 501
f 423 501 500
f 521 520 511
f 538 532 533
f 546 547 548
f 546 548 549
f 546 549 534
f 532 546 534
f 550 546 532
f 535 534 551
f 535 551 552
f 535 552 553
f 535 553 554
f 535 554 555
f 535 555 556
f 427 535 556
f 536 557 539
f 536 558 559
f 536 559 560
f 536 560 561
f 536 561 562
f 536 562 563
f 536 563 564
f 536 564 565
f 536 565 557
f 536 427 558
f 556 558 427
f 537 539 566
f 567 537 566
f 540 537 567
f 538 542 545
f 540 542 537
f 538 537 542
f 568 569 543
f 570 543 569
f 571 543 570
f 572 568 543
f 573 543 571
f 574 572 543
f 575 543 573
f 576 574 543
f 577 576 543
f 578 543 575
f 544 543 578
f 540 577 541
f 579 544 578
f 545 579 580
f 545 544 579
f 543 541 577
f 25 550 532
f 25 532 538
f 12 538 545
f 12 545 580
f 12 25 538
f 25 27 546
f 25 546 550
f 26 556 555
f 29 555 554
f 29 26 555
f 28 554 553
f 28 29 554
f 35 553 552
f 35 28 553
f 36 552 551
f 36 35 552
f 34 551 534
f 34 36 551
f 32 534 549
f 32 34 534
f 33 549 548
f 33 32 549
f 30 548 547
f 30 33 548
f 31 547 546
f 31 30 547
f 27 31 546
f 556 23 558
f 26 23 556
f 22 16 557
f 22 557 565
f 21 565 564
f 21 22 565
f 20 564 563
f 20 21 564
f 18 563 562
f 18 20 563
f 19 562 561
f 19 18 562
f 17 561 560
f 17 19 561
f 24 560 559
f 24 17 560
f 23 559 558
f 23 24 559
f 539 15 566
f 16 539 557
f 16 15 539
f 566 14 567
f 15 14 566
f 540 11 577
f 14 540 567
f 14 11 540
f 9 578 575
f 7 9 575
f 8 575 573
f 8 7 575
f 1 573 571
f 1 8 573
f 2 570 569
f 2 571 570
f 2 1 571
f 3 2 569
f 5 569 568
f 5 3 569
f 6 568 572
f 6 5 568
f 4 572 574
f 4 6 572
f 10 574 576
f 10 4 574
f 11 576 577
f 11 10 576
f 9 579 578
f 9 13 579
f 13 12 580
f 13 580 579
