# ALOHA supplier-CAD diagnostic collision candidate
# coordinate frame: owning URDF link; unit: metre
v 0.016750000000000001 -0.043700000762939457 0.0030000000000000027
v 0.026683851242065432 -0.055409587860107426 0.0030000000000000027
v 0.032719974517822263 -0.052073539733886717 0.0030000000000000027
v 0.038344623565673829 -0.048082637786865237 0.0030000000000000027
v 0.04348706817626953 -0.04348706817626953 0.0030000000000000027
v 0.048082637786865237 -0.038344623565673829 0.0030000000000000027
v 0.052073539733886717 -0.032719974517822263 0.0030000000000000027
v 0.055409587860107426 -0.026683851242065432 0.0030000000000000027
v 0.058048824310302734 -0.020312162399291993 0.0030000000000000027
v 0.059958068847656254 -0.013685037612915039 0.0030000000000000027
v 0.06111330032348633 -0.0068858156204223636 0.0030000000000000027
v 0.061499999999999999 -2.0311932691363667e-14 0.0030000000000000027
v 0.016350000381469727 -0.044099998474121098 0.0030000000000000027
v 5.5703559169797969e-16 -0.061499999999999999 0.0030000000000000027
v 0.0068858156204223636 -0.06111330032348633 0.0030000000000000027
v 0.013685037612915039 -0.059958068847656254 0.0030000000000000027
v 0.020312162399291993 -0.058048824310302734 0.0030000000000000027
v -0.016350000381469727 -0.044099998474121098 0.0030000000000000027
v -0.026683851242065432 -0.055409587860107426 0.0030000000000000027
v -0.020312162399291993 -0.058048824310302734 0.0030000000000000027
v -0.013685037612915039 -0.059958068847656254 0.0030000000000000027
v -0.0068858156204223636 -0.06111330032348633 0.0030000000000000027
v -0.016750000000000001 -0.043700000762939457 0.0030000000000000027
v -0.032719974517822263 -0.052073539733886717 0.0030000000000000027
v -0.038344623565673829 -0.048082637786865237 0.0030000000000000027
v -0.04348706817626953 -0.04348706817626953 0.0030000000000000027
v -0.048082637786865237 -0.038344623565673829 0.0030000000000000027
v -0.052073539733886717 -0.032719974517822263 0.0030000000000000027
v 0.016750000000000001 0.043700000762939457 0.0030000000000000027
v 0.06111330032348633 0.0068858156204223636 0.0030000000000000027
v 0.059958068847656254 0.013685037612915039 0.0030000000000000027
v 0.058048824310302734 0.020312162399291993 0.0030000000000000027
v 0.055409587860107426 0.026683851242065432 0.0030000000000000027
v 0.052073539733886717 0.032719974517822263 0.0030000000000000027
v 0.048082637786865237 0.038344623565673829 0.0030000000000000027
v 0.04348706817626953 0.04348706817626953 0.0030000000000000027
v 0.038344623565673829 0.048082637786865237 0.0030000000000000027
v 0.032719974517822263 0.052073539733886717 0.0030000000000000027
v 0.026683851242065432 0.055409587860107426 0.0030000000000000027
v 0.016350000381469727 0.044099998474121098 0.0030000000000000027
v -0.055409587860107426 -0.026683851242065432 0.0030000000000000027
v 0.020312162399291993 0.058048824310302734 0.0030000000000000027
v -0.058048824310302734 -0.020312162399291993 0.0030000000000000027
v 0.013685037612915039 0.059958068847656254 0.0030000000000000027
v -0.059958068847656254 -0.013685037612915039 0.0030000000000000027
v 0.0068858156204223636 0.06111330032348633 0.0030000000000000027
v -0.06111330032348633 -0.0068858156204223636 0.0030000000000000027
v 5.8009153036664435e-16 0.061499999999999999 0.0030000000000000027
v -0.016350000381469727 0.044099998474121098 0.0030000000000000027
v -0.061499999999999999 -2.8180580156737802e-16 0.0030000000000000027
v -0.016750000000000001 0.043700000762939457 0.0030000000000000027
v -0.0068858156204223636 0.06111330032348633 0.0030000000000000027
v -0.06111330032348633 0.0068858156204223636 0.0030000000000000027
v -0.013685037612915039 0.059958068847656254 0.0030000000000000027
v -0.059958068847656254 0.013685037612915039 0.0030000000000000027
v -0.020312162399291993 0.058048824310302734 0.0030000000000000027
v -0.058048824310302734 0.020312162399291993 0.0030000000000000027
v -0.026683851242065432 0.055409587860107426 0.0030000000000000027
v -0.055409587860107426 0.026683851242065432 0.0030000000000000027
v -0.032719974517822263 0.052073539733886717 0.0030000000000000027
v -0.052073539733886717 0.032719974517822263 0.0030000000000000027
v -0.038344623565673829 0.048082637786865237 0.0030000000000000027
v -0.048082637786865237 0.038344623565673829 0.0030000000000000027
v -0.04348706817626953 0.04348706817626953 0.0030000000000000027
v -0.0056509160995483398 0.041113468170166013 0
v 5.670464098272987e-16 0.041500000000000002 0
v 5.670464098272987e-16 0.041500000000000002 -0.0030000000000000027
v -0.0056509160995483398 0.041113468170166013 -0.0030000000000000027
v -0.011196565628051759 0.039961067199707032 0
v -0.011196565628051759 0.039961067199707032 -0.0030000000000000027
v -0.016533645629882812 0.038064270019531249 0
v -0.016533645629882812 0.038064270019531249 -0.0030000000000000027
v -0.021562734603881837 0.035458404541015627 0
v -0.021562734603881837 0.035458404541015627 -0.0030000000000000027
v -0.026190149307250978 0.032192020416259765 0
v -0.026190149307250978 0.032192020416259765 -0.0030000000000000027
v -0.030329692840576173 0.028325956344604494 -0.0030000000000000027
v -0.030329692840576173 0.028325956344604494 0
v -0.033904251098632814 0.023932233810424804 0
v -0.033904251098632814 0.023932233810424804 -0.0030000000000000027
v -0.036847236633300785 0.019092699050903321 0
v -0.036847236633300785 0.019092699050903321 -0.0030000000000000027
v -0.039103828430175784 0.013897503852844238 0
v -0.039103828430175784 0.013897503852844238 -0.0030000000000000027
v -0.040631988525390628 0.0084434242248535157 -0.0030000000000000027
v -0.040631988525390628 0.0084434242248535157 0
v -0.041403255462646484 0.0028320600986480714 -0.0030000000000000027
v -0.041403255462646484 0.0028320600986480714 0
v -0.041403255462646484 -0.0028320600986480714 0
v -0.041403255462646484 -0.0028320600986480714 -0.0030000000000000027
v -0.040631988525390628 -0.0084434242248535157 0
v -0.040631988525390628 -0.0084434242248535157 -0.0030000000000000027
v -0.039103828430175784 -0.013897503852844238 -0.0030000000000000027
v -0.039103828430175784 -0.013897503852844238 0
v -0.036847236633300785 -0.019092699050903321 0
v -0.036847236633300785 -0.019092699050903321 -0.0030000000000000027
v -0.033904251098632814 -0.023932233810424804 0
v -0.033904251098632814 -0.023932233810424804 -0.0030000000000000027
v -0.030329692840576173 -0.028325956344604494 0
v -0.030329692840576173 -0.028325956344604494 -0.0030000000000000027
v -0.026190149307250978 -0.032192020416259765 0
v -0.026190149307250978 -0.032192020416259765 -0.0030000000000000027
v -0.021562734603881837 -0.035458404541015627 -0.0030000000000000027
v -0.021562734603881837 -0.035458404541015627 0
v -0.016533645629882812 -0.038064270019531249 -0.0030000000000000027
v -0.016533645629882812 -0.038064270019531249 0
v -0.011196565628051759 -0.039961067199707032 0
v -0.011196565628051759 -0.039961067199707032 -0.0030000000000000027
v -0.0056509160995483398 -0.041113468170166013 0
v -0.0056509160995483398 -0.041113468170166013 -0.0030000000000000027
v 1.0819949970708453e-14 -0.041500000000000002 -0.0030000000000000027
v 1.0819949970708453e-14 -0.041500000000000002 0
v 0.0056509160995483398 -0.041113468170166013 -0.0030000000000000027
v 0.0056509160995483398 -0.041113468170166013 0
v 0.011196565628051759 -0.039961067199707032 0
v 0.011196565628051759 -0.039961067199707032 -0.0030000000000000027
v 0.016533645629882812 -0.038064270019531249 0
v 0.016533645629882812 -0.038064270019531249 -0.0030000000000000027
v 0.021562734603881837 -0.035458404541015627 0
v 0.021562734603881837 -0.035458404541015627 -0.0030000000000000027
v 0.026190149307250978 -0.032192020416259765 0
v 0.026190149307250978 -0.032192020416259765 -0.0030000000000000027
v 0.030329692840576173 -0.028325956344604494 -0.0030000000000000027
v 0.030329692840576173 -0.028325956344604494 0
v 0.033904251098632814 -0.023932233810424804 0
v 0.033904251098632814 -0.023932233810424804 -0.0030000000000000027
v 0.036847236633300785 -0.019092699050903321 -0.0030000000000000027
v 0.036847236633300785 -0.019092699050903321 0
v 0.039103828430175784 -0.013897503852844238 0
v 0.039103828430175784 -0.013897503852844238 -0.0030000000000000027
v 0.040631988525390628 -0.0084434242248535157 0
v 0.040631988525390628 -0.0084434242248535157 -0.0030000000000000027
v 0.041403255462646484 -0.0028320600986480714 -0.0030000000000000027
v 0.041403255462646484 -0.0028320600986480714 0
v 0.041403255462646484 0.0028320600986480714 0
v 0.041403255462646484 0.0028320600986480714 -0.0030000000000000027
v 0.040631988525390628 0.0084434242248535157 0
v 0.040631988525390628 0.0084434242248535157 -0.0030000000000000027
v 0.039103828430175784 0.013897503852844238 0
v 0.039103828430175784 0.013897503852844238 -0.0030000000000000027
v 0.036847236633300785 0.019092699050903321 0
v 0.036847236633300785 0.019092699050903321 -0.0030000000000000027
v 0.033904251098632814 0.023932233810424804 0
v 0.033904251098632814 0.023932233810424804 -0.0030000000000000027
v 0.030329692840576173 0.028325956344604494 0
v 0.030329692840576173 0.028325956344604494 -0.0030000000000000027
v 0.026190149307250978 0.032192020416259765 0
v 0.026190149307250978 0.032192020416259765 -0.0030000000000000027
v 0.021562734603881837 0.035458404541015627 -0.0030000000000000027
v 0.021562734603881837 0.035458404541015627 0
v 0.016533645629882812 0.038064270019531249 0
v 0.016533645629882812 0.038064270019531249 -0.0030000000000000027
v 0.011196565628051759 0.039961067199707032 -0.0030000000000000027
v 0.011196565628051759 0.039961067199707032 0
v 0.0056509160995483398 0.041113468170166013 -0.0030000000000000027
v 0.0056509160995483398 0.041113468170166013 0
v 0.0068858156204223636 0.06111330032348633 0
v 5.8009153036664435e-16 0.061499999999999999 0
v 0.013685037612915039 0.059958068847656254 0
v 0.020312162399291993 0.058048824310302734 0
v 0.026683851242065432 0.055409587860107426 0
v 0.032719974517822263 0.052073539733886717 0
v 0.038344623565673829 0.048082637786865237 0
v 0.04348706817626953 0.04348706817626953 0
v 0.048082637786865237 0.038344623565673829 0
v 0.052073539733886717 0.032719974517822263 0
v 0.055409587860107426 0.026683851242065432 0
v 0.058048824310302734 0.020312162399291993 0
v 0.059958068847656254 0.013685037612915039 0
v 0.06111330032348633 0.0068858156204223636 0
v 0.061499999999999999 -2.0281805748756378e-14 0
v 0.06111330032348633 -0.0068858156204223636 0
v 0.059958068847656254 -0.013685037612915039 0
v 0.058048824310302734 -0.020312162399291993 0
v 0.055409587860107426 -0.026683851242065432 0
v 0.052073539733886717 -0.032719974517822263 0
v 0.048082637786865237 -0.038344623565673829 0
v 0.04348706817626953 -0.04348706817626953 0
v 0.038344623565673829 -0.048082637786865237 0
v 0.032719974517822263 -0.052073539733886717 0
v 0.026683851242065432 -0.055409587860107426 0
v 0.020312162399291993 -0.058048824310302734 0
v 0.013685037612915039 -0.059958068847656254 0
v 0.0068858156204223636 -0.06111330032348633 0
v 5.8716188378396541e-16 -0.061499999999999999 0
v -0.0068858156204223636 -0.06111330032348633 0
v -0.013685037612915039 -0.059958068847656254 0
v -0.020312162399291993 -0.058048824310302734 0
v -0.026683851242065432 -0.055409587860107426 0
v -0.032719974517822263 -0.052073539733886717 0
v -0.038344623565673829 -0.048082637786865237 0
v -0.04348706817626953 -0.04348706817626953 0
v -0.048082637786865237 -0.038344623565673829 0
v -0.052073539733886717 -0.032719974517822263 0
v -0.055409587860107426 -0.026683851242065432 0
v -0.058048824310302734 -0.020312162399291993 0
v -0.059958068847656254 -0.013685037612915039 0
v -0.06111330032348633 -0.0068858156204223636 0
v -0.061499999999999999 -3.1193212075841806e-16 0
v -0.06111330032348633 0.0068858156204223636 0
v -0.059958068847656254 0.013685037612915039 0
v -0.058048824310302734 0.020312162399291993 0
v -0.055409587860107426 0.026683851242065432 0
v -0.052073539733886717 0.032719974517822263 0
v -0.048082637786865237 0.038344623565673829 0
v -0.04348706817626953 0.04348706817626953 0
v -0.038344623565673829 0.048082637786865237 0
v -0.032719974517822263 0.052073539733886717 0
v -0.026683851242065432 0.055409587860107426 0
v -0.020312162399291993 0.058048824310302734 0
v -0.013685037612915039 0.059958068847656254 0
v -0.0068858156204223636 0.06111330032348633 0
v 0.016750000000000001 -0.043700000762939457 0.059500000000000011
v 0.016350000381469727 -0.044099998474121098 0.059334320068359384
v -0.016350000381469727 -0.044099998474121098 0.059334320068359384
v -0.016750000000000001 -0.043700000762939457 0.059500000000000011
v 0.0099585781097412118 -0.044099998474121098 0.056106231689453126
v 0.014584314346313477 -0.044099998474121098 0.061100006103515639
v 0.0083562393188476563 -0.044099998474121098 0.05770857238769532
v 0.011258330345153809 -0.044099998474121098 0.054250000000000007
v 0.0065000000000000006 -0.044099998474121098 0.05900833129882814
v 0.012216004371643066 -0.044099998474121098 0.052196258544921867
v 0.0044462618827819829 -0.044099998474121098 0.059966003417968747
v 0.012802500724792481 -0.044099998474121098 0.050007431030273428
v 0.0022574262619018555 -0.044099998474121098 0.060552505493164058
v 0.013000000000000001 -0.044099998474121098 0.047750000000000001
v 4.2799097599299784e-16 -0.044099998474121098 0.060750000000000012
v 0.012802500724792481 -0.044099998474121098 0.045492576599121093
v -0.014584314346313477 -0.044099998474121098 0.061100006103515639
v -0.0083562393188476563 -0.044099998474121098 0.05770857238769532
v -0.0065000000000000006 -0.044099998474121098 0.05900833129882814
v -0.0044462618827819829 -0.044099998474121098 0.059966003417968747
v -0.0022574262619018555 -0.044099998474121098 0.060552505493164058
v -0.0099585781097412118 -0.044099998474121098 0.056106231689453126
v -0.011258330345153809 -0.044099998474121098 0.054250000000000007
v -0.012216004371643066 -0.044099998474121098 0.052196258544921867
v -0.012802500724792481 -0.044099998474121098 0.050007431030273428
v -0.013000000000000001 -0.044099998474121098 0.047750000000000001
v -0.012802500724792481 -0.044099998474121098 0.045492576599121093
v 0.012216004371643066 -0.044099998474121098 0.043303741455078121
v 0.011258330345153809 -0.044099998474121098 0.041249999999999995
v 0.0099585781097412118 -0.044099998474121098 0.039393760681152343
v 0.0083562393188476563 -0.044099998474121098 0.037791419982910163
v 0.0065000000000000006 -0.044099998474121098 0.036491668701171875
v 0.0044462618827819829 -0.044099998474121098 0.035533996582031255
v 0.0022574262619018555 -0.044099998474121098 0.034947502136230477
v 2.0468730876910257e-14 -0.044099998474121098 0.034750000000000003
v -0.0022574262619018555 -0.044099998474121098 0.034947502136230477
v -0.0044462618827819829 -0.044099998474121098 0.035533996582031255
v -0.0065000000000000006 -0.044099998474121098 0.036491668701171875
v -0.0083562393188476563 -0.044099998474121098 0.037791419982910163
v -0.0099585781097412118 -0.044099998474121098 0.039393760681152343
v -0.011258330345153809 -0.044099998474121098 0.041249999999999995
v -0.012216004371643066 -0.044099998474121098 0.043303741455078121
v 0.016750000000000001 0.043700000762939457 0.059500000000000011
v -0.016750000000000001 0.043700000762939457 0.059500000000000011
v -0.014750000000000001 -0.043700000762939457 0.061500000000000013
v 0.014750000000000001 -0.043700000762939457 0.061500000000000013
v -0.014750000000000001 0.043700000762939457 0.061500000000000013
v 0.014750000000000001 0.043700000762939457 0.061500000000000013
v 4.3409720262843622e-16 -0.046400001525878906 0.060750000000000012
v 0.0022574262619018555 -0.046400001525878906 0.060552505493164058
v 0.0044462618827819829 -0.046400001525878906 0.059966003417968747
v 0.0065000000000000006 -0.046400001525878906 0.05900833129882814
v 0.0083562393188476563 -0.046400001525878906 0.05770857238769532
v 0.0099585781097412118 -0.046400001525878906 0.056106231689453126
v 0.011258330345153809 -0.046400001525878906 0.054250000000000007
v 0.012216004371643066 -0.046400001525878906 0.052196258544921867
v 0.012802500724792481 -0.046400001525878906 0.050007431030273428
v 0.013000000000000001 -0.046400001525878906 0.047750000000000001
v 0.012802500724792481 -0.046400001525878906 0.045492576599121093
v 0.012216004371643066 -0.046400001525878906 0.043303741455078121
v 0.011258330345153809 -0.046400001525878906 0.041249999999999995
v 0.0099585781097412118 -0.046400001525878906 0.039393760681152343
v 0.0083562393188476563 -0.046400001525878906 0.037791419982910163
v 0.0065000000000000006 -0.046400001525878906 0.036491668701171875
v 0.0044462618827819829 -0.046400001525878906 0.035533996582031255
v 0.0022574262619018555 -0.046400001525878906 0.034947502136230477
v 2.0375959600138495e-14 -0.046400001525878906 0.034750000000000003
v -0.0022574262619018555 -0.046400001525878906 0.034947502136230477
v -0.0044462618827819829 -0.046400001525878906 0.035533996582031255
v -0.0065000000000000006 -0.046400001525878906 0.036491668701171875
v -0.0083562393188476563 -0.046400001525878906 0.037791419982910163
v -0.0099585781097412118 -0.046400001525878906 0.039393760681152343
v -0.011258330345153809 -0.046400001525878906 0.041249999999999995
v -0.012216004371643066 -0.046400001525878906 0.043303741455078121
v -0.012802500724792481 -0.046400001525878906 0.045492576599121093
v -0.013000000000000001 -0.046400001525878906 0.047750000000000001
v -0.012802500724792481 -0.046400001525878906 0.050007431030273428
v -0.012216004371643066 -0.046400001525878906 0.052196258544921867
v -0.011258330345153809 -0.046400001525878906 0.054250000000000007
v -0.0099585781097412118 -0.046400001525878906 0.056106231689453126
v -0.0083562393188476563 -0.046400001525878906 0.05770857238769532
v -0.0065000000000000006 -0.046400001525878906 0.05900833129882814
v -0.0044462618827819829 -0.046400001525878906 0.059966003417968747
v -0.0022574262619018555 -0.046400001525878906 0.060552505493164058
v 0.0021632103919982911 -0.046599998474121093 0.060365890502929689
v 4.3506864777498324e-16 -0.046599998474121093 0.060550003051757825
v 0.0042641892433166505 -0.046599998474121093 0.059818832397460928
v 0.0062424950599670416 -0.046599998474121093 0.058924575805664056
v 0.0080412158966064462 -0.046599998474121093 0.057708862304687511
v 0.0096086053848266611 -0.046599998474121093 0.056206634521484375
v 0.010899573326110841 -0.046599998474121093 0.054461135864257812
v 0.01187697982788086 -0.046599998474121093 0.052522567749023433
v 0.012512706756591796 -0.046599998474121093 0.050446701049804685
v 0.012788466453552246 -0.046599998474121093 0.04829325103759767
v 0.012696325302124023 -0.046599998474121093 0.046124168395996104
v 0.012238934516906738 -0.046599998474121093 0.04400186920166016
v 0.011429450988769532 -0.046599998474121093 0.041987388610839851
v 0.010291163444519044 -0.046599998474121093 0.040138694763183602
v 0.0088568172454833987 -0.046599998474121093 0.03850896453857422
v 0.0071676774024963382 -0.046599998474121093 0.037145072937011719
v 0.0052723360061645505 -0.046599998474121093 0.036086273193359372
v 0.0032253191471099856 -0.046599998474121093 0.035363021850585943
v 0.001085515856742859 -0.046599998474121093 0.034996109008789064
v -0.001085515856742859 -0.046599998474121093 0.034996109008789064
v -0.0032253191471099856 -0.046599998474121093 0.035363021850585943
v -0.0052723360061645505 -0.046599998474121093 0.036086273193359372
v -0.0071676774024963382 -0.046599998474121093 0.037145072937011719
v -0.0088568172454833987 -0.046599998474121093 0.03850896453857422
v -0.010291163444519044 -0.046599998474121093 0.040138694763183602
v -0.011429450988769532 -0.046599998474121093 0.041987388610839851
v -0.012238934516906738 -0.046599998474121093 0.04400186920166016
v -0.012696325302124023 -0.046599998474121093 0.046124168395996104
v -0.012788466453552246 -0.046599998474121093 0.04829325103759767
v -0.012512706756591796 -0.046599998474121093 0.050446701049804685
v -0.01187697982788086 -0.046599998474121093 0.052522567749023433
v -0.010899573326110841 -0.046599998474121093 0.054461135864257812
v -0.0096086053848266611 -0.046599998474121093 0.056206634521484375
v -0.0080412158966064462 -0.046599998474121093 0.057708862304687511
v -0.0062424950599670416 -0.046599998474121093 0.058924575805664056
v -0.0042641892433166505 -0.046599998474121093 0.059818832397460928
v -0.0021632103919982911 -0.046599998474121093 0.060365890502929689
v -0.0032139379978179932 -0.046599998474121093 0.043919776916503908
v -0.0038302221298217773 -0.046599998474121093 0.044536064147949223
v -0.0025000000000000001 -0.046599998474121093 0.04341987609863282
v -0.0043301272392272947 -0.046599998474121093 0.045249999999999999
v -0.001710100769996643 -0.046599998474121093 0.043051536560058598
v -0.0046984629631042479 -0.046599998474121093 0.046039901733398433
v -0.00086824089288711553 -0.046599998474121093 0.042825958251953122
v -0.004924038887023926 -0.046599998474121093 0.046881759643554691
v 4.3615363599404381e-16 -0.046599998474121093 0.042749999999999996
v -0.0050000000000000001 -0.046599998474121093 0.047750000000000001
v 0.00086824089288711553 -0.046599998474121093 0.042825958251953122
v -0.004924038887023926 -0.046599998474121093 0.048618240356445311
v 0.001710100769996643 -0.046599998474121093 0.043051536560058598
v -0.0046984629631042479 -0.046599998474121093 0.049460098266601568
v 0.0025000000000000001 -0.046599998474121093 0.04341987609863282
v -0.0043301272392272947 -0.046599998474121093 0.050250000000000003
v 0.0032139379978179932 -0.046599998474121093 0.043919776916503908
v -0.0038302221298217773 -0.046599998474121093 0.050963943481445326
v 0.0038302221298217773 -0.046599998474121093 0.044536064147949223
v -0.0032139379978179932 -0.046599998474121093 0.051580215454101561
v -0.0025000000000000001 -0.046599998474121093 0.052080123901367195
v 0.0043301272392272947 -0.046599998474121093 0.045249999999999999
v -0.001710100769996643 -0.046599998474121093 0.052448455810546871
v 0.0046984629631042479 -0.046599998474121093 0.046039901733398433
v -0.00086824089288711553 -0.046599998474121093 0.052674041748046865
v 0.004924038887023926 -0.046599998474121093 0.046881759643554691
v 2.0431017988542522e-14 -0.046599998474121093 0.052750000000000005
v 0.0050000000000000001 -0.046599998474121093 0.047750000000000001
v 0.004924038887023926 -0.046599998474121093 0.048618240356445311
v 0.00086824089288711553 -0.046599998474121093 0.052674041748046865
v 0.0046984629631042479 -0.046599998474121093 0.049460098266601568
v 0.001710100769996643 -0.046599998474121093 0.052448455810546871
v 0.0043301272392272947 -0.046599998474121093 0.050250000000000003
v 0.0025000000000000001 -0.046599998474121093 0.052080123901367195
v 0.0038302221298217773 -0.046599998474121093 0.050963943481445326
v 0.0032139379978179932 -0.046599998474121093 0.051580215454101561
v 4.3604009292153025e-16 -0.048700000762939455 0.052750000000000005
v 0.00086824089288711553 -0.048700000762939455 0.052674041748046865
v 0.001710100769996643 -0.048700000762939455 0.052448455810546871
v 0.0025000000000000001 -0.048700000762939455 0.052080123901367195
v 0.0032139379978179932 -0.048700000762939455 0.051580215454101561
v 0.0038302221298217773 -0.048700000762939455 0.050963943481445326
v 0.0043301272392272947 -0.048700000762939455 0.050250000000000003
v 0.0046984629631042479 -0.048700000762939455 0.049460098266601568
v 0.004924038887023926 -0.048700000762939455 0.048618240356445311
v 0.0050000000000000001 -0.048700000762939455 0.047750000000000001
v 0.004924038887023926 -0.048700000762939455 0.046881759643554691
v 0.0046984629631042479 -0.048700000762939455 0.046039901733398433
v 0.0043301272392272947 -0.048700000762939455 0.045249999999999999
v 0.0038302221298217773 -0.048700000762939455 0.044536064147949223
v 0.0032139379978179932 -0.048700000762939455 0.043919776916503908
v 0.0025000000000000001 -0.048700000762939455 0.04341987609863282
v 0.001710100769996643 -0.048700000762939455 0.043051536560058598
v 0.00086824089288711553 -0.048700000762939455 0.042825958251953122
v 2.0416666621225767e-14 -0.048700000762939455 0.042749999999999996
v -0.00086824089288711553 -0.048700000762939455 0.042825958251953122
v -0.001710100769996643 -0.048700000762939455 0.043051536560058598
v -0.0025000000000000001 -0.048700000762939455 0.04341987609863282
v -0.0032139379978179932 -0.048700000762939455 0.043919776916503908
v -0.0038302221298217773 -0.048700000762939455 0.044536064147949223
v -0.0043301272392272947 -0.048700000762939455 0.045249999999999999
v -0.0046984629631042479 -0.048700000762939455 0.046039901733398433
v -0.004924038887023926 -0.048700000762939455 0.046881759643554691
v -0.0050000000000000001 -0.048700000762939455 0.047750000000000001
v -0.004924038887023926 -0.048700000762939455 0.048618240356445311
v -0.0046984629631042479 -0.048700000762939455 0.049460098266601568
v -0.0043301272392272947 -0.048700000762939455 0.050250000000000003
v -0.0038302221298217773 -0.048700000762939455 0.050963943481445326
v -0.0032139379978179932 -0.048700000762939455 0.051580215454101561
v -0.0025000000000000001 -0.048700000762939455 0.052080123901367195
v -0.001710100769996643 -0.048700000762939455 0.052448455810546871
v -0.00086824089288711553 -0.048700000762939455 0.052674041748046865
v 0.00081120395660400394 -0.048900001525878908 0.052480957031250011
v 4.3701153806807727e-16 -0.048900001525878908 0.052550003051757818
v 0.0015990710258483886 -0.048900001525878908 0.052275817871093741
v 0.002340935707092285 -0.048900001525878908 0.051940460205078129
v 0.0030154559612274169 -0.048900001525878908 0.05148457336425781
v 0.0036032271385192873 -0.048900001525878908 0.050921234130859375
v 0.0040873398780822759 -0.048900001525878908 0.050266677856445327
v 0.0044538674354553222 -0.048900001525878908 0.049539718627929677
v 0.0046922650337219238 -0.048900001525878908 0.048761260986328117
v 0.0047956748008728027 -0.048900001525878908 0.047953720092773447
v 0.0047611222267150881 -0.048900001525878908 0.047140312194824216
v 0.0045896005630493165 -0.048900001525878908 0.046344451904296882
v 0.0042860441207885746 -0.048900001525878908 0.045589019775390621
v 0.0038591861724853516 -0.048900001525878908 0.04489575958251954
v 0.0033213064670562743 -0.048900001525878908 0.044284614562988281
v 0.0026878790855407717 -0.048900001525878908 0.04377315521240234
v 0.0019771260023117064 -0.048900001525878908 0.043376106262207031
v 0.001209494709968567 -0.048900001525878908 0.0431048812866211
v 0.00040706843137741091 -0.048900001525878908 0.04296729278564454
v -0.00040706843137741091 -0.048900001525878908 0.04296729278564454
v -0.001209494709968567 -0.048900001525878908 0.0431048812866211
v -0.0019771260023117064 -0.048900001525878908 0.043376106262207031
v -0.0026878790855407717 -0.048900001525878908 0.04377315521240234
v -0.0033213064670562743 -0.048900001525878908 0.044284614562988281
v -0.0038591861724853516 -0.048900001525878908 0.04489575958251954
v -0.0042860441207885746 -0.048900001525878908 0.045589019775390621
v -0.0045896005630493165 -0.048900001525878908 0.046344451904296882
v -0.0047611222267150881 -0.048900001525878908 0.047140312194824216
v -0.0047956748008728027 -0.048900001525878908 0.047953720092773447
v -0.0046922650337219238 -0.048900001525878908 0.048761260986328117
v -0.0044538674354553222 -0.048900001525878908 0.049539718627929677
v -0.0040873398780822759 -0.048900001525878908 0.050266677856445327
v -0.0036032271385192873 -0.048900001525878908 0.050921234130859375
v -0.0030154559612274169 -0.048900001525878908 0.05148457336425781
v -0.002340935707092285 -0.048900001525878908 0.051940460205078129
v -0.0015990710258483886 -0.048900001525878908 0.052275817871093741
v -0.00081120395660400394 -0.048900001525878908 0.052480957031250011
v -0.0021066222190856934 -0.048900001525878908 0.045982330322265633
v -0.0017676659822463989 -0.048900001525878908 0.045643379211425777
v -0.0023815698623657227 -0.048900001525878908 0.046375000000000013
v -0.0013749999999999999 -0.048900001525878908 0.0453684310913086
v -0.0025841546058654784 -0.048900001525878908 0.04680944824218751
v -0.00094055539369583129 -0.048900001525878908 0.04516584777832032
v -0.0027082214355468748 -0.048900001525878908 0.047272468566894529
v -0.00047753247618675232 -0.048900001525878908 0.045041778564453128
v -0.0027499999999999998 -0.048900001525878908 0.047750000000000001
v 2.0435425920894978e-14 -0.048900001525878908 0.044999999999999998
v -0.0027082214355468748 -0.048900001525878908 0.048227531433105472
v 0.00047753247618675232 -0.048900001525878908 0.045041778564453128
v -0.0025841546058654784 -0.048900001525878908 0.048690551757812492
v 0.00094055539369583129 -0.048900001525878908 0.04516584777832032
v -0.0023815698623657227 -0.048900001525878908 0.049124999999999988
v 0.0013749999999999999 -0.048900001525878908 0.0453684310913086
v -0.0021066222190856934 -0.048900001525878908 0.049517669677734369
v 0.0017676659822463989 -0.048900001525878908 0.045643379211425777
v -0.0017676659822463989 -0.048900001525878908 0.049856628417968743
v 0.0021066222190856934 -0.048900001525878908 0.045982330322265633
v -0.0013749999999999999 -0.048900001525878908 0.050131576538085934
v 0.0023815698623657227 -0.048900001525878908 0.046375000000000013
v -0.00094055539369583129 -0.048900001525878908 0.050334152221679682
v 0.0025841546058654784 -0.048900001525878908 0.04680944824218751
v -0.00047753247618675232 -0.048900001525878908 0.050458221435546888
v 0.0027082214355468748 -0.048900001525878908 0.047272468566894529
v 4.4465277813932062e-16 -0.048900001525878908 0.050500000000000003
v 0.0027499999999999998 -0.048900001525878908 0.047750000000000001
v 0.0027082214355468748 -0.048900001525878908 0.048227531433105472
v 0.00047753247618675232 -0.048900001525878908 0.050458221435546888
v 0.0025841546058654784 -0.048900001525878908 0.048690551757812492
v 0.00094055539369583129 -0.048900001525878908 0.050334152221679682
v 0.0023815698623657227 -0.048900001525878908 0.049124999999999988
v 0.0013749999999999999 -0.048900001525878908 0.050131576538085934
v 0.0021066222190856934 -0.048900001525878908 0.049517669677734369
v 0.0017676659822463989 -0.048900001525878908 0.049856628417968743
v -0.0027082214355468748 -0.051750000000000004 0.047272468566894529
v -0.0027499999999999998 -0.051750000000000004 0.047750000000000001
v -0.0025841546058654784 -0.051750000000000004 0.04680944824218751
v -0.0023815698623657227 -0.051750000000000004 0.046375000000000013
v -0.0021066222190856934 -0.051750000000000004 0.045982330322265633
v -0.0017676659822463989 -0.051750000000000004 0.045643379211425777
v -0.0013749999999999999 -0.051750000000000004 0.0453684310913086
v -0.00094055539369583129 -0.051750000000000004 0.04516584777832032
v -0.00047753247618675232 -0.051750000000000004 0.045041778564453128
v 2.0442503592676963e-14 -0.051750000000000004 0.044999999999999998
v 0.00047753247618675232 -0.051750000000000004 0.045041778564453128
v 0.00094055539369583129 -0.051750000000000004 0.04516584777832032
v 0.0013749999999999999 -0.051750000000000004 0.0453684310913086
v 0.0017676659822463989 -0.051750000000000004 0.045643379211425777
v 0.0021066222190856934 -0.051750000000000004 0.045982330322265633
v 0.0023815698623657227 -0.051750000000000004 0.046375000000000013
v 0.0025841546058654784 -0.051750000000000004 0.04680944824218751
v 0.0027082214355468748 -0.051750000000000004 0.047272468566894529
v 0.0027499999999999998 -0.051750000000000004 0.047750000000000001
v 0.0027082214355468748 -0.051750000000000004 0.048227531433105472
v 0.0025841546058654784 -0.051750000000000004 0.048690551757812492
v 0.0023815698623657227 -0.051750000000000004 0.049124999999999988
v 0.0021066222190856934 -0.051750000000000004 0.049517669677734369
v 0.0017676659822463989 -0.051750000000000004 0.049856628417968743
v 0.0013749999999999999 -0.051750000000000004 0.050131576538085934
v 0.00094055539369583129 -0.051750000000000004 0.050334152221679682
v 0.00047753247618675232 -0.051750000000000004 0.050458221435546888
v 4.4297898682543748e-16 -0.051750000000000004 0.050500000000000003
v -0.00043019476532936098 -0.051750000000000004 0.050466140747070301
v -0.00084979671239852905 -0.051750000000000004 0.050365402221679692
v -0.001248473882675171 -0.051750000000000004 0.050200271606445315
v -0.0016164094209671022 -0.051750000000000004 0.049974792480468752
v -0.0019445436000823976 -0.051750000000000004 0.049694549560546877
v -0.0022247967720031739 -0.051750000000000004 0.049366409301757827
v -0.0024502680301666259 -0.051750000000000004 0.048998474121093746
v -0.0026154053211212159 -0.051750000000000004 0.04859980010986327
v -0.0027161428928375243 -0.051750000000000004 0.048180191040039053
v 4.4297898682543748e-16 -0.051900001525878904 0.050350006103515629
v 0.00045148527622222901 -0.051900001525878904 0.050310501098632818
v 0.00088925236463546753 -0.051900001525878904 0.050193206787109382
v 0.0012999999523162842 -0.051900001525878904 0.050001663208007821
v 0.0016712478399276735 -0.051900001525878904 0.04974171447753907
v 0.0019917155504226686 -0.051900001525878904 0.049421249389648439
v 0.0022516660690307618 -0.051900001525878904 0.049050003051757815
v 0.0024432008266448975 -0.051900001525878904 0.04863925170898438
v 0.002560500144958496 -0.051900001525878904 0.04820148468017578
v 0.0025999999046325685 -0.051900001525878904 0.047750000000000001
v 0.002560500144958496 -0.051900001525878904 0.047298515319824222
v 0.0024432008266448975 -0.051900001525878904 0.046860748291015622
v 0.0022516660690307618 -0.051900001525878904 0.046449996948242187
v 0.0019917155504226686 -0.051900001525878904 0.046078750610351563
v 0.0016712478399276735 -0.051900001525878904 0.045758285522460945
v 0.0012999999523162842 -0.051900001525878904 0.045498336791992194
v 0.00088925236463546753 -0.051900001525878904 0.045306800842285153
v 0.00045148527622222901 -0.051900001525878904 0.045189498901367184
v 2.0434615805031699e-14 -0.051900001525878904 0.045150001525878905
v -0.00045148527622222901 -0.051900001525878904 0.045189498901367184
v -0.00088925236463546753 -0.051900001525878904 0.045306800842285153
v -0.0012999999523162842 -0.051900001525878904 0.045498336791992194
v -0.0016712478399276735 -0.051900001525878904 0.045758285522460945
v -0.0019917155504226686 -0.051900001525878904 0.046078750610351563
v -0.0022516660690307618 -0.051900001525878904 0.046449996948242187
v -0.0024432008266448975 -0.051900001525878904 0.046860748291015622
v -0.002560500144958496 -0.051900001525878904 0.047298515319824222
v -0.0025999999046325685 -0.051900001525878904 0.047750000000000001
v -0.002560500144958496 -0.051900001525878904 0.04820148468017578
v -0.0024432008266448975 -0.051900001525878904 0.04863925170898438
v -0.0022516660690307618 -0.051900001525878904 0.049050003051757815
v -0.0019917155504226686 -0.051900001525878904 0.049421249389648439
v -0.0016712478399276735 -0.051900001525878904 0.04974171447753907
v -0.0012999999523162842 -0.051900001525878904 0.050001663208007821
v -0.00088925236463546753 -0.051900001525878904 0.050193206787109382
v -0.00045148527622222901 -0.051900001525878904 0.050310501098632818
v 0.016350000381469727 0.044099998474121098 0.059334320068359384
v 0.014584314346313477 0.044099998474121098 0.061100006103515639
v -0.014584314346313477 0.044099998474121098 0.061100006103515639
v -0.016350000381469727 0.044099998474121098 0.059334320068359384
v -0.0022574262619018555 0.044099998474121098 0.060552505493164058
v -9.3300367431936598e-16 0.044099998474121098 0.060750000000000012
v -9.5298768876261877e-16 0.046400001525878906 0.060750000000000012
v -0.0022574262619018555 0.046400001525878906 0.060552505493164058
v -0.0044462618827819829 0.044099998474121098 0.059966003417968747
v -0.0044462618827819829 0.046400001525878906 0.059966003417968747
v -0.0065000000000000006 0.044099998474121098 0.05900833129882814
v -0.0065000000000000006 0.046400001525878906 0.05900833129882814
v -0.0083562393188476563 0.044099998474121098 0.05770857238769532
v -0.0083562393188476563 0.046400001525878906 0.05770857238769532
v -0.0099585781097412118 0.044099998474121098 0.056106231689453126
v -0.0099585781097412118 0.046400001525878906 0.056106231689453126
v -0.011258330345153809 0.044099998474121098 0.054250000000000007
v -0.011258330345153809 0.046400001525878906 0.054250000000000007
v -0.012216004371643066 0.044099998474121098 0.052196258544921867
v -0.012216004371643066 0.046400001525878906 0.052196258544921867
v -0.012802500724792481 0.044099998474121098 0.050007431030273428
v -0.012802500724792481 0.046400001525878906 0.050007431030273428
v -0.013000000000000001 0.044099998474121098 0.047750000000000001
v -0.013000000000000001 0.046400001525878906 0.047750000000000001
v -0.012802500724792481 0.044099998474121098 0.045492576599121093
v -0.012802500724792481 0.046400001525878906 0.045492576599121093
v -0.012216004371643066 0.044099998474121098 0.043303741455078121
v -0.012216004371643066 0.046400001525878906 0.043303741455078121
v -0.011258330345153809 0.044099998474121098 0.041249999999999995
v -0.011258330345153809 0.046400001525878906 0.041249999999999995
v -0.0099585781097412118 0.044099998474121098 0.039393760681152343
v -0.0099585781097412118 0.046400001525878906 0.039393760681152343
v -0.0083562393188476563 0.044099998474121098 0.037791419982910163
v -0.0083562393188476563 0.046400001525878906 0.037791419982910163
v -0.0065000000000000006 0.044099998474121098 0.036491668701171875
v -0.0065000000000000006 0.046400001525878906 0.036491668701171875
v -0.0044462618827819829 0.044099998474121098 0.035533996582031255
v -0.0044462618827819829 0.046400001525878906 0.035533996582031255
v -0.0022574262619018555 0.044099998474121098 0.034947502136230477
v -0.0022574262619018555 0.046400001525878906 0.034947502136230477
v 1.9023584790778259e-14 0.044099998474121098 0.034750000000000003
v 1.9090793182408029e-14 0.046400001525878906 0.034750000000000003
v 0.0022574262619018555 0.044099998474121098 0.034947502136230477
v 0.0022574262619018555 0.046400001525878906 0.034947502136230477
v 0.0044462618827819829 0.044099998474121098 0.035533996582031255
v 0.0044462618827819829 0.046400001525878906 0.035533996582031255
v 0.0065000000000000006 0.044099998474121098 0.036491668701171875
v 0.0065000000000000006 0.046400001525878906 0.036491668701171875
v 0.0083562393188476563 0.044099998474121098 0.037791419982910163
v 0.0083562393188476563 0.046400001525878906 0.037791419982910163
v 0.0099585781097412118 0.044099998474121098 0.039393760681152343
v 0.0099585781097412118 0.046400001525878906 0.039393760681152343
v 0.011258330345153809 0.046400001525878906 0.041249999999999995
v 0.011258330345153809 0.044099998474121098 0.041249999999999995
v 0.012216004371643066 0.044099998474121098 0.043303741455078121
v 0.012216004371643066 0.046400001525878906 0.043303741455078121
v 0.012802500724792481 0.044099998474121098 0.045492576599121093
v 0.012802500724792481 0.046400001525878906 0.045492576599121093
v 0.013000000000000001 0.044099998474121098 0.047750000000000001
v 0.013000000000000001 0.046400001525878906 0.047750000000000001
v 0.012802500724792481 0.044099998474121098 0.050007431030273428
v 0.012802500724792481 0.046400001525878906 0.050007431030273428
v 0.012216004371643066 0.044099998474121098 0.052196258544921867
v 0.012216004371643066 0.046400001525878906 0.052196258544921867
v 0.011258330345153809 0.044099998474121098 0.054250000000000007
v 0.011258330345153809 0.046400001525878906 0.054250000000000007
v 0.0099585781097412118 0.044099998474121098 0.056106231689453126
v 0.0099585781097412118 0.046400001525878906 0.056106231689453126
v 0.0083562393188476563 0.044099998474121098 0.05770857238769532
v 0.0083562393188476563 0.046400001525878906 0.05770857238769532
v 0.0065000000000000006 0.044099998474121098 0.05900833129882814
v 0.0065000000000000006 0.046400001525878906 0.05900833129882814
v 0.0044462618827819829 0.044099998474121098 0.059966003417968747
v 0.0044462618827819829 0.046400001525878906 0.059966003417968747
v 0.0022574262619018555 0.046400001525878906 0.060552505493164058
v 0.0022574262619018555 0.044099998474121098 0.060552505493164058
v -0.0022226967811584475 0.046599998474121093 0.060355545043945316
v -9.549305790557128e-16 0.046599998474121093 0.060550003051757825
v -0.0043778576850891111 0.046599998474121093 0.059778060913085948
v -0.0064000000953674321 0.046599998474121093 0.058835128784179694
v -0.0082276811599731447 0.046599998474121093 0.057555374145507807
v -0.0098053684234619149 0.046599998474121093 0.055977676391601575
v -0.011085124969482421 0.046599998474121093 0.05414999389648438
v -0.01202806568145752 0.046599998474121093 0.052127853393554677
v -0.012605539321899414 0.046599998474121093 0.04997270202636718
v -0.012800000190734864 0.046599998474121093 0.047750000000000001
v -0.012605539321899414 0.046599998474121093 0.04552730560302734
v -0.01202806568145752 0.046599998474121093 0.043372138977050778
v -0.011085124969482421 0.046599998474121093 0.041349998474121102
v -0.0098053684234619149 0.046599998474121093 0.039522315979003908
v -0.0082276811599731447 0.046599998474121093 0.037944633483886714
v -0.0064000000953674321 0.046599998474121093 0.036664871215820308
v -0.0043778576850891111 0.046599998474121093 0.035721931457519535
v -0.0022226967811584475 0.046599998474121093 0.035144462585449218
v 1.9087285571539603e-14 0.046599998474121093 0.03494999694824219
v 0.0022226967811584475 0.046599998474121093 0.035144462585449218
v 0.0043778576850891111 0.046599998474121093 0.035721931457519535
v 0.0064000000953674321 0.046599998474121093 0.036664871215820308
v 0.0082276811599731447 0.046599998474121093 0.037944633483886714
v 0.0098053684234619149 0.046599998474121093 0.039522315979003908
v 0.011085124969482421 0.046599998474121093 0.041349998474121102
v 0.01202806568145752 0.046599998474121093 0.043372138977050778
v 0.012605539321899414 0.046599998474121093 0.04552730560302734
v 0.012800000190734864 0.046599998474121093 0.047750000000000001
v 0.012605539321899414 0.046599998474121093 0.04997270202636718
v 0.01202806568145752 0.046599998474121093 0.052127853393554677
v 0.011085124969482421 0.046599998474121093 0.05414999389648438
v 0.0098053684234619149 0.046599998474121093 0.055977676391601575
v 0.0082276811599731447 0.046599998474121093 0.057555374145507807
v 0.0064000000953674321 0.046599998474121093 0.058835128784179694
v 0.0043778576850891111 0.046599998474121093 0.059778060913085948
v 0.0022226967811584475 0.046599998474121093 0.060355545043945316
v 0.0032139379978179932 0.046599998474121093 0.051580215454101561
v 0.0038302221298217773 0.046599998474121093 0.050963943481445326
v 0.0025000000000000001 0.046599998474121093 0.052080123901367195
v 0.0043301272392272947 0.046599998474121093 0.050250000000000003
v 0.001710100769996643 0.046599998474121093 0.052448455810546871
v 0.0046984629631042479 0.046599998474121093 0.049460098266601568
v 0.00086824089288711553 0.046599998474121093 0.052674041748046865
v 0.004924038887023926 0.046599998474121093 0.048618240356445311
v 1.904504332017609e-14 0.046599998474121093 0.052750000000000005
v 0.0050000000000000001 0.046599998474121093 0.047750000000000001
v -0.00086824089288711553 0.046599998474121093 0.052674041748046865
v 0.004924038887023926 0.046599998474121093 0.046881759643554691
v -0.001710100769996643 0.046599998474121093 0.052448455810546871
v 0.0046984629631042479 0.046599998474121093 0.046039901733398433
v -0.0025000000000000001 0.046599998474121093 0.052080123901367195
v 0.0043301272392272947 0.046599998474121093 0.045249999999999999
v -0.0032139379978179932 0.046599998474121093 0.051580215454101561
v 0.0038302221298217773 0.046599998474121093 0.044536064147949223
v -0.0038302221298217773 0.046599998474121093 0.050963943481445326
v 0.0032139379978179932 0.046599998474121093 0.043919776916503908
v -0.0043301272392272947 0.046599998474121093 0.050250000000000003
v 0.0025000000000000001 0.046599998474121093 0.04341987609863282
v -0.0046984629631042479 0.046599998474121093 0.049460098266601568
v 0.001710100769996643 0.046599998474121093 0.043051536560058598
v -0.004924038887023926 0.046599998474121093 0.048618240356445311
v 0.00086824089288711553 0.046599998474121093 0.042825958251953122
v -0.0050000000000000001 0.046599998474121093 0.047750000000000001
v -9.6437300419610635e-16 0.046599998474121093 0.042749999999999996
v -0.004924038887023926 0.046599998474121093 0.046881759643554691
v -0.00086824089288711553 0.046599998474121093 0.042825958251953122
v -0.0046984629631042479 0.046599998474121093 0.046039901733398433
v -0.001710100769996643 0.046599998474121093 0.043051536560058598
v -0.0043301272392272947 0.046599998474121093 0.045249999999999999
v -0.0025000000000000001 0.046599998474121093 0.04341987609863282
v -0.0038302221298217773 0.046599998474121093 0.044536064147949223
v -0.0032139379978179932 0.046599998474121093 0.043919776916503908
v -9.7297170320587156e-16 0.048700000762939455 0.052750000000000005
v -0.00086824089288711553 0.048700000762939455 0.052674041748046865
v -0.001710100769996643 0.048700000762939455 0.052448455810546871
v -0.0025000000000000001 0.048700000762939455 0.052080123901367195
v -0.0032139379978179932 0.048700000762939455 0.051580215454101561
v -0.0038302221298217773 0.048700000762939455 0.050963943481445326
v -0.0043301272392272947 0.048700000762939455 0.050250000000000003
v -0.0046984629631042479 0.048700000762939455 0.049460098266601568
v -0.004924038887023926 0.048700000762939455 0.048618240356445311
v -0.0050000000000000001 0.048700000762939455 0.047750000000000001
v -0.004924038887023926 0.048700000762939455 0.046881759643554691
v -0.0046984629631042479 0.048700000762939455 0.046039901733398433
v -0.0043301272392272947 0.048700000762939455 0.045249999999999999
v -0.0038302221298217773 0.048700000762939455 0.044536064147949223
v -0.0032139379978179932 0.048700000762939455 0.043919776916503908
v -0.0025000000000000001 0.048700000762939455 0.04341987609863282
v -0.001710100769996643 0.048700000762939455 0.043051536560058598
v -0.00086824089288711553 0.048700000762939455 0.042825958251953122
v 1.9041324073043599e-14 0.048700000762939455 0.042749999999999996
v 0.00086824089288711553 0.048700000762939455 0.042825958251953122
v 0.001710100769996643 0.048700000762939455 0.043051536560058598
v 0.0025000000000000001 0.048700000762939455 0.04341987609863282
v 0.0032139379978179932 0.048700000762939455 0.043919776916503908
v 0.0038302221298217773 0.048700000762939455 0.044536064147949223
v 0.0043301272392272947 0.048700000762939455 0.045249999999999999
v 0.0046984629631042479 0.048700000762939455 0.046039901733398433
v 0.004924038887023926 0.048700000762939455 0.046881759643554691
v 0.0050000000000000001 0.048700000762939455 0.047750000000000001
v 0.004924038887023926 0.048700000762939455 0.048618240356445311
v 0.0046984629631042479 0.048700000762939455 0.049460098266601568
v 0.0043301272392272947 0.048700000762939455 0.050250000000000003
v 0.0038302221298217773 0.048700000762939455 0.050963943481445326
v 0.0032139379978179932 0.048700000762939455 0.051580215454101561
v 0.0025000000000000001 0.048700000762939455 0.052080123901367195
v 0.001710100769996643 0.048700000762939455 0.052448455810546871
v 0.00086824089288711553 0.048700000762939455 0.052674041748046865
v -0.00083351123332977292 0.048900001525878908 0.052477081298828124
v -9.7394314835241867e-16 0.048900001525878908 0.052550003051757818
v -0.0016416966915130617 0.048900001525878908 0.052260528564453138
v -0.0024000000953674316 0.048900001525878908 0.051906921386718749
v -0.0030853805541992186 0.048900001525878908 0.051427017211914075
v -0.003677013397216797 0.048900001525878908 0.050835372924804681
v -0.0041569218635559083 0.048900001525878908 0.050149993896484377
v -0.0045105247497558591 0.048900001525878908 0.049391693115234378
v -0.0047270770072937009 0.048900001525878908 0.048583511352539063
v -0.0048000001907348632 0.048900001525878908 0.047750000000000001
v -0.0047270770072937009 0.048900001525878908 0.046916488647460938
v -0.0045105247497558591 0.048900001525878908 0.046108306884765624
v -0.0041569218635559083 0.048900001525878908 0.045349998474121092
v -0.003677013397216797 0.048900001525878908 0.044664619445800788
v -0.0030853805541992186 0.048900001525878908 0.044072990417480473
v -0.0024000000953674316 0.048900001525878908 0.043593078613281253
v -0.0016416966915130617 0.048900001525878908 0.043239479064941411
v -0.00083351123332977292 0.048900001525878908 0.043022926330566411
v 1.9041096824268244e-14 0.048900001525878908 0.042949996948242183
v 0.00083351123332977292 0.048900001525878908 0.043022926330566411
v 0.0016416966915130617 0.048900001525878908 0.043239479064941411
v 0.0024000000953674316 0.048900001525878908 0.043593078613281253
v 0.0030853805541992186 0.048900001525878908 0.044072990417480473
v 0.003677013397216797 0.048900001525878908 0.044664619445800788
v 0.0041569218635559083 0.048900001525878908 0.045349998474121092
v 0.0045105247497558591 0.048900001525878908 0.046108306884765624
v 0.0047270770072937009 0.048900001525878908 0.046916488647460938
v 0.0048000001907348632 0.048900001525878908 0.047750000000000001
v 0.0047270770072937009 0.048900001525878908 0.048583511352539063
v 0.0045105247497558591 0.048900001525878908 0.049391693115234378
v 0.0041569218635559083 0.048900001525878908 0.050149993896484377
v 0.003677013397216797 0.048900001525878908 0.050835372924804681
v 0.0030853805541992186 0.048900001525878908 0.051427017211914075
v 0.0024000000953674316 0.048900001525878908 0.051906921386718749
v 0.0016416966915130617 0.048900001525878908 0.052260528564453138
v 0.00083351123332977292 0.048900001525878908 0.052477081298828124
v 0.0017676659822463989 0.048900001525878908 0.049856628417968743
v 0.0021066222190856934 0.048900001525878908 0.049517669677734369
v 0.0013749999999999999 0.048900001525878908 0.050131576538085934
v 0.0023815698623657227 0.048900001525878908 0.049124999999999988
v 0.00094055539369583129 0.048900001525878908 0.050334152221679682
v 0.0025841546058654784 0.048900001525878908 0.048690551757812492
v 0.00047753247618675232 0.048900001525878908 0.050458221435546888
v 0.0027082214355468748 0.048900001525878908 0.048227531433105472
v 1.9010119867157726e-14 0.048900001525878908 0.050500000000000003
v 0.0027499999999999998 0.048900001525878908 0.047750000000000001
v -0.00047753247618675232 0.048900001525878908 0.050458221435546888
v 0.0027082214355468748 0.048900001525878908 0.047272468566894529
v -0.00094055539369583129 0.048900001525878908 0.050334152221679682
v 0.0025841546058654784 0.048900001525878908 0.04680944824218751
v -0.0013749999999999999 0.048900001525878908 0.050131576538085934
v 0.0023815698623657227 0.048900001525878908 0.046375000000000013
v -0.0017676659822463989 0.048900001525878908 0.049856628417968743
v 0.0021066222190856934 0.048900001525878908 0.045982330322265633
v -0.0021066222190856934 0.048900001525878908 0.049517669677734369
v 0.0017676659822463989 0.048900001525878908 0.045643379211425777
v -0.0023815698623657227 0.048900001525878908 0.049124999999999988
v 0.0013749999999999999 0.048900001525878908 0.0453684310913086
v -0.0025841546058654784 0.048900001525878908 0.048690551757812492
v 0.00094055539369583129 0.048900001525878908 0.04516584777832032
v -0.0027082214355468748 0.048900001525878908 0.048227531433105472
v 0.00047753247618675232 0.048900001525878908 0.045041778564453128
v -0.0027499999999999998 0.048900001525878908 0.047750000000000001
v -9.702201065123207e-16 0.048900001525878908 0.044999999999999998
v -0.0027082214355468748 0.048900001525878908 0.047272468566894529
v -0.00047753247618675232 0.048900001525878908 0.045041778564453128
v -0.0025841546058654784 0.048900001525878908 0.04680944824218751
v -0.00094055539369583129 0.048900001525878908 0.04516584777832032
v -0.0023815698623657227 0.048900001525878908 0.046375000000000013
v -0.0013749999999999999 0.048900001525878908 0.0453684310913086
v -0.0021066222190856934 0.048900001525878908 0.045982330322265633
v -0.0017676659822463989 0.048900001525878908 0.045643379211425777
v 0.0027082214355468748 0.051750000000000004 0.047272468566894529
v 0.0027499999999999998 0.051750000000000004 0.047750000000000001
v 0.0025841546058654784 0.051750000000000004 0.04680944824218751
v 0.0023815698623657227 0.051750000000000004 0.046375000000000013
v 0.0021066222190856934 0.051750000000000004 0.045982330322265633
v 0.0017676659822463989 0.051750000000000004 0.045643379211425777
v 0.0013749999999999999 0.051750000000000004 0.0453684310913086
v 0.00094055539369583129 0.051750000000000004 0.04516584777832032
v 0.00047753247618675232 0.051750000000000004 0.045041778564453128
v 5.6665822208146198e-15 0.051750000000000004 0.044999999999999998
v -0.00047753247618675232 0.051750000000000004 0.045041778564453128
v -0.00094055539369583129 0.051750000000000004 0.04516584777832032
v -0.0013749999999999999 0.051750000000000004 0.0453684310913086
v -0.0017676659822463989 0.051750000000000004 0.045643379211425777
v -0.0021066222190856934 0.051750000000000004 0.045982330322265633
v -0.0023815698623657227 0.051750000000000004 0.046375000000000013
v -0.0025841546058654784 0.051750000000000004 0.04680944824218751
v -0.0027082214355468748 0.051750000000000004 0.047272468566894529
v -0.0027499999999999998 0.051750000000000004 0.047750000000000001
v -0.0027082214355468748 0.051750000000000004 0.048227531433105472
v -0.0025841546058654784 0.051750000000000004 0.048690551757812492
v -0.0023815698623657227 0.051750000000000004 0.049124999999999988
v -0.0021066222190856934 0.051750000000000004 0.049517669677734369
v -0.0017676659822463989 0.051750000000000004 0.049856628417968743
v -0.0013749999999999999 0.051750000000000004 0.050131576538085934
v -0.00094055539369583129 0.051750000000000004 0.050334152221679682
v -0.00047753247618675232 0.051750000000000004 0.050458221435546888
v -9.9892316640648465e-16 0.051750000000000004 0.050500000000000003
v 0.00043019476532936098 0.051750000000000004 0.050466140747070301
v 0.00084979671239852905 0.051750000000000004 0.050365402221679692
v 0.001248473882675171 0.051750000000000004 0.050200271606445315
v 0.0016164094209671022 0.051750000000000004 0.049974792480468752
v 0.0019445436000823976 0.051750000000000004 0.049694549560546877
v 0.0022247967720031739 0.051750000000000004 0.049366409301757827
v 0.0024502680301666259 0.051750000000000004 0.048998474121093746
v 0.0026154053211212159 0.051750000000000004 0.04859980010986327
v 0.0027161428928375243 0.051750000000000004 0.048180191040039053
v -0.00045148527622222901 0.051900001525878904 0.050310501098632818
v -9.9989461155303157e-16 0.051900001525878904 0.050350006103515629
v -0.00088925236463546753 0.051900001525878904 0.050193206787109382
v -0.0012999999523162842 0.051900001525878904 0.050001663208007821
v -0.0016712478399276735 0.051900001525878904 0.04974171447753907
v -0.0019917155504226686 0.051900001525878904 0.049421249389648439
v -0.0022516660690307618 0.051900001525878904 0.049050003051757815
v -0.0024432008266448975 0.051900001525878904 0.04863925170898438
v -0.002560500144958496 0.051900001525878904 0.04820148468017578
v -0.0025999999046325685 0.051900001525878904 0.047750000000000001
v -0.002560500144958496 0.051900001525878904 0.047298515319824222
v -0.0024432008266448975 0.051900001525878904 0.046860748291015622
v -0.0022516660690307618 0.051900001525878904 0.046449996948242187
v -0.0019917155504226686 0.051900001525878904 0.046078750610351563
v -0.0016712478399276735 0.051900001525878904 0.045758285522460945
v -0.0012999999523162842 0.051900001525878904 0.045498336791992194
v -0.00088925236463546753 0.051900001525878904 0.045306800842285153
v -0.00045148527622222901 0.051900001525878904 0.045189498901367184
v 1.9006411028366089e-14 0.051900001525878904 0.045150001525878905
v 0.00045148527622222901 0.051900001525878904 0.045189498901367184
v 0.00088925236463546753 0.051900001525878904 0.045306800842285153
v 0.0012999999523162842 0.051900001525878904 0.045498336791992194
v 0.0016712478399276735 0.051900001525878904 0.045758285522460945
v 0.0019917155504226686 0.051900001525878904 0.046078750610351563
v 0.0022516660690307618 0.051900001525878904 0.046449996948242187
v 0.0024432008266448975 0.051900001525878904 0.046860748291015622
v 0.002560500144958496 0.051900001525878904 0.047298515319824222
v 0.0025999999046325685 0.051900001525878904 0.047750000000000001
v 0.002560500144958496 0.051900001525878904 0.04820148468017578
v 0.0024432008266448975 0.051900001525878904 0.04863925170898438
v 0.0022516660690307618 0.051900001525878904 0.049050003051757815
v 0.0019917155504226686 0.051900001525878904 0.049421249389648439
v 0.0016712478399276735 0.051900001525878904 0.04974171447753907
v 0.0012999999523162842 0.051900001525878904 0.050001663208007821
v 0.00088925236463546753 0.051900001525878904 0.050193206787109382
v 0.00045148527622222901 0.051900001525878904 0.050310501098632818
f 1 2 3
f 1 3 4
f 1 4 5
f 1 5 6
f 1 6 7
f 1 7 8
f 1 8 9
f 1 9 10
f 1 10 11
f 1 11 12
f 13 14 15
f 13 15 16
f 13 16 17
f 13 17 2
f 13 2 1
f 18 19 20
f 18 20 21
f 18 21 22
f 18 22 14
f 18 14 13
f 23 19 18
f 24 19 23
f 25 24 23
f 26 25 23
f 27 26 23
f 28 27 23
f 29 12 30
f 29 30 31
f 29 31 32
f 29 32 33
f 29 33 34
f 29 34 35
f 29 35 36
f 29 36 37
f 29 37 38
f 29 1 12
f 39 29 38
f 39 40 29
f 41 28 23
f 42 40 39
f 43 41 23
f 44 40 42
f 45 43 23
f 46 40 44
f 47 45 23
f 48 40 46
f 48 49 40
f 50 47 23
f 50 23 51
f 52 49 48
f 53 50 51
f 54 49 52
f 55 53 51
f 56 49 54
f 57 55 51
f 58 51 49
f 58 49 56
f 59 57 51
f 60 51 58
f 61 59 51
f 62 51 60
f 63 61 51
f 64 51 62
f 64 63 51
f 65 66 67
f 65 67 68
f 69 65 68
f 69 68 70
f 71 69 70
f 71 70 72
f 73 71 72
f 73 72 74
f 75 73 74
f 75 74 76
f 75 76 77
f 78 75 77
f 79 78 77
f 79 77 80
f 81 79 80
f 81 80 82
f 83 81 82
f 83 82 84
f 83 84 85
f 86 83 85
f 86 85 87
f 88 86 87
f 89 88 87
f 89 87 90
f 91 89 90
f 91 90 92
f 91 92 93
f 94 91 93
f 95 94 93
f 95 93 96
f 97 96 98
f 97 95 96
f 99 98 100
f 99 97 98
f 101 100 102
f 101 102 103
f 101 99 100
f 104 103 105
f 104 101 103
f 106 104 105
f 107 105 108
f 107 106 105
f 109 108 110
f 109 110 111
f 109 107 108
f 112 111 113
f 112 109 111
f 114 112 113
f 115 113 116
f 115 114 113
f 117 116 118
f 117 115 116
f 119 117 118
f 119 118 120
f 121 119 120
f 121 120 122
f 121 122 123
f 124 121 123
f 125 124 123
f 125 123 126
f 125 126 127
f 128 125 127
f 129 128 127
f 129 127 130
f 131 129 130
f 131 130 132
f 131 132 133
f 134 131 133
f 135 134 133
f 135 133 136
f 137 135 136
f 137 136 138
f 139 137 138
f 139 138 140
f 141 139 140
f 141 140 142
f 143 141 142
f 143 142 144
f 145 143 144
f 145 144 146
f 147 145 146
f 147 146 148
f 147 148 149
f 150 147 149
f 151 150 149
f 151 149 152
f 151 152 153
f 154 151 153
f 154 153 155
f 156 154 155
f 156 155 67
f 66 156 67
f 80 77 76
f 72 76 74
f 68 72 70
f 155 68 67
f 155 82 80
f 155 84 82
f 155 80 76
f 155 76 72
f 155 72 68
f 93 92 90
f 152 85 84
f 152 155 153
f 152 84 155
f 96 93 90
f 149 85 152
f 102 100 98
f 144 148 146
f 144 149 148
f 140 87 85
f 140 90 87
f 140 98 96
f 140 103 102
f 140 105 103
f 140 144 142
f 140 96 90
f 140 85 149
f 140 102 98
f 140 149 144
f 110 108 105
f 111 110 105
f 133 105 140
f 133 138 136
f 133 140 138
f 120 118 116
f 126 130 127
f 126 132 130
f 126 133 132
f 122 111 105
f 122 105 133
f 122 120 116
f 122 113 111
f 122 116 113
f 123 122 133
f 123 133 126
f 157 48 46
f 157 158 48
f 159 46 44
f 159 157 46
f 160 44 42
f 160 159 44
f 161 42 39
f 161 160 42
f 162 39 38
f 162 161 39
f 163 38 37
f 163 162 38
f 164 37 36
f 164 163 37
f 165 36 35
f 165 164 36
f 166 35 34
f 166 165 35
f 167 34 33
f 167 166 34
f 168 33 32
f 168 167 33
f 169 32 31
f 169 168 32
f 170 31 30
f 170 169 31
f 171 170 30
f 171 30 12
f 172 171 12
f 172 12 11
f 173 172 11
f 173 11 10
f 174 173 10
f 174 10 9
f 175 174 9
f 175 9 8
f 176 8 7
f 176 175 8
f 177 7 6
f 177 176 7
f 178 177 6
f 178 6 5
f 179 178 5
f 179 5 4
f 180 179 4
f 180 4 3
f 181 180 3
f 181 3 2
f 182 181 2
f 182 2 17
f 183 182 17
f 183 17 16
f 184 183 16
f 184 15 14
f 184 16 15
f 185 184 14
f 186 185 14
f 186 14 22
f 187 186 22
f 187 21 20
f 187 22 21
f 188 187 20
f 188 20 19
f 189 188 19
f 190 189 19
f 190 19 24
f 191 190 24
f 191 25 26
f 191 24 25
f 192 191 26
f 193 192 26
f 193 26 27
f 194 193 27
f 194 28 41
f 194 27 28
f 195 194 41
f 196 195 41
f 196 41 43
f 197 43 45
f 197 196 43
f 198 45 47
f 198 197 45
f 199 50 53
f 199 47 50
f 199 198 47
f 200 199 53
f 201 53 55
f 201 200 53
f 202 55 57
f 202 201 55
f 203 57 59
f 203 202 57
f 204 203 59
f 204 59 61
f 205 204 61
f 205 61 63
f 206 205 63
f 206 64 62
f 206 63 64
f 207 206 62
f 208 207 62
f 208 62 60
f 209 208 60
f 209 60 58
f 210 209 58
f 210 58 56
f 211 210 56
f 211 56 54
f 212 211 54
f 212 52 48
f 212 54 52
f 158 212 48
f 178 124 177
f 179 121 178
f 178 121 124
f 180 121 179
f 177 125 176
f 124 125 177
f 180 119 121
f 181 119 180
f 176 128 175
f 125 128 176
f 182 117 181
f 181 117 119
f 174 129 173
f 175 129 174
f 128 129 175
f 182 115 117
f 183 115 182
f 173 131 172
f 129 131 173
f 184 114 183
f 183 114 115
f 172 134 171
f 131 134 172
f 185 112 184
f 186 112 185
f 184 112 114
f 171 135 170
f 134 135 171
f 187 109 186
f 186 109 112
f 170 137 169
f 135 137 170
f 188 107 187
f 187 107 109
f 168 139 167
f 169 139 168
f 137 139 169
f 188 106 107
f 189 106 188
f 167 141 166
f 139 141 167
f 190 104 189
f 189 104 106
f 141 143 166
f 143 165 166
f 191 101 190
f 190 101 104
f 143 145 165
f 145 164 165
f 191 192 101
f 192 99 101
f 145 147 164
f 147 163 164
f 192 193 99
f 193 97 99
f 147 162 163
f 150 162 147
f 193 194 97
f 97 194 95
f 150 161 162
f 151 161 150
f 194 195 95
f 95 195 94
f 151 160 161
f 154 160 151
f 195 196 94
f 156 159 154
f 154 159 160
f 196 197 94
f 94 197 91
f 66 157 156
f 156 157 159
f 197 198 91
f 91 198 89
f 66 158 157
f 198 199 89
f 89 199 88
f 65 212 66
f 66 212 158
f 88 200 86
f 199 200 88
f 69 211 65
f 65 211 212
f 86 201 83
f 200 201 86
f 71 210 69
f 69 210 211
f 201 202 83
f 73 209 71
f 71 209 210
f 83 203 81
f 202 203 83
f 75 208 73
f 73 208 209
f 203 204 81
f 81 204 79
f 75 207 208
f 204 205 79
f 79 205 78
f 75 206 207
f 205 206 78
f 78 206 75
f 1 213 214
f 13 1 214
f 215 23 18
f 216 23 215
f 217 214 218
f 219 217 218
f 220 214 217
f 221 219 218
f 222 214 220
f 223 221 218
f 224 214 222
f 225 223 218
f 226 214 224
f 227 225 218
f 228 214 226
f 229 230 231
f 229 231 232
f 229 232 233
f 229 233 227
f 234 230 229
f 215 235 234
f 215 234 229
f 236 235 215
f 237 236 215
f 238 237 215
f 239 238 215
f 13 228 240
f 13 240 241
f 13 241 242
f 13 242 243
f 13 243 244
f 13 244 245
f 13 245 246
f 13 246 247
f 18 247 248
f 18 248 249
f 18 249 250
f 18 250 251
f 18 251 252
f 18 252 253
f 18 253 254
f 18 254 239
f 18 13 247
f 13 214 228
f 218 229 227
f 215 18 239
f 255 213 1
f 29 255 1
f 51 23 216
f 51 216 256
f 257 215 229
f 216 215 257
f 229 258 257
f 229 218 258
f 259 257 258
f 259 258 260
f 256 216 257
f 256 257 259
f 218 213 258
f 214 213 218
f 225 227 261
f 225 261 262
f 223 262 263
f 223 225 262
f 221 263 264
f 221 223 263
f 219 264 265
f 219 221 264
f 217 265 266
f 217 219 265
f 220 217 266
f 220 266 267
f 222 220 267
f 222 267 268
f 224 222 268
f 224 268 269
f 226 224 269
f 226 269 270
f 228 226 270
f 228 270 271
f 240 228 271
f 240 271 272
f 241 240 272
f 241 272 273
f 242 241 273
f 242 273 274
f 243 242 274
f 243 274 275
f 244 243 275
f 244 275 276
f 245 244 276
f 245 276 277
f 246 245 277
f 246 277 278
f 247 246 278
f 247 278 279
f 248 279 280
f 248 247 279
f 249 280 281
f 249 248 280
f 250 281 282
f 250 249 281
f 251 282 283
f 251 250 282
f 252 283 284
f 252 251 283
f 253 284 285
f 253 252 284
f 254 285 286
f 254 253 285
f 239 286 287
f 239 254 286
f 238 287 288
f 238 239 287
f 237 289 290
f 237 288 289
f 237 238 288
f 236 237 290
f 235 290 291
f 235 236 290
f 234 291 292
f 234 235 291
f 230 234 292
f 230 292 293
f 231 230 293
f 231 293 294
f 232 231 294
f 232 294 295
f 233 232 295
f 233 296 261
f 233 295 296
f 227 233 261
f 297 261 298
f 262 261 297
f 299 262 297
f 263 262 299
f 300 263 299
f 264 263 300
f 301 264 300
f 265 264 301
f 302 265 301
f 266 265 302
f 303 266 302
f 267 266 303
f 304 267 303
f 268 267 304
f 305 268 304
f 269 268 305
f 306 269 305
f 270 269 306
f 307 270 306
f 271 270 307
f 308 271 307
f 272 271 308
f 309 272 308
f 273 272 309
f 310 273 309
f 274 273 310
f 311 274 310
f 275 274 311
f 312 275 311
f 276 275 312
f 313 276 312
f 277 276 313
f 314 277 313
f 278 277 314
f 315 278 314
f 279 278 315
f 316 279 315
f 280 279 316
f 317 280 316
f 281 280 317
f 318 281 317
f 282 281 318
f 319 282 318
f 283 282 319
f 320 283 319
f 284 283 320
f 321 284 320
f 285 284 321
f 322 285 321
f 286 285 322
f 323 286 322
f 287 286 323
f 324 287 323
f 288 287 324
f 325 288 324
f 289 288 325
f 326 289 325
f 290 289 326
f 327 290 326
f 291 290 327
f 328 291 327
f 292 291 328
f 329 292 328
f 293 292 329
f 293 329 330
f 294 293 330
f 294 330 331
f 295 294 331
f 295 331 332
f 296 295 332
f 296 332 333
f 261 296 333
f 261 333 298
f 319 334 320
f 320 335 321
f 334 335 320
f 318 336 319
f 319 336 334
f 335 337 321
f 321 337 322
f 318 338 336
f 317 338 318
f 322 339 323
f 337 339 322
f 316 340 317
f 317 340 338
f 323 341 324
f 339 341 323
f 316 342 340
f 315 342 316
f 324 343 325
f 341 343 324
f 315 344 342
f 314 344 315
f 325 345 326
f 343 345 325
f 313 346 314
f 314 346 344
f 345 347 326
f 326 347 327
f 312 348 313
f 313 348 346
f 327 349 328
f 347 349 327
f 312 350 348
f 328 351 329
f 349 351 328
f 312 311 350
f 311 352 350
f 351 353 329
f 353 330 329
f 354 330 353
f 352 310 355
f 311 310 352
f 354 331 330
f 356 331 354
f 355 309 357
f 310 309 355
f 356 332 331
f 358 332 356
f 357 308 359
f 309 308 357
f 360 333 358
f 358 333 332
f 359 307 361
f 308 307 359
f 360 298 333
f 361 306 362
f 307 306 361
f 363 297 360
f 360 297 298
f 362 305 364
f 306 305 362
f 365 299 363
f 363 299 297
f 305 304 364
f 364 304 366
f 367 300 365
f 365 300 299
f 304 303 366
f 366 303 368
f 369 301 367
f 367 301 300
f 303 302 368
f 369 302 301
f 368 302 369
f 360 370 371
f 363 371 372
f 363 360 371
f 365 372 373
f 365 363 372
f 367 373 374
f 367 365 373
f 369 374 375
f 369 367 374
f 368 375 376
f 368 369 375
f 366 376 377
f 366 368 376
f 364 366 377
f 364 377 378
f 362 364 378
f 362 378 379
f 361 362 379
f 361 379 380
f 359 361 380
f 359 380 381
f 357 359 381
f 357 381 382
f 355 357 382
f 355 382 383
f 352 355 383
f 352 383 384
f 350 352 384
f 350 384 385
f 348 350 385
f 348 385 386
f 346 348 386
f 346 386 387
f 344 346 387
f 344 387 388
f 342 344 388
f 342 388 389
f 340 389 390
f 340 342 389
f 338 340 390
f 338 390 391
f 336 391 392
f 336 338 391
f 334 392 393
f 334 336 392
f 335 393 394
f 335 334 393
f 337 394 395
f 337 335 394
f 339 395 396
f 339 337 395
f 341 396 397
f 341 339 396
f 343 397 398
f 343 341 397
f 345 398 399
f 345 343 398
f 347 399 400
f 347 345 399
f 349 400 401
f 349 347 400
f 351 349 401
f 351 401 402
f 353 351 402
f 353 402 403
f 354 353 403
f 354 403 404
f 356 354 404
f 356 404 405
f 358 356 405
f 358 405 370
f 360 358 370
f 406 370 407
f 371 370 406
f 408 371 406
f 372 371 408
f 409 372 408
f 373 372 409
f 410 373 409
f 374 373 410
f 411 374 410
f 375 374 411
f 412 375 411
f 376 375 412
f 413 376 412
f 377 376 413
f 414 377 413
f 378 377 414
f 415 378 414
f 379 378 415
f 416 379 415
f 380 379 416
f 417 380 416
f 381 380 417
f 418 381 417
f 382 381 418
f 419 382 418
f 383 382 419
f 420 383 419
f 384 383 420
f 421 384 420
f 385 384 421
f 422 385 421
f 386 385 422
f 423 386 422
f 387 386 423
f 424 387 423
f 388 387 424
f 425 388 424
f 389 388 425
f 426 389 425
f 390 389 426
f 427 390 426
f 391 390 427
f 428 391 427
f 392 391 428
f 429 392 428
f 393 392 429
f 430 393 429
f 394 430 431
f 394 393 430
f 395 431 432
f 395 394 431
f 396 432 433
f 396 395 432
f 397 433 434
f 397 396 433
f 398 434 435
f 398 397 434
f 399 435 436
f 399 398 435
f 400 436 437
f 400 399 436
f 401 400 437
f 401 437 438
f 402 401 438
f 402 438 439
f 403 402 439
f 403 439 440
f 404 403 440
f 404 440 441
f 405 404 441
f 405 441 442
f 370 405 442
f 370 442 407
f 429 443 430
f 428 444 429
f 429 444 443
f 430 445 431
f 443 445 430
f 427 446 428
f 428 446 444
f 445 447 431
f 431 447 432
f 427 448 446
f 426 448 427
f 432 449 433
f 447 449 432
f 426 450 448
f 425 450 426
f 433 451 434
f 449 451 433
f 425 452 450
f 424 452 425
f 434 453 435
f 451 453 434
f 424 454 452
f 423 454 424
f 435 455 436
f 453 455 435
f 422 456 423
f 423 456 454
f 436 457 437
f 455 457 436
f 422 458 456
f 421 458 422
f 437 459 438
f 457 459 437
f 421 460 458
f 421 420 460
f 459 461 438
f 420 462 460
f 461 439 438
f 420 419 462
f 461 463 439
f 419 464 462
f 463 440 439
f 465 440 463
f 464 418 466
f 419 418 464
f 465 441 440
f 467 441 465
f 466 417 468
f 418 417 466
f 467 442 441
f 469 442 467
f 468 416 470
f 417 416 468
f 469 407 442
f 470 415 471
f 416 415 470
f 472 406 469
f 469 406 407
f 471 414 473
f 415 414 471
f 474 408 472
f 472 408 406
f 473 413 475
f 414 413 473
f 474 409 408
f 476 409 474
f 413 412 475
f 475 412 477
f 476 410 409
f 478 410 476
f 412 411 477
f 478 411 410
f 477 411 478
f 479 480 451
f 479 451 449
f 481 449 447
f 481 479 449
f 482 447 445
f 482 481 447
f 483 445 443
f 483 482 445
f 484 443 444
f 484 483 443
f 485 484 444
f 485 444 446
f 486 485 446
f 486 446 448
f 487 486 448
f 487 448 450
f 488 487 450
f 488 450 452
f 489 488 452
f 489 452 454
f 490 489 454
f 490 454 456
f 491 490 456
f 491 456 458
f 492 491 458
f 492 458 460
f 493 492 460
f 493 460 462
f 494 493 462
f 494 462 464
f 495 494 464
f 495 464 466
f 496 495 466
f 496 466 468
f 497 496 468
f 497 468 470
f 498 497 470
f 498 470 471
f 499 498 471
f 499 471 473
f 500 473 475
f 500 499 473
f 501 475 477
f 501 500 475
f 502 477 478
f 502 501 477
f 503 478 476
f 503 502 478
f 504 476 474
f 504 503 476
f 505 474 472
f 505 504 474
f 506 472 469
f 506 505 472
f 507 469 467
f 507 506 469
f 508 467 465
f 508 507 467
f 509 465 463
f 509 508 465
f 510 509 463
f 510 463 461
f 511 510 461
f 511 461 459
f 512 511 459
f 512 459 457
f 513 512 457
f 513 457 455
f 514 513 455
f 514 455 453
f 515 514 453
f 515 453 451
f 480 515 451
f 505 506 516
f 505 516 517
f 504 517 518
f 504 505 517
f 503 518 519
f 503 504 518
f 502 519 520
f 502 503 519
f 501 520 521
f 501 502 520
f 500 521 522
f 500 501 521
f 499 500 522
f 499 522 523
f 498 499 523
f 498 523 524
f 497 498 524
f 497 524 525
f 496 497 525
f 496 525 526
f 495 496 526
f 495 526 527
f 494 495 527
f 494 527 528
f 493 494 528
f 493 528 529
f 492 493 529
f 492 529 530
f 491 492 530
f 491 530 531
f 490 491 531
f 490 531 532
f 489 490 532
f 489 532 533
f 488 489 533
f 488 533 534
f 487 488 534
f 487 534 535
f 486 535 536
f 486 487 535
f 485 536 537
f 485 486 536
f 484 537 538
f 484 485 537
f 483 538 539
f 483 484 538
f 482 539 540
f 482 483 539
f 481 540 541
f 481 482 540
f 479 541 542
f 479 481 541
f 480 542 543
f 480 479 542
f 515 543 544
f 515 480 543
f 514 544 545
f 514 515 544
f 513 545 546
f 513 514 545
f 512 546 547
f 512 513 546
f 511 512 547
f 548 511 547
f 510 511 548
f 549 510 548
f 509 510 549
f 550 509 549
f 508 509 550
f 551 508 550
f 507 508 551
f 516 507 551
f 506 507 516
f 533 532 531
f 536 535 534
f 537 534 533
f 537 531 530
f 537 530 529
f 537 529 528
f 537 533 531
f 537 536 534
f 522 524 523
f 539 538 537
f 539 528 527
f 539 537 528
f 519 521 520
f 541 540 539
f 541 539 527
f 517 519 518
f 543 542 541
f 543 527 526
f 543 526 525
f 543 525 524
f 543 541 527
f 516 519 517
f 545 544 543
f 550 516 551
f 550 519 516
f 547 546 545
f 548 550 549
f 548 519 550
f 548 547 545
f 548 522 521
f 548 524 522
f 548 521 519
f 548 543 524
f 548 545 543
f 29 552 255
f 40 552 29
f 255 553 260
f 552 553 255
f 260 554 259
f 553 554 260
f 213 255 260
f 213 260 258
f 51 256 555
f 51 555 49
f 555 259 554
f 256 259 555
f 556 557 558
f 556 558 559
f 560 559 561
f 560 556 559
f 562 561 563
f 562 560 561
f 564 563 565
f 564 562 563
f 566 565 567
f 566 564 565
f 568 566 567
f 568 567 569
f 570 568 569
f 570 569 571
f 572 570 571
f 572 571 573
f 574 572 573
f 574 573 575
f 576 574 575
f 576 575 577
f 578 576 577
f 578 577 579
f 580 578 579
f 580 579 581
f 582 580 581
f 582 581 583
f 584 582 583
f 584 583 585
f 586 584 585
f 586 585 587
f 588 586 587
f 588 587 589
f 590 588 589
f 590 589 591
f 592 590 591
f 592 591 593
f 594 593 595
f 594 592 593
f 596 595 597
f 596 594 595
f 598 597 599
f 598 596 597
f 600 599 601
f 600 598 599
f 602 603 604
f 602 601 603
f 602 600 601
f 605 602 604
f 606 604 607
f 606 605 604
f 608 607 609
f 608 606 607
f 610 609 611
f 610 608 609
f 612 611 613
f 612 610 611
f 614 613 615
f 614 612 613
f 616 615 617
f 616 614 615
f 618 617 619
f 618 616 617
f 620 618 619
f 620 619 621
f 622 620 621
f 622 621 623
f 624 622 623
f 624 625 626
f 624 623 625
f 627 624 626
f 557 627 626
f 557 626 558
f 628 558 629
f 559 558 628
f 630 559 628
f 561 559 630
f 631 561 630
f 563 561 631
f 632 563 631
f 565 563 632
f 633 565 632
f 567 565 633
f 634 567 633
f 569 567 634
f 635 569 634
f 571 569 635
f 636 571 635
f 573 571 636
f 575 573 636
f 575 636 637
f 577 575 637
f 577 637 638
f 579 577 638
f 579 638 639
f 581 579 639
f 581 639 640
f 583 581 640
f 583 640 641
f 585 583 641
f 585 641 642
f 587 585 642
f 587 642 643
f 589 587 643
f 589 643 644
f 591 589 644
f 591 644 645
f 593 591 645
f 593 645 646
f 647 593 646
f 595 593 647
f 597 647 648
f 597 595 647
f 649 597 648
f 599 597 649
f 601 649 650
f 601 599 649
f 651 601 650
f 603 601 651
f 652 603 651
f 604 603 652
f 607 652 653
f 607 604 652
f 654 607 653
f 609 607 654
f 655 609 654
f 611 609 655
f 613 655 656
f 613 611 655
f 657 613 656
f 615 613 657
f 617 657 658
f 617 615 657
f 659 617 658
f 619 617 659
f 621 619 659
f 621 659 660
f 623 621 660
f 623 660 661
f 662 623 661
f 625 623 662
f 626 625 662
f 626 662 663
f 558 626 663
f 558 663 629
f 659 664 660
f 658 665 659
f 659 665 664
f 660 666 661
f 664 666 660
f 658 667 665
f 657 667 658
f 666 668 661
f 661 668 662
f 656 669 657
f 657 669 667
f 662 670 663
f 668 670 662
f 656 671 669
f 655 671 656
f 663 672 629
f 670 672 663
f 654 673 655
f 655 673 671
f 672 674 629
f 629 674 628
f 653 675 654
f 654 675 673
f 674 676 628
f 628 676 630
f 653 677 675
f 652 677 653
f 676 678 630
f 630 678 631
f 652 679 677
f 652 651 679
f 678 680 631
f 631 680 632
f 651 681 679
f 680 682 632
f 651 650 681
f 681 650 683
f 682 633 632
f 682 684 633
f 650 649 683
f 683 649 685
f 686 634 684
f 684 634 633
f 685 648 687
f 649 648 685
f 688 635 686
f 686 635 634
f 687 647 689
f 648 647 687
f 690 636 688
f 688 636 635
f 689 646 691
f 647 646 689
f 692 637 690
f 690 637 636
f 691 645 693
f 646 645 691
f 694 638 692
f 692 638 637
f 645 644 693
f 693 644 695
f 696 639 694
f 694 639 638
f 644 643 695
f 695 643 697
f 696 640 639
f 698 640 696
f 643 642 697
f 697 642 699
f 698 641 640
f 642 641 699
f 699 641 698
f 674 672 700
f 674 700 701
f 676 701 702
f 676 674 701
f 678 702 703
f 678 676 702
f 680 703 704
f 680 678 703
f 682 704 705
f 682 680 704
f 684 682 705
f 684 705 706
f 686 684 706
f 686 706 707
f 688 686 707
f 688 707 708
f 690 688 708
f 690 708 709
f 692 690 709
f 692 709 710
f 694 692 710
f 694 710 711
f 696 694 711
f 696 711 712
f 698 696 712
f 698 712 713
f 699 698 713
f 699 713 714
f 697 699 714
f 697 714 715
f 695 697 715
f 695 715 716
f 693 695 716
f 693 716 717
f 691 693 717
f 691 717 718
f 689 718 719
f 689 691 718
f 687 719 720
f 687 689 719
f 685 720 721
f 685 687 720
f 683 721 722
f 683 685 721
f 681 722 723
f 681 683 722
f 679 723 724
f 679 681 723
f 677 724 725
f 677 679 724
f 675 725 726
f 675 677 725
f 673 726 727
f 673 675 726
f 671 727 728
f 671 673 727
f 669 728 729
f 669 671 728
f 667 729 730
f 667 669 729
f 665 730 731
f 665 667 730
f 664 665 731
f 664 731 732
f 666 664 732
f 666 732 733
f 668 666 733
f 668 733 734
f 670 668 734
f 670 734 735
f 672 670 735
f 672 735 700
f 736 700 737
f 701 700 736
f 702 736 738
f 702 701 736
f 703 738 739
f 703 702 738
f 704 739 740
f 704 703 739
f 705 740 741
f 705 704 740
f 706 741 742
f 706 705 741
f 707 706 742
f 707 742 743
f 708 707 743
f 708 743 744
f 709 708 744
f 709 744 745
f 710 709 745
f 710 745 746
f 711 710 746
f 711 746 747
f 712 711 747
f 712 747 748
f 713 712 748
f 713 748 749
f 714 713 749
f 714 749 750
f 715 714 750
f 715 750 751
f 716 715 751
f 716 751 752
f 753 716 752
f 717 716 753
f 718 717 753
f 718 753 754
f 719 718 754
f 719 754 755
f 720 755 756
f 720 719 755
f 721 756 757
f 721 720 756
f 722 757 758
f 722 721 757
f 723 758 759
f 723 722 758
f 724 759 760
f 724 723 759
f 725 760 761
f 725 724 760
f 726 761 762
f 726 725 761
f 727 762 763
f 727 726 762
f 728 763 764
f 728 727 763
f 729 764 765
f 729 728 764
f 730 765 766
f 730 729 765
f 731 766 767
f 731 730 766
f 732 731 767
f 732 767 768
f 733 732 768
f 733 768 769
f 734 733 769
f 734 769 770
f 735 734 770
f 735 770 771
f 700 735 771
f 700 771 737
f 767 772 768
f 766 773 767
f 767 773 772
f 768 774 769
f 772 774 768
f 765 775 766
f 766 775 773
f 769 776 770
f 774 776 769
f 765 777 775
f 764 777 765
f 770 778 771
f 776 778 770
f 764 779 777
f 763 779 764
f 771 780 737
f 778 780 771
f 762 781 763
f 763 781 779
f 780 782 737
f 737 782 736
f 761 783 762
f 762 783 781
f 782 784 736
f 736 784 738
f 760 785 761
f 761 785 783
f 784 786 738
f 738 786 739
f 760 787 785
f 760 759 787
f 739 788 740
f 786 788 739
f 759 789 787
f 788 790 740
f 789 758 791
f 759 758 789
f 790 741 740
f 790 792 741
f 758 757 791
f 791 757 793
f 792 742 741
f 794 742 792
f 793 756 795
f 757 756 793
f 796 743 794
f 794 743 742
f 795 755 797
f 756 755 795
f 798 744 796
f 796 744 743
f 797 754 799
f 755 754 797
f 800 745 798
f 798 745 744
f 799 753 801
f 754 753 799
f 802 746 800
f 800 746 745
f 801 752 803
f 753 752 801
f 804 747 802
f 802 747 746
f 803 751 805
f 752 751 803
f 804 748 747
f 806 748 804
f 751 750 805
f 805 750 807
f 806 749 748
f 750 749 807
f 807 749 806
f 808 809 781
f 808 781 783
f 810 783 785
f 810 808 783
f 811 785 787
f 811 810 785
f 812 787 789
f 812 811 787
f 813 789 791
f 813 812 789
f 814 813 791
f 814 791 793
f 815 814 793
f 815 793 795
f 816 815 795
f 816 795 797
f 817 816 797
f 817 797 799
f 818 817 799
f 818 799 801
f 819 818 801
f 819 801 803
f 820 819 803
f 820 803 805
f 821 820 805
f 821 805 807
f 822 821 807
f 822 807 806
f 823 822 806
f 823 806 804
f 824 823 804
f 824 804 802
f 825 824 802
f 825 802 800
f 826 825 800
f 826 800 798
f 827 826 798
f 827 798 796
f 828 827 796
f 828 796 794
f 829 794 792
f 829 828 794
f 830 792 790
f 830 829 792
f 831 790 788
f 831 830 790
f 832 788 786
f 832 831 788
f 833 786 784
f 833 832 786
f 834 784 782
f 834 833 784
f 835 782 780
f 835 834 782
f 836 780 778
f 836 835 780
f 837 778 776
f 837 836 778
f 838 776 774
f 838 837 776
f 839 838 774
f 839 774 772
f 840 839 772
f 840 772 773
f 841 840 773
f 841 773 775
f 842 841 775
f 842 775 777
f 843 842 777
f 843 777 779
f 844 843 779
f 844 779 781
f 809 844 781
f 845 835 846
f 834 835 845
f 847 834 845
f 833 834 847
f 848 833 847
f 832 833 848
f 849 832 848
f 831 832 849
f 850 831 849
f 830 831 850
f 851 830 850
f 829 830 851
f 852 829 851
f 828 829 852
f 853 828 852
f 827 828 853
f 854 827 853
f 826 827 854
f 855 826 854
f 825 826 855
f 856 825 855
f 824 825 856
f 857 824 856
f 823 824 857
f 858 823 857
f 822 823 858
f 859 822 858
f 821 822 859
f 860 821 859
f 820 821 860
f 861 820 860
f 819 820 861
f 862 819 861
f 818 819 862
f 863 818 862
f 817 818 863
f 864 817 863
f 816 817 864
f 865 816 864
f 815 816 865
f 866 815 865
f 814 815 866
f 867 814 866
f 813 814 867
f 868 813 867
f 812 813 868
f 869 812 868
f 811 812 869
f 870 811 869
f 810 811 870
f 871 810 870
f 808 810 871
f 872 808 871
f 809 808 872
f 844 872 873
f 844 809 872
f 843 873 874
f 843 844 873
f 842 874 875
f 842 843 874
f 841 875 876
f 841 842 875
f 840 841 876
f 877 840 876
f 839 840 877
f 878 839 877
f 838 839 878
f 879 838 878
f 837 838 879
f 880 837 879
f 836 837 880
f 846 836 880
f 835 836 846
f 870 869 868
f 864 866 865
f 862 864 863
f 874 873 872
f 859 862 861
f 859 861 860
f 858 864 862
f 858 862 859
f 877 876 875
f 877 875 874
f 857 868 867
f 857 867 866
f 857 866 864
f 857 870 868
f 857 864 858
f 855 857 856
f 880 879 878
f 880 878 877
f 846 880 877
f 853 855 854
f 852 872 871
f 852 871 870
f 852 874 872
f 852 870 857
f 852 857 855
f 852 855 853
f 848 847 845
f 849 852 851
f 849 851 850
f 849 845 846
f 849 848 845
f 849 877 874
f 849 874 852
f 849 846 877
f 602 40 600
f 598 600 40
f 605 40 602
f 596 598 40
f 606 40 605
f 594 596 40
f 608 40 606
f 592 40 49
f 592 594 40
f 590 592 49
f 588 590 49
f 552 608 610
f 552 610 612
f 552 612 614
f 586 588 49
f 616 552 614
f 584 586 49
f 618 552 616
f 553 552 618
f 582 584 49
f 620 553 618
f 580 582 49
f 622 553 620
f 578 580 49
f 624 553 622
f 576 578 49
f 627 553 624
f 555 566 568
f 555 568 570
f 555 570 572
f 555 572 574
f 555 574 576
f 554 556 560
f 554 560 562
f 554 562 564
f 554 564 566
f 554 566 555
f 49 555 576
f 554 553 557
f 557 553 627
f 554 557 556
f 552 40 608
