# ALOHA supplier-CAD diagnostic collision candidate
# coordinate frame: owning URDF link; unit: metre
v 0.027029513549804686 0.047038776397705082 -0.014049999999999951
v 0.00044999999999999901 0.0465 -0.014049999999999951
v 0.00044999999999999901 0.050600002288818363 -0.014049999999999951
v 0.030199999999999998 0.050600002288818363 -0.014049999999999951
v 0.027029513549804686 0.0465 -0.014049999999999951
v 0.030199999999999998 0.047038776397705082 -0.014049999999999951
v -0.002518421936035152 0.0465 0.012065814208984393
v -0.0014874999999999958 0.0465 0.01293086547851563
v -0.0020408027648925742 0.0465 0.012543444824218764
v -0.00087532882690429664 0.0465 0.013216326904296916
v -0.0029058502197265579 0.0465 0.011512500000000037
v 0.004306723785400389 0.0465 0.0042962829589843765
v 0.027029513549804686 0.0465 0.013450000000000017
v 0.00044999999999999901 0.0465 0.013450000000000017
v 0.0050462677001953185 0.0465 0.0035567504882812462
v 0.0056461517333984343 0.0465 0.0027000000000000357
v 0.0034500000000000017 0.0465 0.0048961669921875339
v 0.0060881530761718802 0.0465 0.0017521240234375512
v 0.0025021202087402369 0.0465 0.0053381530761719143
v 0.0063588439941406269 0.0465 0.00074190063476564649
v 0.0014918891906738341 0.0465 0.0056088439941406332
v 0.0064500000000000043 0.0465 -0.00029999999999996696
v 0.00044999999999999901 0.0465 0.0057000000000000384
v -0.00022288589477538479 0.0465 0.01339113159179689
v -0.0034249999999999975 0.0465 0.0095750000000000002
v -0.0031913078308105428 0.0465 0.010900347900390628
v -0.0033661315917968698 0.0465 0.010247882080078152
v -0.0033661315917968698 0.0465 0.0089021179199219036
v -0.00087532882690429664 0.0465 0.0059337036132812715
v -0.00022288589477538479 0.0465 0.005758868408203166
v 0.0063588439941406269 0.0465 -0.0013418701171874492
v -0.0014874999999999958 0.0465 0.006219165039062502
v -0.0029058502197265579 0.0465 0.0076375000000000193
v -0.0031913078308105428 0.0465 0.0082496826171875037
v -0.0020408027648925742 0.0465 0.0066065856933594236
v -0.002518421936035152 0.0465 0.0070842163085937937
v 0.0060881530761718802 0.0465 -0.0023521240234374852
v 0.0056461517333984343 0.0465 -0.0032999999999999696
v 0.0050462677001953185 0.0465 -0.0041567199707031044
v 0.004306723785400389 0.0465 -0.0048962524414062347
v -0.0014874999999999958 0.0465 -0.0068191345214843602
v -0.00022288589477538479 0.0465 -0.0063588684082031
v -0.00087532882690429664 0.0465 -0.0065336730957030742
v 0.00044999999999999901 0.0465 -0.0062999999999999723
v 0.0014918891906738341 0.0465 -0.0062088439941406226
v 0.0025021202087402369 0.0465 -0.0059381530761718482
v 0.0034500000000000017 0.0465 -0.0054961364746093366
v -0.0031913078308105428 0.0465 -0.0088496520996093619
v -0.0033661315917968698 0.0465 -0.0095021179199218375
v -0.0029058502197265579 0.0465 -0.0082374999999999532
v -0.002518421936035152 0.0465 -0.0076841857910155964
v -0.0020408027648925742 0.0465 -0.0072065551757812263
v -0.0034249999999999975 0.0465 -0.01017499999999999
v -0.0033661315917968698 0.0465 -0.010847882080078086
v -0.00087532882690429664 0.0465 -0.013816296386718718
v -0.00022288589477538479 0.0465 -0.013991131591796879
v -0.0014874999999999958 0.0465 -0.013530834960937488
v -0.0029058502197265579 0.0465 -0.012112499999999971
v -0.0031913078308105428 0.0465 -0.011500317382812486
v -0.0020408027648925742 0.0465 -0.013143414306640622
v -0.002518421936035152 0.0465 -0.012665783691406252
v 0.027029513549804686 0.050600002288818363 0.013450000000000017
v 0.00044999999999999901 0.050600002288818363 0.013450000000000017
v 0.030199999999999998 0.050600002288818363 -0.014021679687499955
v 0.00044999999999999901 0.050600002288818363 -0.0062999999999999723
v -0.00022288589477538479 0.050600002288818363 -0.0063588684082031
v -0.00087532882690429664 0.050600002288818363 -0.0065336730957030742
v -0.0014874999999999958 0.050600002288818363 -0.0068191345214843602
v -0.0020408027648925742 0.050600002288818363 -0.0072065551757812263
v -0.002518421936035152 0.050600002288818363 -0.0076841857910155964
v -0.0029058502197265579 0.050600002288818363 -0.0082374999999999532
v -0.0031913078308105428 0.050600002288818363 -0.0088496520996093619
v -0.0033661315917968698 0.050600002288818363 -0.0095021179199218375
v -0.0034249999999999975 0.050600002288818363 -0.01017499999999999
v -0.0033661315917968698 0.050600002288818363 -0.010847882080078086
v -0.0031913078308105428 0.050600002288818363 -0.011500317382812486
v -0.0029058502197265579 0.050600002288818363 -0.012112499999999971
v -0.002518421936035152 0.050600002288818363 -0.012665783691406252
v -0.0020408027648925742 0.050600002288818363 -0.013143414306640622
v -0.0014874999999999958 0.050600002288818363 -0.013530834960937488
v -0.00087532882690429664 0.050600002288818363 -0.013816296386718718
v -0.00022288589477538479 0.050600002288818363 -0.013991131591796879
v 0.0014918891906738341 0.050600002288818363 -0.0062088439941406226
v 0.0025021202087402369 0.050600002288818363 -0.0059381530761718482
v 0.0034500000000000017 0.050600002288818363 -0.0054961364746093366
v 0.004306723785400389 0.050600002288818363 -0.0048962524414062347
v 0.0050462677001953185 0.050600002288818363 -0.0041567199707031044
v 0.0056461517333984343 0.050600002288818363 -0.0032999999999999696
v 0.0060881530761718802 0.050600002288818363 -0.0023521240234374852
v 0.0063588439941406269 0.050600002288818363 -0.0013418701171874492
v 0.0064500000000000043 0.050600002288818363 -0.00029999999999996696
v 0.0063588439941406269 0.050600002288818363 0.00074190063476564649
v 0.0060881530761718802 0.050600002288818363 0.0017521240234375512
v 0.0056461517333984343 0.050600002288818363 0.0027000000000000357
v 0.0050462677001953185 0.050600002288818363 0.0035567504882812462
v 0.004306723785400389 0.050600002288818363 0.0042962829589843765
v 0.0034500000000000017 0.050600002288818363 0.0048961669921875339
v 0.0025021202087402369 0.050600002288818363 0.0053381530761719143
v 0.0014918891906738341 0.050600002288818363 0.0056088439941406332
v 0.00044999999999999901 0.050600002288818363 0.0057000000000000384
v -0.00022288589477538479 0.050600002288818363 0.01339113159179689
v -0.00087532882690429664 0.050600002288818363 0.013216326904296916
v -0.0014874999999999958 0.050600002288818363 0.01293086547851563
v -0.0020408027648925742 0.050600002288818363 0.012543444824218764
v -0.002518421936035152 0.050600002288818363 0.012065814208984393
v -0.0029058502197265579 0.050600002288818363 0.011512500000000037
v -0.0031913078308105428 0.050600002288818363 0.010900347900390628
v -0.0033661315917968698 0.050600002288818363 0.010247882080078152
v -0.0034249999999999975 0.050600002288818363 0.0095750000000000002
v -0.0033661315917968698 0.050600002288818363 0.0089021179199219036
v -0.0031913078308105428 0.050600002288818363 0.0082496826171875037
v -0.0029058502197265579 0.050600002288818363 0.0076375000000000193
v -0.002518421936035152 0.050600002288818363 0.0070842163085937937
v -0.0020408027648925742 0.050600002288818363 0.0066065856933594236
v -0.0014874999999999958 0.050600002288818363 0.006219165039062502
v -0.00087532882690429664 0.050600002288818363 0.0059337036132812715
v -0.00022288589477538479 0.050600002288818363 0.005758868408203166
v 0.030456507873535162 0.0465 -0.014054272460937489
v 0.027029513549804686 0.0465 -0.014054272460937489
v 0.030456507873535162 0.050600002288818363 -0.014021679687499955
v 0.030456507873535162 0.050600002288818363 0.013466510009765675
v 0.030456507873535162 0.050600002288818363 0.015450000000000019
v 0.032876437377929689 0.050600002288818363 0.015450000000000019
v 0.032876437377929689 0.050600002288818363 0.010000018310546921
v 0.027029513549804686 0.050600002288818363 0.013466510009765675
v 0.030456507873535162 0.050600002288818363 0.010000018310546921
v 0.030456507873535162 0.050600002288818363 -0.010399975585937471
v 0.032876437377929689 0.050600002288818363 -0.010399975585937471
v 0.032876437377929689 0.050600002288818363 -0.016049999999999953
v 0.030456507873535162 0.050600002288818363 -0.016049999999999953
v 0.027029513549804686 -0.0465 0.013450000000000017
v 0.00044999999999999901 -0.0465 0.013450000000000017
v 0.00044999999999999901 -0.050599998474121097 0.013450000000000017
v 0.027029513549804686 -0.050599998474121097 0.013450000000000017
v -0.00022288589477538479 -0.0465 0.005758868408203166
v 0.00044999999999999901 -0.0465 0.0057000000000000384
v 0.00044999999999999901 -0.050599998474121097 0.0057000000000000384
v -0.00022288589477538479 -0.050599998474121097 0.005758868408203166
v -0.00087532882690429664 -0.0465 0.0059337036132812715
v -0.00087532882690429664 -0.050599998474121097 0.0059337036132812715
v -0.0014874999999999958 -0.0465 0.006219165039062502
v -0.0014874999999999958 -0.050599998474121097 0.006219165039062502
v -0.0020408027648925742 -0.0465 0.0066065856933594236
v -0.0020408027648925742 -0.050599998474121097 0.0066065856933594236
v -0.002518421936035152 -0.0465 0.0070842163085937937
v -0.002518421936035152 -0.050599998474121097 0.0070842163085937937
v -0.0029058502197265579 -0.0465 0.0076375000000000193
v -0.0029058502197265579 -0.050599998474121097 0.0076375000000000193
v -0.0031913078308105428 -0.050599998474121097 0.0082496826171875037
v -0.0031913078308105428 -0.0465 0.0082496826171875037
v -0.0033661315917968698 -0.0465 0.0089021179199219036
v -0.0033661315917968698 -0.050599998474121097 0.0089021179199219036
v -0.0034249999999999975 -0.0465 0.0095750000000000002
v -0.0034249999999999975 -0.050599998474121097 0.0095750000000000002
v -0.0033661315917968698 -0.050599998474121097 0.010247882080078152
v -0.0033661315917968698 -0.0465 0.010247882080078152
v -0.0031913078308105428 -0.0465 0.010900347900390628
v -0.0031913078308105428 -0.050599998474121097 0.010900347900390628
v -0.0029058502197265579 -0.050599998474121097 0.011512500000000037
v -0.0029058502197265579 -0.0465 0.011512500000000037
v -0.002518421936035152 -0.0465 0.012065814208984393
v -0.002518421936035152 -0.050599998474121097 0.012065814208984393
v -0.0020408027648925742 -0.0465 0.012543444824218764
v -0.0020408027648925742 -0.050599998474121097 0.012543444824218764
v -0.0014874999999999958 -0.0465 0.01293086547851563
v -0.0014874999999999958 -0.050599998474121097 0.01293086547851563
v -0.00087532882690429664 -0.0465 0.013216326904296916
v -0.00087532882690429664 -0.050599998474121097 0.013216326904296916
v -0.00022288589477538479 -0.0465 0.01339113159179689
v -0.00022288589477538479 -0.050599998474121097 0.01339113159179689
v 0.0014918891906738341 -0.0465 0.0056088439941406332
v 0.0014918891906738341 -0.050599998474121097 0.0056088439941406332
v 0.0025021202087402369 -0.0465 0.0053381530761719143
v 0.0025021202087402369 -0.050599998474121097 0.0053381530761719143
v 0.0034500000000000017 -0.0465 0.0048961669921875339
v 0.0034500000000000017 -0.050599998474121097 0.0048961669921875339
v 0.004306723785400389 -0.0465 0.0042962829589843765
v 0.004306723785400389 -0.050599998474121097 0.0042962829589843765
v 0.0050462677001953185 -0.0465 0.0035567504882812462
v 0.0050462677001953185 -0.050599998474121097 0.0035567504882812462
v 0.0056461517333984343 -0.0465 0.0027000000000000357
v 0.0056461517333984343 -0.050599998474121097 0.0027000000000000357
v 0.0060881530761718802 -0.0465 0.0017521240234375512
v 0.0060881530761718802 -0.050599998474121097 0.0017521240234375512
v 0.0063588439941406269 -0.0465 0.00074190063476564649
v 0.0063588439941406269 -0.050599998474121097 0.00074190063476564649
v 0.0064500000000000043 -0.0465 -0.00029999999999996696
v 0.0064500000000000043 -0.050599998474121097 -0.00029999999999996696
v 0.0063588439941406269 -0.0465 -0.0013418701171874492
v 0.0063588439941406269 -0.050599998474121097 -0.0013418701171874492
v 0.0060881530761718802 -0.0465 -0.0023521240234374852
v 0.0060881530761718802 -0.050599998474121097 -0.0023521240234374852
v 0.0056461517333984343 -0.0465 -0.0032999999999999696
v 0.0056461517333984343 -0.050599998474121097 -0.0032999999999999696
v 0.0050462677001953185 -0.0465 -0.0041567199707031044
v 0.0050462677001953185 -0.050599998474121097 -0.0041567199707031044
v 0.004306723785400389 -0.0465 -0.0048962524414062347
v 0.004306723785400389 -0.050599998474121097 -0.0048962524414062347
v 0.0034500000000000017 -0.0465 -0.0054961364746093366
v 0.0034500000000000017 -0.050599998474121097 -0.0054961364746093366
v 0.0025021202087402369 -0.0465 -0.0059381530761718482
v 0.0025021202087402369 -0.050599998474121097 -0.0059381530761718482
v 0.0014918891906738341 -0.0465 -0.0062088439941406226
v 0.0014918891906738341 -0.050599998474121097 -0.0062088439941406226
v 0.00044999999999999901 -0.0465 -0.0062999999999999723
v 0.00044999999999999901 -0.050599998474121097 -0.0062999999999999723
v -0.00022288589477538479 -0.0465 -0.013991131591796879
v 0.00044999999999999901 -0.0465 -0.014049999999999951
v 0.00044999999999999901 -0.050599998474121097 -0.014049999999999951
v -0.00022288589477538479 -0.050599998474121097 -0.013991131591796879
v -0.00087532882690429664 -0.0465 -0.013816296386718718
v -0.00087532882690429664 -0.050599998474121097 -0.013816296386718718
v -0.0014874999999999958 -0.0465 -0.013530834960937488
v -0.0014874999999999958 -0.050599998474121097 -0.013530834960937488
v -0.0020408027648925742 -0.050599998474121097 -0.013143414306640622
v -0.0020408027648925742 -0.0465 -0.013143414306640622
v -0.002518421936035152 -0.0465 -0.012665783691406252
v -0.002518421936035152 -0.050599998474121097 -0.012665783691406252
v -0.0029058502197265579 -0.0465 -0.012112499999999971
v -0.0029058502197265579 -0.050599998474121097 -0.012112499999999971
v -0.0031913078308105428 -0.050599998474121097 -0.011500317382812486
v -0.0031913078308105428 -0.0465 -0.011500317382812486
v -0.0033661315917968698 -0.0465 -0.010847882080078086
v -0.0033661315917968698 -0.050599998474121097 -0.010847882080078086
v -0.0034249999999999975 -0.0465 -0.01017499999999999
v -0.0034249999999999975 -0.050599998474121097 -0.01017499999999999
v -0.0033661315917968698 -0.050599998474121097 -0.0095021179199218375
v -0.0033661315917968698 -0.0465 -0.0095021179199218375
v -0.0031913078308105428 -0.0465 -0.0088496520996093619
v -0.0031913078308105428 -0.050599998474121097 -0.0088496520996093619
v -0.0029058502197265579 -0.0465 -0.0082374999999999532
v -0.0029058502197265579 -0.050599998474121097 -0.0082374999999999532
v -0.002518421936035152 -0.050599998474121097 -0.0076841857910155964
v -0.002518421936035152 -0.0465 -0.0076841857910155964
v -0.0020408027648925742 -0.0465 -0.0072065551757812263
v -0.0020408027648925742 -0.050599998474121097 -0.0072065551757812263
v -0.0014874999999999958 -0.0465 -0.0068191345214843602
v -0.0014874999999999958 -0.050599998474121097 -0.0068191345214843602
v -0.00087532882690429664 -0.0465 -0.0065336730957030742
v -0.00087532882690429664 -0.050599998474121097 -0.0065336730957030742
v -0.00022288589477538479 -0.0465 -0.0063588684082031
v -0.00022288589477538479 -0.050599998474121097 -0.0063588684082031
v 0.027029513549804686 -0.0465 -0.014049999999999951
v 0.027029513549804686 -0.050599998474121097 -0.014054028320312495
v 0.027029513549804686 -0.050599998474121097 -0.014049999999999951
v 0.027029513549804686 -0.048455833435058597 -0.014049999999999951
v 0.027029513549804686 0.0465 0.013454302978515631
v 0.027029513549804686 0.020555650711059571 0.015450000000000019
v 0.027029513549804686 0.020555650711059571 -0.016049999999999953
v 0.027029513549804686 -0.020555650711059571 0.015450000000000019
v 0.027029513549804686 -0.0465 0.013454302978515631
v 0.027029513549804686 -0.020555650711059571 -0.016049999999999953
v 0.027029513549804686 -0.050599998474121097 0.013457324218750011
v 0.027029513549804686 -0.046555648803710936 -0.014049999999999951
v 0.030456507873535162 -0.024500000000000001 -0.0090999877929687223
v 0.030456507873535162 -0.020099998474121094 -0.010399975585937471
v 0.030456507873535162 -0.020099998474121094 -0.0090999877929687223
v 0.030456507873535162 -0.024500000000000001 0.0085000183105469196
v 0.030456507873535162 -0.020099998474121094 0.0085000183105469196
v 0.030456507873535162 -0.020099998474121094 0.010000018310546921
v 0.030456507873535162 -0.050599998474121097 -0.010399975585937471
v 0.030456507873535162 -0.050599998474121097 0.010000018310546921
v 0.16045651550292969 0.020100000381469727 0.010000018310546921
v 0.16045651550292969 0.019600000381469727 0.012800006103515671
v 0.16045651550292969 0.022100000381469725 0.010300006103515669
v 0.16045651550292969 0.0077849268913269048 0.012800006103515671
v 0.16045651550292969 0.00074840599298477172 0.015169390869140653
v 0.16045651550292969 0.0032123637199401858 0.014765673828125048
v 0.16045651550292969 0.0055786275863647459 0.013968890380859411
v 0.16045651550292969 -0.0042123622894287109 0.014765673828125048
v 0.16045651550292969 -0.001748404622077942 0.015169390869140653
v 0.16045651550292969 0.020100000381469727 -0.010399975585937471
v 0.16045651550292969 0.022100000381469725 -0.010899975585937471
v 0.16045651550292969 -0.0065786261558532719 0.013968890380859411
v 0.16045651550292969 0.019600000381469727 -0.013399975585937474
v 0.16045651550292969 -0.0087849254608154299 0.012800006103515671
v 0.16045651550292969 0.0077849268913269048 -0.013399975585937474
v 0.16045651550292969 -0.020099998474121094 0.010000018310546921
v 0.16045651550292969 -0.020599998474121094 0.012800006103515671
v 0.16045651550292969 0.003213787078857422 -0.015374371337890602
v 0.16045651550292969 0.0055800356864929204 -0.014573986816406204
v 0.16045651550292969 -0.023099998474121093 0.010300006103515669
v 0.16045651550292969 -0.0017489769458770752 -0.015779949951171879
v 0.16045651550292969 0.00074897831678390507 -0.015779949951171879
v 0.16045651550292969 -0.0042137856483459475 -0.015374371337890602
v 0.16045651550292969 -0.0065800342559814455 -0.014573986816406204
v 0.16045651550292969 -0.0087849254608154299 -0.013399975585937474
v 0.16045651550292969 -0.020099998474121094 -0.010399975585937471
v 0.16045651550292969 -0.020599998474121094 -0.013399975585937474
v 0.16045651550292969 -0.023099998474121093 -0.010899975585937471
v 0.19382100219726561 0.0077849268913269048 -0.013399975585937474
v 0.19382100219726561 0.0055800356864929204 -0.014573986816406204
v 0.19382100219726561 0.003213787078857422 -0.015374371337890602
v 0.19382100219726561 0.00074897831678390507 -0.015779949951171879
v 0.19382100219726561 -0.0017489769458770752 -0.015779949951171879
v 0.19382100219726561 -0.0042137856483459475 -0.015374371337890602
v 0.19382100219726561 -0.0065800342559814455 -0.014573986816406204
v 0.19382100219726561 -0.0087849254608154299 -0.013399975585937474
v 0.19382100219726561 0.019600000381469727 -0.013399975585937474
v 0.19382100219726561 0.014444376945495606 -0.013399975585937474
v 0.19382100219726561 0.022100000381469725 -0.010899975585937471
v 0.19382100219726561 0.022100000381469725 0.010300006103515669
v 0.19382100219726561 0.019600000381469727 0.012800006103515671
v 0.064456507873535157 0.020100000381469727 0.010000018310546921
v 0.064456507873535157 -0.020099998474121094 0.010000018310546921
v 0.064456507873535157 0.020100000381469727 -0.010399975585937471
v 0.064206507873535157 0.020100000381469727 -0.010399975585937471
v 0.064206507873535157 0.020100000381469727 0.010000018310546921
v 0.064456507873535157 -0.020099998474121094 -0.010399975585937471
v 0.064206507873535157 -0.020099998474121094 0.010000018310546921
v 0.064206507873535157 -0.020099998474121094 -0.010399975585937471
v 0.064206507873535157 -0.024500000000000001 -0.010399975585937471
v 0.064456507873535157 -0.024500000000000001 -0.010399975585937471
v 0.031208178710937499 -0.024500000000000001 -0.010399975585937471
v 0.031208178710937499 -0.020099998474121094 -0.010399975585937471
v 0.032876437377929689 -0.050599998474121097 -0.010399975585937471
v 0.064206507873535157 -0.024500000000000001 0.010000018310546921
v 0.031956507873535163 -0.024500000000000001 0.010000018310546921
v 0.031956507873535163 -0.020099998474121094 0.010000018310546921
v 0.032876437377929689 -0.050599998474121097 0.010000018310546921
v 0.064456507873535157 -0.024500000000000001 0.010000018310546921
v 0.031443476867675783 -0.020099998474121094 0.0099095336914062915
v 0.031696040344238278 -0.020099998474121094 0.0099772216796875091
v 0.031206507873535162 -0.020099998474121094 0.0097990600585937671
v 0.030992327880859379 -0.020099998474121094 0.0096490661621094209
v 0.030807444763183596 -0.020099998474121094 0.0094641906738281434
v 0.030657473754882821 -0.020099998474121094 0.0092500183105468925
v 0.030546969604492193 -0.020099998474121094 0.0090130493164062853
v 0.030479296874999999 -0.020099998474121094 0.0087604858398437901
v 0.030456507873535162 0.020100000381469727 0.010000018310546921
v 0.031275523376464852 0.020100000381469727 0.0098365051269531656
v 0.031074832153320318 0.020100000381469727 0.0097135498046875268
v 0.031492984008789061 0.020100000381469727 0.0099265930175781447
v 0.031721858215332029 0.020100000381469727 0.0099815551757812537
v 0.030895854187011719 0.020100000381469727 0.0095606567382812702
v 0.030742984008789061 0.020100000381469727 0.009381701660156283
v 0.030619998168945319 0.020100000381469727 0.0091809875488281234
v 0.030456507873535162 0.020100000381469727 0.0085000183105469196
v 0.03047497863769532 0.020100000381469727 0.0087346679687499984
v 0.030529925537109377 0.020100000381469727 0.0089635498046874984
v 0.031956507873535163 0.020100000381469727 0.010000018310546921
v 0.030456507873535162 0.020100000381469727 -0.010399975585937471
v 0.031022570800781253 0.020100000381469727 -0.010273754882812458
v 0.031208178710937499 0.020100000381469727 -0.010399975585937471
v 0.03085786743164063 0.020100000381469727 -0.010121258544921852
v 0.03071777648925781 0.020100000381469727 -0.0099458740234374954
v 0.030605418395996099 0.020100000381469727 -0.0097515686035156146
v 0.030456507873535162 0.020100000381469727 -0.0090999877929687223
v 0.030473307800292969 0.020100000381469727 -0.0093238342285156262
v 0.030523310852050782 0.020100000381469727 -0.0095426452636718784
v 0.031022570800781253 -0.020099998474121094 -0.010273754882812458
v 0.03085786743164063 -0.020099998474121094 -0.010121258544921852
v 0.03071777648925781 -0.020099998474121094 -0.0099458740234374954
v 0.030605418395996099 -0.020099998474121094 -0.0097515686035156146
v 0.030473307800292969 -0.020099998474121094 -0.0093238342285156262
v 0.030523310852050782 -0.020099998474121094 -0.0095426452636718784
v 0.030456507873535162 0.024500000000000001 -0.0090999877929687223
v 0.030456507873535162 0.024500000000000001 0.0085000183105469196
v 0.031022570800781253 -0.024500000000000001 -0.010273754882812458
v 0.03085786743164063 -0.024500000000000001 -0.010121258544921852
v 0.03071777648925781 -0.024500000000000001 -0.0099458740234374954
v 0.030605418395996099 -0.024500000000000001 -0.0097515686035156146
v 0.030523310852050782 -0.024500000000000001 -0.0095426452636718784
v 0.030473307800292969 -0.024500000000000001 -0.0093238342285156262
v 0.064206507873535157 0.024500000000000001 0.010000018310546921
v 0.064206507873535157 0.024500000000000001 -0.010399975585937471
v 0.030479296874999999 -0.024500000000000001 0.0087604858398437901
v 0.030546969604492193 -0.024500000000000001 0.0090130493164062853
v 0.030657473754882821 -0.024500000000000001 0.0092500183105468925
v 0.030807444763183596 -0.024500000000000001 0.0094641906738281434
v 0.030992327880859379 -0.024500000000000001 0.0096490661621094209
v 0.031206507873535162 -0.024500000000000001 0.0097990600585937671
v 0.031443476867675783 -0.024500000000000001 0.0099095336914062915
v 0.031696040344238278 -0.024500000000000001 0.0099772216796875091
v 0.031956507873535163 0.024500000000000001 0.010000018310546921
v 0.064456507873535157 0.024500000000000001 0.010000018310546921
v 0.030473307800292969 0.024500000000000001 -0.0093238342285156262
v 0.030523310852050782 0.024500000000000001 -0.0095426452636718784
v 0.030605418395996099 0.024500000000000001 -0.0097515686035156146
v 0.03071777648925781 0.024500000000000001 -0.0099458740234374954
v 0.03085786743164063 0.024500000000000001 -0.010121258544921852
v 0.031022570800781253 0.024500000000000001 -0.010273754882812458
v 0.031208178710937499 0.024500000000000001 -0.010399975585937471
v 0.031696040344238278 0.024500000000000001 0.0099772216796875091
v 0.031443476867675783 0.024500000000000001 0.0099095336914062915
v 0.031206507873535162 0.024500000000000001 0.0097990600585937671
v 0.030992327880859379 0.024500000000000001 0.0096490661621094209
v 0.030807444763183596 0.024500000000000001 0.0094641906738281434
v 0.030657473754882821 0.024500000000000001 0.0092500183105468925
v 0.030546969604492193 0.024500000000000001 0.0090130493164062853
v 0.030479296874999999 0.024500000000000001 0.0087604858398437901
v 0.030456507873535162 0.020555650711059571 -0.016049999999999953
v 0.030456507873535162 -0.050599998474121097 -0.016049999999999953
v 0.030456507873535162 -0.048455833435058597 -0.014049999999999951
v 0.030456507873535162 -0.046555648803710936 -0.014049999999999951
v 0.030456507873535162 -0.020555650711059571 -0.016049999999999953
v 0.030456507873535162 -0.050599998474121097 -0.014054028320312495
v 0.064456507873535157 -0.024500000000000001 -0.016049999999999953
v 0.032876437377929689 -0.050599998474121097 -0.016049999999999953
v 0.064456507873535157 0.024500000000000001 -0.010399975585937471
v 0.064456507873535157 0.024500000000000001 -0.016049999999999953
v 0.030456507873535162 -0.0465 0.013454302978515631
v 0.030456507873535162 -0.050599998474121097 0.013457324218750011
v 0.030456507873535162 -0.050599998474121097 0.015450000000000019
v 0.030456507873535162 -0.020555650711059571 0.015450000000000019
v 0.032876437377929689 -0.050599998474121097 0.015450000000000019
v 0.064456507873535157 -0.024500000000000001 0.015450000000000019
v 0.030456507873535162 0.0465 0.013454302978515631
v 0.030456507873535162 0.020555650711059571 0.015450000000000019
v 0.064456507873535157 0.024500000000000001 0.015450000000000019
v 0.19382100219726561 0.0077849268913269048 0.012800006103515671
v 0.19382100219726561 0.014444376945495606 0.012800006103515671
v 0.19382100219726561 -0.0087849254608154299 0.012800006103515671
v 0.19382100219726561 -0.0065786261558532719 0.013968890380859411
v 0.19382100219726561 -0.0042123622894287109 0.014765673828125048
v 0.19382100219726561 -0.001748404622077942 0.015169390869140653
v 0.19382100219726561 0.00074840599298477172 0.015169390869140653
v 0.19382100219726561 0.0032123637199401858 0.014765673828125048
v 0.19382100219726561 0.0055786275863647459 0.013968890380859411
v 0.19382100219726561 -0.020599998474121094 0.012800006103515671
v 0.19382100219726561 -0.014444375038146972 0.012800006103515671
v 0.19382100219726561 -0.023099998474121093 0.010300006103515669
v 0.19382100219726561 -0.023099998474121093 -0.010899975585937471
v 0.19382100219726561 -0.020599998474121094 -0.013399975585937474
v 0.19382100219726561 -0.014444375038146972 -0.013399975585937474
v 0.19382100219726561 -0.016386125564575197 -0.010870922851562492
v 0.19382100219726561 -0.0178897705078125 -0.008059246826171873
v 0.19382100219726561 -0.018915105819702148 -0.0050401123046874829
v 0.19382100219726561 -0.019434720993041991 -0.0018942382812499603
v 0.19382100219726561 -0.019434720993041991 0.0012942687988281576
v 0.19382100219726561 -0.018915105819702148 0.0044401428222656247
v 0.19382100219726561 -0.0178897705078125 0.0074592773437500148
v 0.19382100219726561 -0.016386125564575197 0.010270953369140634
v 0.19382100219726561 0.016386127471923827 -0.010870922851562492
v 0.19382100219726561 0.0178897705078125 -0.008059246826171873
v 0.19382100219726561 0.018915107727050781 -0.0050401123046874829
v 0.19382100219726561 0.019434720993041991 -0.0018942382812499603
v 0.19382100219726561 0.018915107727050781 0.0044401428222656247
v 0.19382100219726561 0.0178897705078125 0.0074592773437500148
v 0.19382100219726561 0.019434720993041991 0.0012942687988281576
v 0.19382100219726561 0.016386127471923827 0.010270953369140634
v 0.19683101196289066 0.016887496948242188 -0.010050000000000003
v 0.19683101196289066 0.012534358978271485 -0.015237866210937479
v 0.19683101196289066 0.014937867164611816 -0.012834362792968734
v 0.19683101196289066 0.0195 -0.00029999999999996696
v 0.19683101196289066 0.018324007034301759 -0.0069693725585937005
v 0.19683101196289066 0.019203752517700196 -0.0036861389160156022
v 0.19683101196289066 6.8683488052556639e-10 -0.019799999999999984
v 0.19683101196289066 0.0033861401081085206 -0.019503735351562468
v 0.19683101196289066 0.0066693935394287109 -0.018624005126953114
v 0.19683101196289066 0.0097500009536743166 -0.01718748168945311
v 0.19683101196289066 0.019203752517700196 0.0030861389160156683
v 0.19683101196289066 -0.0033861386775970461 -0.019503735351562468
v 0.19683101196289066 -0.0097499990463256834 -0.01718748168945311
v 0.19683101196289066 -0.0066693921089172369 -0.018624005126953114
v 0.19683101196289066 0.014937867164611816 0.0122343627929688
v 0.19683101196289066 0.018324007034301759 0.0063694030761718978
v 0.19683101196289066 0.016887496948242188 0.0094500000000000139
v 0.19683101196289066 0.012534358978271485 0.014637866210937545
v 0.19683101196289066 -0.014937866210937501 -0.012834362792968734
v 0.19683101196289066 -0.012534358024597169 -0.015237866210937479
v 0.19683101196289066 0.0097500009536743166 0.016587512207031252
v 0.19683101196289066 -0.016887495040893555 -0.010050000000000003
v 0.19683101196289066 -0.019203750610351563 -0.0036861389160156022
v 0.19683101196289066 -0.018324005126953126 -0.0069693725585937005
v 0.19683101196289066 6.8683493736898526e-10 0.01920000000000005
v 0.19683101196289066 0.0066693935394287109 0.018024005126953124
v 0.19683101196289066 0.0033861401081085206 0.018903765869140665
v 0.19683101196289066 -0.019203750610351563 0.0030861389160156683
v 0.19683101196289066 -0.0195 -0.00029999999999996696
v 0.19683101196289066 -0.0066693921089172369 0.018024005126953124
v 0.19683101196289066 -0.0033861386775970461 0.018903765869140665
v 0.19683101196289066 -0.016887495040893555 0.0094500000000000139
v 0.19683101196289066 -0.018324005126953126 0.0063694030761718978
v 0.19683101196289066 -0.014937866210937501 0.0122343627929688
v 0.19683101196289066 -0.0097499990463256834 0.016587512207031252
v 0.19683101196289066 -0.012534358024597169 0.014637866210937545
v 0.19382100219726561 6.8683488052556639e-10 -0.019799999999999984
v 0.19382100219726561 0.0032381818294525146 -0.019529248046875003
v 0.19382100219726561 0.0063864421844482423 -0.01872453002929686
v 0.19382100219726561 0.0093573579788208006 -0.017408184814453109
v 0.19382100219726561 0.01206843090057373 -0.015616741943359325
v 0.19382100219726561 0.01206843090057373 0.015016772460937522
v 0.19382100219726561 0.0093573579788208006 0.016808184814453175
v 0.19382100219726561 0.0063864421844482423 0.018124530029296926
v 0.19382100219726561 0.0032381818294525146 0.018929248046875014
v 0.19382100219726561 6.8683488052556639e-10 0.01920000000000005
v 0.19382100219726561 -0.0032381803989410402 0.018929248046875014
v 0.19382100219726561 -0.0063864412307739257 0.018124530029296926
v 0.19382100219726561 -0.009357357025146484 0.016808184814453175
v 0.19382100219726561 -0.012068429946899415 0.015016772460937522
v 0.19382100219726561 -0.012068429946899415 -0.015616741943359325
v 0.19382100219726561 -0.009357357025146484 -0.017408184814453109
v 0.19382100219726561 -0.0063864412307739257 -0.01872453002929686
v 0.19382100219726561 -0.0032381803989410402 -0.019529248046875003
f 1 2 3
f 1 3 4
f 5 2 1
f 6 1 4
f 7 8 9
f 7 10 8
f 11 10 7
f 12 13 14
f 12 15 13
f 16 13 15
f 17 12 14
f 18 13 16
f 19 17 14
f 20 13 18
f 21 19 14
f 22 5 13
f 22 13 20
f 23 24 10
f 23 14 24
f 23 10 11
f 23 21 14
f 25 26 27
f 25 11 26
f 28 23 11
f 28 11 25
f 29 30 23
f 31 5 22
f 32 29 23
f 33 28 34
f 35 32 23
f 36 28 33
f 36 23 28
f 36 35 23
f 37 5 31
f 38 5 37
f 39 5 38
f 40 5 39
f 41 42 43
f 41 44 42
f 2 45 44
f 2 46 45
f 2 47 46
f 2 40 47
f 2 44 41
f 2 5 40
f 2 48 49
f 2 50 48
f 2 51 50
f 2 52 51
f 2 41 52
f 53 2 49
f 54 2 53
f 55 56 2
f 57 55 2
f 58 54 59
f 58 2 54
f 60 57 2
f 61 2 58
f 61 60 2
f 14 13 62
f 14 62 63
f 6 4 64
f 42 44 65
f 42 66 67
f 42 65 66
f 43 42 67
f 41 67 68
f 41 43 67
f 52 68 69
f 52 41 68
f 51 69 70
f 51 52 69
f 50 71 72
f 50 70 71
f 50 51 70
f 48 50 72
f 49 72 73
f 49 48 72
f 53 74 75
f 53 73 74
f 53 49 73
f 54 53 75
f 59 75 76
f 59 54 75
f 58 77 78
f 58 76 77
f 58 59 76
f 61 58 78
f 60 61 78
f 60 78 79
f 57 79 80
f 57 60 79
f 55 57 80
f 55 81 82
f 55 80 81
f 56 55 82
f 2 56 82
f 2 82 3
f 65 44 83
f 83 45 84
f 44 45 83
f 84 46 85
f 45 46 84
f 85 47 86
f 46 47 85
f 86 40 87
f 47 40 86
f 87 39 88
f 40 39 87
f 88 38 89
f 39 38 88
f 89 37 90
f 38 37 89
f 90 31 91
f 37 31 90
f 91 22 92
f 31 22 91
f 92 20 93
f 22 20 92
f 93 18 94
f 20 18 93
f 94 16 95
f 18 16 94
f 95 15 96
f 16 15 95
f 96 12 97
f 15 12 96
f 97 17 98
f 12 17 97
f 17 19 98
f 99 21 100
f 98 21 99
f 19 21 98
f 21 23 100
f 14 63 101
f 24 14 101
f 10 101 102
f 10 24 101
f 8 102 103
f 8 10 102
f 9 103 104
f 9 8 103
f 7 104 105
f 7 9 104
f 11 105 106
f 11 7 105
f 26 106 107
f 26 11 106
f 27 107 108
f 27 26 107
f 25 109 110
f 25 108 109
f 25 27 108
f 28 25 110
f 34 110 111
f 34 28 110
f 33 111 112
f 33 34 111
f 36 112 113
f 36 33 112
f 35 113 114
f 35 36 113
f 32 35 114
f 32 115 116
f 32 114 115
f 29 32 116
f 30 29 116
f 30 116 117
f 23 30 117
f 23 117 100
f 6 118 119
f 6 119 1
f 120 6 64
f 120 118 6
f 121 122 123
f 124 121 123
f 62 125 121
f 126 121 124
f 126 62 121
f 120 127 128
f 120 128 129
f 64 127 120
f 130 120 129
f 105 104 103
f 105 103 102
f 105 102 101
f 96 62 95
f 94 95 62
f 97 63 96
f 93 94 62
f 98 63 97
f 107 106 105
f 92 62 126
f 92 93 62
f 99 63 98
f 91 92 126
f 91 126 127
f 100 63 99
f 100 101 63
f 117 101 100
f 110 109 108
f 110 108 107
f 90 91 127
f 115 105 101
f 115 117 116
f 115 101 117
f 112 111 110
f 113 107 105
f 113 112 110
f 113 115 114
f 113 110 107
f 113 105 115
f 89 90 127
f 88 89 127
f 88 127 64
f 87 64 4
f 87 88 64
f 69 68 67
f 69 67 66
f 71 70 69
f 71 69 66
f 3 66 65
f 3 86 87
f 3 85 86
f 3 84 85
f 3 83 84
f 3 65 83
f 3 87 4
f 74 73 72
f 74 72 71
f 74 71 66
f 74 66 3
f 82 74 3
f 81 74 82
f 77 76 75
f 79 81 80
f 78 77 75
f 78 81 79
f 78 75 74
f 78 74 81
f 63 62 96
f 131 132 133
f 131 133 134
f 135 136 137
f 135 137 138
f 139 138 140
f 139 135 138
f 141 140 142
f 141 139 140
f 143 142 144
f 143 141 142
f 145 144 146
f 145 143 144
f 147 148 149
f 147 146 148
f 147 145 146
f 150 147 149
f 151 149 152
f 151 150 149
f 153 154 155
f 153 152 154
f 153 151 152
f 156 153 155
f 157 158 159
f 157 155 158
f 157 156 155
f 160 157 159
f 161 159 162
f 161 160 159
f 163 162 164
f 163 161 162
f 165 163 164
f 165 164 166
f 167 165 166
f 167 166 168
f 169 167 168
f 169 168 170
f 132 169 170
f 132 170 133
f 136 171 137
f 137 171 172
f 172 173 174
f 171 173 172
f 174 175 176
f 173 175 174
f 176 177 178
f 175 177 176
f 178 179 180
f 177 179 178
f 180 181 182
f 179 181 180
f 182 183 184
f 181 183 182
f 184 185 186
f 183 185 184
f 186 187 188
f 185 187 186
f 188 189 190
f 187 189 188
f 190 191 192
f 189 191 190
f 192 193 194
f 191 193 192
f 194 195 196
f 193 195 194
f 196 197 198
f 195 197 196
f 197 199 198
f 198 199 200
f 199 201 200
f 200 201 202
f 202 203 204
f 201 203 202
f 204 205 206
f 203 205 204
f 207 208 209
f 207 209 210
f 211 210 212
f 211 207 210
f 213 214 215
f 213 212 214
f 213 211 212
f 216 213 215
f 217 215 218
f 217 216 215
f 219 220 221
f 219 218 220
f 219 217 218
f 222 219 221
f 223 221 224
f 223 222 221
f 225 226 227
f 225 224 226
f 225 223 224
f 228 225 227
f 229 227 230
f 229 228 227
f 231 232 233
f 231 230 232
f 231 229 230
f 234 231 233
f 235 234 233
f 235 233 236
f 237 236 238
f 237 235 236
f 239 237 238
f 239 238 240
f 241 239 240
f 241 240 242
f 205 241 242
f 205 242 206
f 132 167 169
f 132 165 167
f 132 163 165
f 132 161 163
f 132 160 161
f 132 157 160
f 132 156 157
f 153 156 132
f 151 153 132
f 150 151 132
f 147 150 132
f 145 147 132
f 143 145 132
f 141 143 132
f 139 141 132
f 135 139 132
f 136 135 132
f 171 136 132
f 173 171 132
f 175 173 132
f 177 175 132
f 205 239 241
f 205 237 239
f 205 235 237
f 205 234 235
f 205 231 234
f 205 229 231
f 205 228 229
f 225 228 205
f 223 225 205
f 222 223 205
f 217 219 222
f 216 222 205
f 216 217 222
f 213 216 205
f 131 179 177
f 131 181 179
f 131 183 181
f 131 185 183
f 131 187 185
f 131 177 132
f 207 211 213
f 207 213 205
f 208 199 197
f 208 201 199
f 208 203 201
f 208 205 203
f 208 207 205
f 243 187 131
f 243 189 187
f 243 191 189
f 243 193 191
f 243 195 193
f 243 197 195
f 243 208 197
f 244 245 246
f 247 125 62
f 13 247 62
f 248 247 13
f 5 248 13
f 119 5 1
f 249 5 119
f 249 248 5
f 250 248 249
f 131 251 250
f 252 250 249
f 252 131 250
f 134 253 251
f 134 251 131
f 243 131 252
f 252 254 243
f 255 256 257
f 258 259 260
f 261 255 258
f 262 261 258
f 260 262 258
f 261 256 255
f 263 264 265
f 266 264 263
f 267 268 269
f 270 271 267
f 270 267 269
f 272 265 273
f 272 263 265
f 274 269 266
f 274 270 269
f 275 272 273
f 276 274 266
f 277 272 275
f 278 279 276
f 280 277 281
f 282 279 278
f 283 280 284
f 285 277 280
f 285 280 283
f 286 277 285
f 287 277 286
f 288 282 278
f 289 288 287
f 290 282 288
f 290 288 289
f 263 278 266
f 266 278 276
f 288 272 277
f 288 277 287
f 277 291 292
f 281 292 293
f 281 277 292
f 280 293 294
f 280 281 293
f 284 294 295
f 284 280 294
f 283 295 296
f 283 284 295
f 285 296 297
f 285 283 296
f 286 285 297
f 287 297 298
f 287 286 297
f 275 299 300
f 277 300 291
f 277 275 300
f 275 301 299
f 275 273 301
f 265 302 301
f 273 265 301
f 265 303 302
f 265 264 303
f 263 304 305
f 278 263 305
f 304 306 307
f 304 307 308
f 272 306 304
f 263 272 304
f 272 309 306
f 272 288 309
f 309 305 310
f 309 310 311
f 288 278 305
f 288 305 309
f 312 313 309
f 312 309 311
f 314 315 256
f 316 312 314
f 316 313 312
f 261 316 314
f 256 261 314
f 311 310 317
f 311 317 312
f 318 260 319
f 262 260 318
f 320 262 318
f 317 310 305
f 317 320 318
f 321 317 305
f 321 320 317
f 260 322 323
f 260 324 322
f 260 325 324
f 260 326 325
f 260 327 326
f 260 328 327
f 319 260 323
f 260 259 329
f 260 329 328
f 330 331 332
f 330 333 331
f 330 334 333
f 335 330 332
f 336 330 335
f 337 330 336
f 338 330 339
f 339 330 340
f 340 330 337
f 330 341 334
f 342 343 344
f 342 345 343
f 342 346 345
f 342 347 346
f 342 348 349
f 342 349 350
f 342 350 347
f 256 351 352
f 256 315 351
f 353 256 352
f 354 256 353
f 257 256 355
f 355 256 356
f 356 256 354
f 348 342 357
f 358 127 126
f 358 357 127
f 330 338 358
f 342 127 357
f 126 330 358
f 351 315 314
f 351 314 359
f 352 360 361
f 352 359 360
f 352 351 359
f 353 361 362
f 353 352 361
f 354 353 362
f 356 363 364
f 356 362 363
f 356 354 362
f 355 356 364
f 257 364 255
f 257 355 364
f 307 365 308
f 366 365 307
f 259 258 367
f 329 259 367
f 328 367 368
f 328 329 367
f 327 368 369
f 327 328 368
f 326 369 370
f 326 327 369
f 325 370 371
f 325 326 370
f 324 371 372
f 324 325 371
f 322 373 374
f 322 372 373
f 322 324 372
f 323 374 318
f 323 322 374
f 319 323 318
f 360 359 314
f 363 362 361
f 363 361 360
f 363 360 314
f 255 364 363
f 255 363 314
f 318 314 312
f 318 312 317
f 318 258 255
f 318 255 314
f 368 367 258
f 373 318 374
f 372 258 318
f 372 318 373
f 370 369 368
f 370 368 258
f 371 258 372
f 371 370 258
f 375 126 124
f 330 126 375
f 341 330 375
f 365 375 124
f 376 365 124
f 308 365 376
f 304 308 376
f 349 348 357
f 349 357 377
f 350 377 378
f 350 349 377
f 347 378 379
f 347 350 378
f 346 379 380
f 346 347 379
f 345 380 381
f 345 346 380
f 343 381 382
f 343 345 381
f 344 382 383
f 344 343 382
f 334 341 375
f 334 375 384
f 333 384 385
f 333 334 384
f 331 385 386
f 331 333 385
f 332 386 387
f 332 331 386
f 335 387 388
f 335 332 387
f 336 388 389
f 336 335 388
f 337 389 390
f 337 336 389
f 340 390 391
f 340 337 390
f 339 391 358
f 339 340 391
f 338 339 358
f 375 365 366
f 387 386 385
f 387 385 384
f 389 388 387
f 389 387 384
f 391 390 389
f 358 384 375
f 358 389 384
f 358 391 389
f 357 358 375
f 383 377 357
f 383 375 366
f 383 357 375
f 380 379 378
f 380 378 377
f 380 377 383
f 381 383 382
f 381 380 383
f 118 120 130
f 392 118 130
f 393 394 395
f 393 395 396
f 397 394 393
f 398 316 399
f 313 316 398
f 128 400 401
f 128 401 129
f 309 313 398
f 401 309 398
f 306 309 401
f 400 306 401
f 307 306 400
f 307 400 366
f 128 366 400
f 383 128 127
f 383 366 128
f 342 344 383
f 127 342 383
f 402 403 404
f 405 402 404
f 406 321 407
f 320 321 406
f 122 408 409
f 121 408 122
f 304 376 410
f 305 410 407
f 305 304 410
f 321 305 407
f 376 124 123
f 376 123 410
f 252 395 254
f 396 395 252
f 159 164 162
f 168 166 164
f 170 168 164
f 152 158 155
f 152 155 154
f 149 159 158
f 149 164 159
f 149 158 152
f 144 149 148
f 144 148 146
f 144 170 164
f 144 164 149
f 142 133 170
f 142 170 144
f 138 133 142
f 138 142 140
f 137 133 138
f 172 133 137
f 174 133 172
f 176 133 174
f 178 133 176
f 230 236 233
f 230 233 232
f 227 236 230
f 227 240 238
f 227 238 236
f 226 240 227
f 226 242 240
f 221 226 224
f 221 242 226
f 218 221 220
f 214 221 218
f 214 218 215
f 134 184 186
f 134 182 184
f 134 180 182
f 134 178 180
f 210 242 221
f 210 206 242
f 210 214 212
f 210 221 214
f 209 204 206
f 209 202 204
f 209 200 202
f 209 198 200
f 209 206 210
f 403 253 134
f 406 404 403
f 262 134 186
f 262 186 188
f 262 403 134
f 320 406 403
f 320 403 262
f 261 188 190
f 261 262 188
f 245 196 198
f 245 194 196
f 245 192 194
f 245 190 192
f 245 261 190
f 397 261 245
f 397 245 244
f 397 316 261
f 399 316 397
f 399 397 393
f 134 133 178
f 209 245 198
f 247 121 125
f 408 121 247
f 253 402 251
f 403 402 253
f 397 244 246
f 394 397 246
f 402 405 250
f 402 250 251
f 409 123 122
f 410 123 409
f 405 409 248
f 405 248 250
f 405 410 409
f 406 405 404
f 407 410 405
f 407 405 406
f 409 408 247
f 409 247 248
f 119 392 249
f 118 392 119
f 396 399 393
f 398 399 396
f 249 396 252
f 392 396 249
f 392 398 396
f 129 392 130
f 401 398 392
f 401 392 129
f 266 411 412
f 264 412 303
f 264 266 412
f 276 413 414
f 274 276 414
f 270 414 415
f 270 274 414
f 271 415 416
f 271 270 415
f 267 416 417
f 267 271 416
f 268 417 418
f 268 267 417
f 269 418 419
f 269 268 418
f 266 419 411
f 266 269 419
f 279 420 421
f 276 421 413
f 276 279 421
f 282 422 420
f 279 282 420
f 290 423 422
f 282 290 422
f 289 424 423
f 290 289 423
f 287 298 425
f 289 425 424
f 289 287 425
f 254 395 394
f 254 394 246
f 209 246 245
f 208 243 254
f 208 254 246
f 208 246 209
f 425 426 424
f 424 427 423
f 426 427 424
f 427 428 423
f 428 429 423
f 430 422 429
f 431 422 430
f 429 422 423
f 431 432 422
f 432 420 422
f 432 433 420
f 433 421 420
f 300 299 434
f 299 435 434
f 299 301 435
f 301 436 435
f 301 437 436
f 438 302 439
f 440 302 438
f 441 303 412
f 439 303 441
f 302 303 439
f 301 302 437
f 437 302 440
f 442 443 444
f 445 442 446
f 445 446 447
f 448 449 450
f 448 450 451
f 452 442 445
f 453 451 443
f 453 443 442
f 453 448 451
f 454 455 453
f 456 457 458
f 459 457 456
f 460 461 454
f 460 454 453
f 462 452 457
f 462 457 459
f 463 442 452
f 463 453 442
f 463 460 453
f 464 465 463
f 466 462 467
f 466 467 468
f 466 452 462
f 469 470 464
f 469 463 452
f 469 464 463
f 471 466 472
f 471 452 466
f 471 469 452
f 473 474 469
f 475 469 471
f 475 473 469
f 475 471 476
f 475 476 477
f 448 478 479
f 449 479 480
f 449 448 479
f 450 480 481
f 450 449 480
f 451 481 482
f 451 450 481
f 443 482 300
f 443 451 482
f 444 443 300
f 444 300 434
f 442 444 434
f 442 434 435
f 446 442 435
f 446 435 436
f 447 446 436
f 447 436 437
f 445 447 437
f 445 437 440
f 452 445 440
f 452 440 438
f 457 452 438
f 457 438 439
f 458 457 439
f 458 439 441
f 456 458 441
f 456 441 412
f 459 456 412
f 459 412 483
f 462 459 483
f 462 483 484
f 467 462 484
f 467 484 485
f 468 467 485
f 468 485 486
f 466 468 486
f 466 486 487
f 466 487 488
f 472 488 489
f 472 466 488
f 471 489 490
f 471 472 489
f 476 490 491
f 476 471 490
f 477 491 421
f 477 476 491
f 475 421 433
f 475 477 421
f 473 433 432
f 473 475 433
f 474 432 431
f 474 473 432
f 469 431 430
f 469 474 431
f 470 430 429
f 470 469 430
f 464 429 428
f 464 470 429
f 465 428 427
f 465 464 428
f 463 465 427
f 463 427 426
f 460 463 426
f 460 426 425
f 461 460 425
f 461 425 492
f 454 461 492
f 454 492 493
f 455 454 493
f 455 493 494
f 453 455 494
f 453 494 495
f 448 453 495
f 448 495 478
f 481 291 482
f 482 291 300
f 480 292 481
f 481 292 291
f 479 293 480
f 480 293 292
f 478 294 479
f 479 294 293
f 495 295 478
f 478 295 294
f 494 296 495
f 495 296 295
f 493 297 494
f 494 297 296
f 493 298 297
f 493 492 298
f 492 425 298
f 412 411 483
f 411 484 483
f 411 419 484
f 418 485 419
f 419 485 484
f 417 486 418
f 418 486 485
f 416 487 417
f 417 487 486
f 415 488 416
f 416 488 487
f 414 489 415
f 415 489 488
f 413 490 414
f 414 490 489
f 413 491 490
f 413 421 491
