#usda 1.0
(
    customLayerData = {
        string "aloha1:frozenStageSha256" = "327361d291b13a316fe3390e2add54c1d76ed6c2393455970a6e59f954eb9bb9"
        string "aloha1:profile" = "virtual_helpers_without_rigid_body"
        string "aloha1:scope" = "DIAGNOSTIC_ONLY_NOT_FINAL"
        string "aloha1:sourceCandidateSha256" = "040264d6f12b6607c7764a102d0ceb5b89797d17859a37852b2da8eacd913bd9"
    }
    defaultPrim = "vx300s_left"
    subLayers = [
        @follower_left_virtual_helpers_without_rigid_body_override.usda@
    ]
)

def Xform "vx300s_left" (
    prepend references = @../../../../cad_derived_task7_rule_candidates/1.0/Trossen/vx300s_left/1.0/vx300s_left.usda@</vx300s_left>
)
{
}

