# Created by FreeCAD <https://www.freecad.org>
v 16.935310 1.481648 22.000000
v 17.000000 -0.000000 22.000000
v 17.000000 -0.000000 0.000000
v 16.935310 1.481648 0.000000
v 16.741732 2.952019 22.000000
v 16.741732 2.952019 0.000000
v 16.420738 4.399924 0.000000
v 16.420738 4.399924 22.000000
v 15.974774 5.814342 22.000000
v 15.974774 5.814342 0.000000
v 15.407232 7.184510 22.000000
v 15.407232 7.184510 0.000000
v 14.722432 8.500000 0.000000
v 14.722432 8.500000 22.000000
v 13.925585 9.750799 22.000000
v 13.925585 9.750799 0.000000
v 13.022756 10.927389 22.000000
v 13.022756 10.927389 0.000000
v 12.020815 12.020815 22.000000
v 12.020815 12.020815 0.000000
v 10.927389 13.022756 22.000000
v 10.927389 13.022756 0.000000
v 9.750799 13.925585 22.000000
v 9.750799 13.925585 0.000000
v 8.500000 14.722432 22.000000
v 8.500000 14.722432 0.000000
v 7.184510 15.407232 22.000000
v 7.184510 15.407232 0.000000
v 5.814342 15.974774 22.000000
v 5.814342 15.974774 0.000000
v 4.399924 16.420738 22.000000
v 4.399924 16.420738 0.000000
v 2.952019 16.741732 22.000000
v 2.952019 16.741732 0.000000
v 1.481648 16.935310 0.000000
v 1.481648 16.935310 22.000000
v 0.000000 17.000000 0.000000
v 0.000000 17.000000 22.000000
v -1.481648 16.935310 22.000000
v -1.481648 16.935310 0.000000
v -2.952019 16.741732 0.000000
v -2.952019 16.741732 22.000000
v -4.399924 16.420738 22.000000
v -4.399924 16.420738 0.000000
v -5.814342 15.974774 22.000000
v -5.814342 15.974774 0.000000
v -7.184510 15.407232 22.000000
v -7.184510 15.407232 0.000000
v -8.500000 14.722432 22.000000
v -8.500000 14.722432 0.000000
v -9.750799 13.925585 0.000000
v -9.750799 13.925585 22.000000
v -10.927389 13.022756 22.000000
v -10.927389 13.022756 0.000000
v -12.020815 12.020815 22.000000
v -12.020815 12.020815 0.000000
v -13.022756 10.927389 0.000000
v -13.022756 10.927389 22.000000
v -13.925585 9.750799 0.000000
v -13.925585 9.750799 22.000000
v -14.722432 8.500000 22.000000
v -14.722432 8.500000 0.000000
v -15.407232 7.184510 22.000000
v -15.407232 7.184510 0.000000
v -15.974774 5.814342 0.000000
v -15.974774 5.814342 22.000000
v -16.420738 4.399924 22.000000
v -16.420738 4.399924 0.000000
v -16.741732 2.952019 22.000000
v -16.741732 2.952019 0.000000
v -16.935310 1.481648 22.000000
v -16.935310 1.481648 0.000000
v -17.000000 0.000000 22.000000
v -17.000000 0.000000 0.000000
v -16.935310 -1.481648 22.000000
v -16.935310 -1.481648 0.000000
v -16.741732 -2.952019 22.000000
v -16.741732 -2.952019 0.000000
v -16.420738 -4.399924 22.000000
v -16.420738 -4.399924 0.000000
v -15.974774 -5.814342 22.000000
v -15.974774 -5.814342 0.000000
v -15.407232 -7.184510 0.000000
v -15.407232 -7.184510 22.000000
v -14.722432 -8.500000 22.000000
v -14.722432 -8.500000 0.000000
v -13.925585 -9.750799 22.000000
v -13.925585 -9.750799 0.000000
v -13.022756 -10.927389 22.000000
v -13.022756 -10.927389 0.000000
v -12.020815 -12.020815 22.000000
v -12.020815 -12.020815 0.000000
v -10.927389 -13.022756 22.000000
v -10.927389 -13.022756 0.000000
v -9.750799 -13.925585 22.000000
v -9.750799 -13.925585 0.000000
v -8.500000 -14.722432 0.000000
v -8.500000 -14.722432 22.000000
v -7.184510 -15.407232 22.000000
v -7.184510 -15.407232 0.000000
v -5.814342 -15.974774 22.000000
v -5.814342 -15.974774 0.000000
v -4.399924 -16.420738 22.000000
v -4.399924 -16.420738 0.000000
v -2.952019 -16.741732 0.000000
v -2.952019 -16.741732 22.000000
v -1.481648 -16.935310 0.000000
v -1.481648 -16.935310 22.000000
v -0.000000 -17.000000 22.000000
v -0.000000 -17.000000 0.000000
v 1.481648 -16.935310 22.000000
v 1.481648 -16.935310 0.000000
v 2.952019 -16.741732 22.000000
v 2.952019 -16.741732 0.000000
v 4.399924 -16.420738 22.000000
v 4.399924 -16.420738 0.000000
v 5.814342 -15.974774 0.000000
v 5.814342 -15.974774 22.000000
v 7.184510 -15.407232 22.000000
v 7.184510 -15.407232 0.000000
v 8.500000 -14.722432 22.000000
v 8.500000 -14.722432 0.000000
v 9.750799 -13.925585 0.000000
v 9.750799 -13.925585 22.000000
v 10.927389 -13.022756 22.000000
v 10.927389 -13.022756 0.000000
v 12.020815 -12.020815 0.000000
v 12.020815 -12.020815 22.000000
v 13.022756 -10.927389 22.000000
v 13.022756 -10.927389 0.000000
v 13.925585 -9.750799 22.000000
v 13.925585 -9.750799 0.000000
v 14.722432 -8.500000 22.000000
v 14.722432 -8.500000 0.000000
v 15.407232 -7.184510 22.000000
v 15.407232 -7.184510 0.000000
v 15.974774 -5.814342 22.000000
v 15.974774 -5.814342 0.000000
v 16.420738 -4.399924 22.000000
v 16.420738 -4.399924 0.000000
v 16.741732 -2.952019 0.000000
v 16.741732 -2.952019 22.000000
v 16.935310 -1.481648 22.000000
v 16.935310 -1.481648 0.000000
v -9.898930 -11.797085 0.000000
v -10.889444 -10.889444 0.000000
v -11.797085 -9.898930 0.000000
v -8.833077 -12.614942 0.000000
v -12.614942 -8.833077 0.000000
v -7.700000 -13.336791 0.000000
v -13.336791 -7.700000 0.000000
v -6.508321 -13.957140 0.000000
v -13.957140 -6.508321 0.000000
v -5.267110 -14.471267 0.000000
v -14.471267 -5.267110 0.000000
v -3.985813 -14.875257 0.000000
v -14.875257 -3.985813 0.000000
v -2.674182 -15.166039 0.000000
v -15.166039 -2.674182 0.000000
v -1.342198 -15.341398 0.000000
v -15.341398 -1.342198 0.000000
v -0.000000 -15.400000 0.000000
v -15.400000 0.000000 0.000000
v 1.342198 -15.341398 0.000000
v -15.341398 1.342198 0.000000
v 2.674182 -15.166039 0.000000
v -15.166039 2.674182 0.000000
v 3.985813 -14.875257 0.000000
v -14.875257 3.985813 0.000000
v 5.267110 -14.471267 0.000000
v -14.471267 5.267110 0.000000
v 6.508321 -13.957140 0.000000
v -13.957140 6.508321 0.000000
v 7.700000 -13.336791 0.000000
v -13.336791 7.700000 0.000000
v 8.833077 -12.614942 0.000000
v -12.614942 8.833077 0.000000
v 9.898930 -11.797085 0.000000
v -11.797085 9.898930 0.000000
v 10.889444 -10.889444 0.000000
v -10.889444 10.889444 0.000000
v 11.797085 -9.898930 0.000000
v -9.898930 11.797085 0.000000
v -8.833077 12.614942 0.000000
v 12.614942 -8.833077 0.000000
v 13.336791 -7.700000 0.000000
v -7.700000 13.336791 0.000000
v 13.957140 -6.508321 0.000000
v -6.508321 13.957140 0.000000
v -5.267110 14.471267 0.000000
v 14.471267 -5.267110 0.000000
v -3.985813 14.875257 0.000000
v 14.875257 -3.985813 0.000000
v 15.166039 -2.674182 0.000000
v -2.674182 15.166039 0.000000
v 15.341398 -1.342198 0.000000
v -1.342198 15.341398 0.000000
v 15.400000 -0.000000 0.000000
v 15.341398 1.342198 0.000000
v 0.000000 15.400000 0.000000
v 1.342198 15.341398 0.000000
v 2.674182 15.166039 0.000000
v 15.166039 2.674182 0.000000
v 3.985813 14.875257 0.000000
v 5.267110 14.471267 0.000000
v 14.875257 3.985813 0.000000
v 14.471267 5.267110 0.000000
v 13.957140 6.508321 0.000000
v 6.508321 13.957140 0.000000
v 7.700000 13.336791 0.000000
v 8.833077 12.614942 0.000000
v 13.336791 7.700000 0.000000
v 12.614942 8.833077 0.000000
v 11.797085 9.898930 0.000000
v 9.898930 11.797085 0.000000
v 10.889444 10.889444 0.000000
v 15.400000 -0.000000 20.000000
v 15.341398 1.342198 20.000000
v 15.166039 2.674182 20.000000
v 14.875257 3.985813 20.000000
v 14.471267 5.267110 20.000000
v 13.957140 6.508321 20.000000
v 13.336791 7.700000 20.000000
v 12.614942 8.833077 20.000000
v 11.797085 9.898930 20.000000
v 10.889444 10.889444 20.000000
v 9.898930 11.797085 20.000000
v 8.833077 12.614942 20.000000
v 7.700000 13.336791 20.000000
v 6.508321 13.957140 20.000000
v 5.267110 14.471267 20.000000
v 3.985813 14.875257 20.000000
v 2.674182 15.166039 20.000000
v 1.342198 15.341398 20.000000
v 0.000000 15.400000 20.000000
v -1.342198 15.341398 20.000000
v -2.674182 15.166039 20.000000
v -3.985813 14.875257 20.000000
v -5.267110 14.471267 20.000000
v -6.508321 13.957140 20.000000
v -7.700000 13.336791 20.000000
v -8.833077 12.614942 20.000000
v -9.898930 11.797085 20.000000
v -10.889444 10.889444 20.000000
v -11.797085 9.898930 20.000000
v -12.614942 8.833077 20.000000
v -13.336791 7.700000 20.000000
v -13.957140 6.508321 20.000000
v -14.471267 5.267110 20.000000
v -14.875257 3.985813 20.000000
v -15.166039 2.674182 20.000000
v -15.341398 1.342198 20.000000
v -15.400000 0.000000 20.000000
v -15.341398 -1.342198 20.000000
v -15.166039 -2.674182 20.000000
v -14.875257 -3.985813 20.000000
v -14.471267 -5.267110 20.000000
v -13.957140 -6.508321 20.000000
v -13.336791 -7.700000 20.000000
v -12.614942 -8.833077 20.000000
v -11.797085 -9.898930 20.000000
v -10.889444 -10.889444 20.000000
v -9.898930 -11.797085 20.000000
v -8.833077 -12.614942 20.000000
v -7.700000 -13.336791 20.000000
v -6.508321 -13.957140 20.000000
v -5.267110 -14.471267 20.000000
v -3.985813 -14.875257 20.000000
v -2.674182 -15.166039 20.000000
v -1.342198 -15.341398 20.000000
v -0.000000 -15.400000 20.000000
v 1.342198 -15.341398 20.000000
v 2.674182 -15.166039 20.000000
v 3.985813 -14.875257 20.000000
v 5.267110 -14.471267 20.000000
v 6.508321 -13.957140 20.000000
v 7.700000 -13.336791 20.000000
v 8.833077 -12.614942 20.000000
v 9.898930 -11.797085 20.000000
v 10.889444 -10.889444 20.000000
v 11.797085 -9.898930 20.000000
v 12.614942 -8.833077 20.000000
v 13.336791 -7.700000 20.000000
v 13.957140 -6.508321 20.000000
v 14.471267 -5.267110 20.000000
v 14.875257 -3.985813 20.000000
v 15.166039 -2.674182 20.000000
v 15.341398 -1.342198 20.000000
vn 0.999048 0.043619 0.000000
vn 0.999048 0.043619 0.000000
vn 0.991445 0.130527 0.000000
vn 0.991445 0.130527 0.000000
vn 0.976296 0.216440 0.000000
vn 0.976296 0.216440 0.000000
vn 0.953717 0.300705 0.000000
vn 0.953717 0.300705 0.000000
vn 0.923880 0.382683 0.000000
vn 0.923880 0.382683 0.000000
vn 0.887011 0.461748 0.000000
vn 0.887011 0.461748 0.000000
vn 0.843391 0.537300 0.000000
vn 0.843391 0.537300 0.000000
vn 0.793353 0.608761 0.000000
vn 0.793353 0.608761 0.000000
vn 0.737277 0.675590 0.000000
vn 0.737277 0.675590 0.000000
vn 0.675590 0.737277 0.000000
vn 0.675590 0.737277 0.000000
vn 0.608761 0.793353 0.000000
vn 0.608761 0.793353 0.000000
vn 0.537300 0.843391 0.000000
vn 0.537300 0.843391 0.000000
vn 0.461748 0.887011 0.000000
vn 0.461748 0.887011 0.000000
vn 0.382683 0.923880 0.000000
vn 0.382683 0.923880 0.000000
vn 0.300705 0.953717 0.000000
vn 0.300705 0.953717 0.000000
vn 0.216440 0.976296 0.000000
vn 0.216440 0.976296 0.000000
vn 0.130527 0.991445 0.000000
vn 0.130527 0.991445 0.000000
vn 0.043619 0.999048 0.000000
vn 0.043619 0.999048 0.000000
vn -0.043619 0.999048 0.000000
vn -0.043619 0.999048 0.000000
vn -0.130527 0.991445 0.000000
vn -0.130527 0.991445 0.000000
vn -0.216440 0.976296 0.000000
vn -0.216440 0.976296 0.000000
vn -0.300705 0.953717 0.000000
vn -0.300705 0.953717 0.000000
vn -0.382683 0.923880 0.000000
vn -0.382683 0.923880 0.000000
vn -0.461748 0.887011 0.000000
vn -0.461748 0.887011 0.000000
vn -0.537300 0.843391 0.000000
vn -0.537300 0.843391 0.000000
vn -0.608761 0.793353 0.000000
vn -0.608761 0.793353 0.000000
vn -0.737277 0.675590 0.000000
vn -0.675590 0.737277 0.000000
vn -0.675590 0.737277 0.000000
vn -0.793353 0.608761 0.000000
vn -0.737277 0.675590 0.000000
vn -0.793353 0.608761 0.000000
vn -0.843391 0.537300 0.000000
vn -0.843391 0.537300 0.000000
vn -0.887011 0.461748 0.000000
vn -0.923880 0.382683 0.000000
vn -0.887011 0.461748 0.000000
vn -0.923880 0.382683 0.000000
vn -0.953717 0.300705 0.000000
vn -0.953717 0.300705 0.000000
vn -0.976296 0.216440 0.000000
vn -0.976296 0.216440 0.000000
vn -0.991445 0.130527 0.000000
vn -0.991445 0.130527 0.000000
vn -0.999048 0.043619 0.000000
vn -0.999048 0.043619 0.000000
vn -0.999048 -0.043619 -0.000000
vn -0.999048 -0.043619 0.000000
vn -0.991445 -0.130527 -0.000000
vn -0.991445 -0.130527 0.000000
vn -0.976296 -0.216440 0.000000
vn -0.976296 -0.216440 -0.000000
vn -0.953717 -0.300705 0.000000
vn -0.953717 -0.300705 -0.000000
vn -0.923880 -0.382683 -0.000000
vn -0.923880 -0.382683 -0.000000
vn -0.887011 -0.461748 -0.000000
vn -0.887011 -0.461748 0.000000
vn -0.843391 -0.537300 -0.000000
vn -0.843391 -0.537300 0.000000
vn -0.793353 -0.608761 -0.000000
vn -0.793353 -0.608761 0.000000
vn -0.737277 -0.675590 -0.000000
vn -0.737277 -0.675590 0.000000
vn -0.675590 -0.737277 -0.000000
vn -0.675590 -0.737277 0.000000
vn -0.608761 -0.793353 -0.000000
vn -0.537300 -0.843391 -0.000000
vn -0.608761 -0.793353 0.000000
vn -0.537300 -0.843391 -0.000000
vn -0.461748 -0.887011 -0.000000
vn -0.461748 -0.887011 0.000000
vn -0.382683 -0.923880 -0.000000
vn -0.382683 -0.923880 0.000000
vn -0.300705 -0.953717 -0.000000
vn -0.216440 -0.976296 -0.000000
vn -0.300705 -0.953717 0.000000
vn -0.130527 -0.991445 -0.000000
vn -0.216440 -0.976296 -0.000000
vn -0.130527 -0.991445 -0.000000
vn -0.043619 -0.999048 -0.000000
vn -0.043619 -0.999048 0.000000
vn 0.043619 -0.999048 0.000000
vn 0.043619 -0.999048 0.000000
vn 0.130527 -0.991445 0.000000
vn 0.130527 -0.991445 0.000000
vn 0.216440 -0.976296 0.000000
vn 0.300705 -0.953717 0.000000
vn 0.216440 -0.976296 0.000000
vn 0.300705 -0.953717 0.000000
vn 0.382683 -0.923880 0.000000
vn 0.382683 -0.923880 0.000000
vn 0.461748 -0.887011 0.000000
vn 0.537300 -0.843391 0.000000
vn 0.461748 -0.887011 0.000000
vn 0.537300 -0.843391 0.000000
vn 0.608761 -0.793353 0.000000
vn 0.675590 -0.737277 0.000000
vn 0.608761 -0.793353 0.000000
vn 0.675590 -0.737277 0.000000
vn 0.737277 -0.675590 0.000000
vn 0.737277 -0.675590 0.000000
vn 0.793353 -0.608761 0.000000
vn 0.793353 -0.608761 0.000000
vn 0.843391 -0.537300 0.000000
vn 0.843391 -0.537300 0.000000
vn 0.887011 -0.461748 0.000000
vn 0.887011 -0.461748 0.000000
vn 0.923880 -0.382683 0.000000
vn 0.923880 -0.382683 0.000000
vn 0.953717 -0.300705 0.000000
vn 0.953717 -0.300705 0.000000
vn 0.976296 -0.216440 0.000000
vn 0.976296 -0.216440 0.000000
vn 0.991445 -0.130527 0.000000
vn 0.991445 -0.130527 0.000000
vn 0.999048 -0.043619 0.000000
vn 0.999048 -0.043619 0.000000
vn 0.000000 0.000000 1.000000
vn 0.000000 0.000000 1.000000
vn 0.000000 0.000000 1.000000
vn 0.000000 0.000000 1.000000
vn 0.000000 0.000000 1.000000
vn 0.000000 0.000000 1.000000
vn 0.000000 0.000000 1.000000
vn 0.000000 0.000000 1.000000
vn 0.000000 0.000000 1.000000
vn 0.000000 0.000000 1.000000
vn 0.000000 0.000000 1.000000
vn 0.000000 0.000000 1.000000
vn 0.000000 0.000000 1.000000
vn 0.000000 0.000000 1.000000
vn 0.000000 0.000000 1.000000
vn 0.000000 0.000000 1.000000
vn 0.000000 0.000000 1.000000
vn 0.000000 0.000000 1.000000
vn 0.000000 0.000000 1.000000
vn 0.000000 0.000000 1.000000
vn 0.000000 0.000000 1.000000
vn 0.000000 0.000000 1.000000
vn 0.000000 0.000000 1.000000
vn 0.000000 0.000000 1.000000
vn 0.000000 0.000000 1.000000
vn 0.000000 0.000000 1.000000
vn 0.000000 0.000000 1.000000
vn 0.000000 0.000000 1.000000
vn 0.000000 0.000000 1.000000
vn 0.000000 0.000000 1.000000
vn 0.000000 0.000000 1.000000
vn 0.000000 0.000000 1.000000
vn 0.000000 0.000000 1.000000
vn 0.000000 0.000000 1.000000
vn 0.000000 0.000000 1.000000
vn 0.000000 0.000000 1.000000
vn 0.000000 0.000000 1.000000
vn 0.000000 0.000000 1.000000
vn 0.000000 0.000000 1.000000
vn 0.000000 0.000000 1.000000
vn 0.000000 0.000000 1.000000
vn 0.000000 0.000000 1.000000
vn 0.000000 0.000000 1.000000
vn 0.000000 0.000000 1.000000
vn 0.000000 0.000000 1.000000
vn 0.000000 0.000000 1.000000
vn 0.000000 0.000000 1.000000
vn 0.000000 0.000000 1.000000
vn 0.000000 0.000000 1.000000
vn 0.000000 0.000000 1.000000
vn 0.000000 0.000000 1.000000
vn 0.000000 0.000000 1.000000
vn 0.000000 0.000000 1.000000
vn 0.000000 0.000000 1.000000
vn 0.000000 0.000000 1.000000
vn 0.000000 0.000000 1.000000
vn 0.000000 0.000000 1.000000
vn 0.000000 0.000000 1.000000
vn 0.000000 0.000000 1.000000
vn 0.000000 0.000000 1.000000
vn 0.000000 0.000000 1.000000
vn 0.000000 0.000000 1.000000
vn 0.000000 0.000000 1.000000
vn 0.000000 0.000000 1.000000
vn 0.000000 0.000000 1.000000
vn 0.000000 0.000000 1.000000
vn 0.000000 0.000000 1.000000
vn 0.000000 0.000000 1.000000
vn 0.000000 0.000000 1.000000
vn 0.000000 0.000000 1.000000
vn 0.000000 0.000000 -1.000000
vn 0.000000 -0.000000 -1.000000
vn 0.000000 0.000000 -1.000000
vn 0.000000 0.000000 -1.000000
vn 0.000000 0.000000 -1.000000
vn 0.000000 0.000000 -1.000000
vn 0.000000 -0.000000 -1.000000
vn 0.000000 0.000000 -1.000000
vn 0.000000 0.000000 -1.000000
vn 0.000000 0.000000 -1.000000
vn 0.000000 -0.000000 -1.000000
vn 0.000000 0.000000 -1.000000
vn 0.000000 0.000000 -1.000000
vn 0.000000 0.000000 -1.000000
vn 0.000000 0.000000 -1.000000
vn 0.000000 0.000000 -1.000000
vn 0.000000 0.000000 -1.000000
vn 0.000000 0.000000 -1.000000
vn 0.000000 0.000000 -1.000000
vn 0.000000 0.000000 -1.000000
vn 0.000000 0.000000 -1.000000
vn 0.000000 -0.000000 -1.000000
vn 0.000000 0.000000 -1.000000
vn 0.000000 0.000000 -1.000000
vn 0.000000 0.000000 -1.000000
vn 0.000000 -0.000000 -1.000000
vn 0.000000 0.000000 -1.000000
vn 0.000000 0.000000 -1.000000
vn 0.000000 -0.000000 -1.000000
vn 0.000000 0.000000 -1.000000
vn 0.000000 0.000000 -1.000000
vn 0.000000 0.000000 -1.000000
vn 0.000000 0.000000 -1.000000
vn 0.000000 0.000000 -1.000000
vn 0.000000 0.000000 -1.000000
vn 0.000000 0.000000 -1.000000
vn 0.000000 0.000000 -1.000000
vn 0.000000 0.000000 -1.000000
vn 0.000000 0.000000 -1.000000
vn 0.000000 -0.000000 -1.000000
vn 0.000000 0.000000 -1.000000
vn 0.000000 0.000000 -1.000000
vn 0.000000 0.000000 -1.000000
vn 0.000000 0.000000 -1.000000
vn 0.000000 0.000000 -1.000000
vn 0.000000 0.000000 -1.000000
vn 0.000000 0.000000 -1.000000
vn 0.000000 -0.000000 -1.000000
vn 0.000000 0.000000 -1.000000
vn 0.000000 0.000000 -1.000000
vn 0.000000 -0.000000 -1.000000
vn 0.000000 0.000000 -1.000000
vn 0.000000 0.000000 -1.000000
vn 0.000000 0.000000 -1.000000
vn 0.000000 0.000000 -1.000000
vn 0.000000 -0.000000 -1.000000
vn 0.000000 0.000000 -1.000000
vn 0.000000 0.000000 -1.000000
vn 0.000000 -0.000000 -1.000000
vn 0.000000 0.000000 -1.000000
vn 0.000000 0.000000 -1.000000
vn 0.000000 0.000000 -1.000000
vn 0.000000 -0.000000 -1.000000
vn 0.000000 0.000000 -1.000000
vn 0.000000 0.000000 -1.000000
vn 0.000000 0.000000 -1.000000
vn 0.000000 0.000000 -1.000000
vn 0.000000 0.000000 -1.000000
vn 0.000000 0.000000 -1.000000
vn 0.000000 0.000000 -1.000000
vn 0.000000 0.000000 -1.000000
vn 0.000000 0.000000 -1.000000
vn 0.000000 0.000000 -1.000000
vn 0.000000 0.000000 -1.000000
vn 0.000000 0.000000 -1.000000
vn 0.000000 0.000000 -1.000000
vn 0.000000 0.000000 -1.000000
vn 0.000000 0.000000 -1.000000
vn 0.000000 -0.000000 -1.000000
vn 0.000000 0.000000 -1.000000
vn 0.000000 -0.000000 -1.000000
vn 0.000000 0.000000 -1.000000
vn 0.000000 0.000000 -1.000000
vn 0.000000 0.000000 -1.000000
vn 0.000000 0.000000 -1.000000
vn 0.000000 -0.000000 -1.000000
vn 0.000000 0.000000 -1.000000
vn 0.000000 0.000000 -1.000000
vn 0.000000 0.000000 -1.000000
vn 0.000000 0.000000 -1.000000
vn 0.000000 -0.000000 -1.000000
vn 0.000000 0.000000 -1.000000
vn 0.000000 0.000000 -1.000000
vn 0.000000 0.000000 -1.000000
vn 0.000000 -0.000000 -1.000000
vn 0.000000 0.000000 -1.000000
vn 0.000000 0.000000 -1.000000
vn 0.000000 0.000000 -1.000000
vn 0.000000 0.000000 -1.000000
vn 0.000000 0.000000 -1.000000
vn 0.000000 -0.000000 -1.000000
vn 0.000000 0.000000 -1.000000
vn 0.000000 0.000000 -1.000000
vn 0.000000 0.000000 -1.000000
vn 0.000000 -0.000000 -1.000000
vn 0.000000 0.000000 -1.000000
vn 0.000000 0.000000 -1.000000
vn 0.000000 0.000000 -1.000000
vn 0.000000 0.000000 -1.000000
vn 0.000000 0.000000 -1.000000
vn 0.000000 -0.000000 -1.000000
vn 0.000000 0.000000 -1.000000
vn 0.000000 0.000000 -1.000000
vn 0.000000 0.000000 -1.000000
vn 0.000000 0.000000 -1.000000
vn 0.000000 0.000000 -1.000000
vn 0.000000 0.000000 -1.000000
vn 0.000000 0.000000 -1.000000
vn 0.000000 0.000000 -1.000000
vn 0.000000 0.000000 -1.000000
vn 0.000000 0.000000 -1.000000
vn 0.000000 0.000000 -1.000000
vn 0.000000 0.000000 -1.000000
vn 0.000000 0.000000 -1.000000
vn 0.000000 0.000000 -1.000000
vn 0.000000 0.000000 -1.000000
vn 0.000000 0.000000 -1.000000
vn 0.000000 0.000000 -1.000000
vn 0.000000 -0.000000 -1.000000
vn 0.000000 0.000000 -1.000000
vn 0.000000 0.000000 -1.000000
vn 0.000000 0.000000 -1.000000
vn 0.000000 0.000000 -1.000000
vn 0.000000 0.000000 -1.000000
vn 0.000000 0.000000 -1.000000
vn 0.000000 0.000000 -1.000000
vn 0.000000 0.000000 -1.000000
vn 0.000000 0.000000 -1.000000
vn 0.000000 -0.000000 -1.000000
vn 0.000000 0.000000 -1.000000
vn 0.000000 0.000000 -1.000000
vn 0.000000 -0.000000 -1.000000
vn 0.000000 0.000000 -1.000000
vn 0.000000 0.000000 -1.000000
vn -0.999048 -0.043619 -0.000000
vn -0.999048 -0.043619 0.000000
vn -0.991445 -0.130526 -0.000000
vn -0.991445 -0.130526 0.000000
vn -0.976296 -0.216440 -0.000000
vn -0.976296 -0.216440 0.000000
vn -0.953717 -0.300705 -0.000000
vn -0.953717 -0.300705 0.000000
vn -0.923879 -0.382684 -0.000000
vn -0.923879 -0.382684 0.000000
vn -0.887011 -0.461749 -0.000000
vn -0.887011 -0.461749 0.000000
vn -0.843392 -0.537299 -0.000000
vn -0.843392 -0.537299 0.000000
vn -0.793353 -0.608761 0.000000
vn -0.793353 -0.608761 -0.000000
vn -0.737277 -0.675591 0.000000
vn -0.737277 -0.675591 -0.000000
vn -0.675591 -0.737277 0.000000
vn -0.675591 -0.737277 -0.000000
vn -0.608761 -0.793353 0.000000
vn -0.608761 -0.793353 -0.000000
vn -0.537299 -0.843392 0.000000
vn -0.537299 -0.843392 -0.000000
vn -0.461749 -0.887011 0.000000
vn -0.461749 -0.887011 -0.000000
vn -0.382684 -0.923879 -0.000000
vn -0.382684 -0.923879 0.000000
vn -0.300705 -0.953717 -0.000000
vn -0.300705 -0.953717 0.000000
vn -0.216440 -0.976296 0.000000
vn -0.216440 -0.976296 0.000000
vn -0.130526 -0.991445 -0.000000
vn -0.130526 -0.991445 0.000000
vn -0.043619 -0.999048 -0.000000
vn -0.043619 -0.999048 0.000000
vn 0.043619 -0.999048 0.000000
vn 0.043619 -0.999048 0.000000
vn 0.130526 -0.991445 0.000000
vn 0.130526 -0.991445 0.000000
vn 0.216440 -0.976296 0.000000
vn 0.216440 -0.976296 0.000000
vn 0.300705 -0.953717 0.000000
vn 0.300705 -0.953717 0.000000
vn 0.382684 -0.923879 0.000000
vn 0.382684 -0.923879 0.000000
vn 0.461749 -0.887011 0.000000
vn 0.461749 -0.887011 0.000000
vn 0.537299 -0.843392 0.000000
vn 0.537299 -0.843392 0.000000
vn 0.608761 -0.793353 0.000000
vn 0.608761 -0.793353 0.000000
vn 0.675591 -0.737277 0.000000
vn 0.737277 -0.675591 0.000000
vn 0.675591 -0.737277 0.000000
vn 0.737277 -0.675591 0.000000
vn 0.793353 -0.608761 0.000000
vn 0.793353 -0.608761 0.000000
vn 0.843392 -0.537299 0.000000
vn 0.843392 -0.537299 0.000000
vn 0.887011 -0.461749 0.000000
vn 0.887011 -0.461749 0.000000
vn 0.923879 -0.382684 0.000000
vn 0.923879 -0.382684 0.000000
vn 0.953717 -0.300705 0.000000
vn 0.953717 -0.300705 0.000000
vn 0.976296 -0.216440 0.000000
vn 0.976296 -0.216440 0.000000
vn 0.991445 -0.130526 0.000000
vn 0.991445 -0.130526 0.000000
vn 0.999048 -0.043619 0.000000
vn 0.999048 -0.043619 0.000000
vn 0.999048 0.043619 0.000000
vn 0.999048 0.043619 0.000000
vn 0.991445 0.130526 0.000000
vn 0.991445 0.130526 0.000000
vn 0.976296 0.216440 0.000000
vn 0.976296 0.216440 0.000000
vn 0.953717 0.300705 0.000000
vn 0.953717 0.300705 0.000000
vn 0.923879 0.382684 0.000000
vn 0.923879 0.382684 0.000000
vn 0.887011 0.461749 0.000000
vn 0.887011 0.461749 0.000000
vn 0.843392 0.537299 0.000000
vn 0.843392 0.537299 0.000000
vn 0.793353 0.608761 0.000000
vn 0.737277 0.675591 -0.000000
vn 0.793353 0.608761 0.000000
vn 0.737277 0.675591 0.000000
vn 0.675591 0.737277 0.000000
vn 0.675591 0.737277 0.000000
vn 0.608761 0.793353 0.000000
vn 0.608761 0.793353 0.000000
vn 0.537299 0.843392 0.000000
vn 0.537299 0.843392 0.000000
vn 0.461749 0.887011 0.000000
vn 0.461749 0.887011 0.000000
vn 0.382684 0.923879 0.000000
vn 0.382684 0.923879 0.000000
vn 0.300705 0.953717 0.000000
vn 0.300705 0.953717 0.000000
vn 0.216440 0.976296 0.000000
vn 0.216440 0.976296 0.000000
vn 0.130526 0.991445 0.000000
vn 0.130526 0.991445 0.000000
vn 0.043619 0.999048 0.000000
vn 0.043619 0.999048 0.000000
vn -0.043619 0.999048 0.000000
vn -0.043619 0.999048 0.000000
vn -0.130526 0.991445 0.000000
vn -0.130526 0.991445 0.000000
vn -0.216440 0.976296 0.000000
vn -0.216440 0.976296 0.000000
vn -0.300705 0.953717 0.000000
vn -0.300705 0.953717 0.000000
vn -0.382684 0.923879 0.000000
vn -0.382684 0.923879 0.000000
vn -0.461749 0.887011 0.000000
vn -0.461749 0.887011 0.000000
vn -0.537299 0.843392 0.000000
vn -0.537299 0.843392 0.000000
vn -0.608761 0.793353 0.000000
vn -0.608761 0.793353 0.000000
vn -0.675591 0.737277 0.000000
vn -0.675591 0.737277 0.000000
vn -0.737277 0.675591 0.000000
vn -0.737277 0.675591 0.000000
vn -0.793353 0.608761 0.000000
vn -0.793353 0.608761 0.000000
vn -0.843392 0.537299 0.000000
vn -0.843392 0.537299 0.000000
vn -0.887011 0.461749 0.000000
vn -0.887011 0.461749 0.000000
vn -0.923879 0.382684 0.000000
vn -0.923879 0.382684 0.000000
vn -0.953717 0.300705 0.000000
vn -0.953717 0.300705 0.000000
vn -0.976296 0.216440 0.000000
vn -0.976296 0.216440 0.000000
vn -0.991445 0.130526 0.000000
vn -0.991445 0.130526 0.000000
vn -0.999048 0.043619 0.000000
vn -0.999048 0.043619 0.000000
vn 0.000000 0.000000 -1.000000
vn 0.000000 0.000000 -1.000000
vn 0.000000 0.000000 -1.000000
vn 0.000000 0.000000 -1.000000
vn 0.000000 0.000000 -1.000000
vn 0.000000 0.000000 -1.000000
vn 0.000000 0.000000 -1.000000
vn 0.000000 0.000000 -1.000000
vn 0.000000 0.000000 -1.000000
vn 0.000000 0.000000 -1.000000
vn 0.000000 0.000000 -1.000000
vn 0.000000 0.000000 -1.000000
vn 0.000000 0.000000 -1.000000
vn 0.000000 0.000000 -1.000000
vn 0.000000 0.000000 -1.000000
vn 0.000000 0.000000 -1.000000
vn 0.000000 0.000000 -1.000000
vn 0.000000 0.000000 -1.000000
vn 0.000000 -0.000000 -1.000000
vn 0.000000 -0.000000 -1.000000
vn 0.000000 0.000000 -1.000000
vn 0.000000 0.000000 -1.000000
vn 0.000000 0.000000 -1.000000
vn 0.000000 0.000000 -1.000000
vn 0.000000 -0.000000 -1.000000
vn 0.000000 -0.000000 -1.000000
vn 0.000000 0.000000 -1.000000
vn 0.000000 -0.000000 -1.000000
vn 0.000000 0.000000 -1.000000
vn 0.000000 0.000000 -1.000000
vn 0.000000 0.000000 -1.000000
vn 0.000000 -0.000000 -1.000000
vn 0.000000 0.000000 -1.000000
vn 0.000000 0.000000 -1.000000
vn 0.000000 -0.000000 -1.000000
vn 0.000000 0.000000 -1.000000
vn 0.000000 0.000000 -1.000000
vn 0.000000 -0.000000 -1.000000
vn 0.000000 -0.000000 -1.000000
vn 0.000000 -0.000000 -1.000000
vn 0.000000 -0.000000 -1.000000
vn 0.000000 0.000000 -1.000000
vn 0.000000 -0.000000 -1.000000
vn 0.000000 0.000000 -1.000000
vn 0.000000 0.000000 -1.000000
vn 0.000000 0.000000 -1.000000
vn 0.000000 -0.000000 -1.000000
vn 0.000000 -0.000000 -1.000000
vn 0.000000 -0.000000 -1.000000
vn 0.000000 0.000000 -1.000000
vn 0.000000 0.000000 -1.000000
vn 0.000000 0.000000 -1.000000
vn 0.000000 -0.000000 -1.000000
vn 0.000000 0.000000 -1.000000
vn 0.000000 0.000000 -1.000000
vn -0.000000 -0.000000 -1.000000
vn 0.000000 -0.000000 -1.000000
vn 0.000000 -0.000000 -1.000000
vn 0.000000 0.000000 -1.000000
vn -0.000000 -0.000000 -1.000000
vn -0.000000 -0.000000 -1.000000
vn 0.000000 0.000000 -1.000000
vn 0.000000 0.000000 -1.000000
vn 0.000000 0.000000 -1.000000
vn 0.000000 0.000000 -1.000000
vn -0.000000 -0.000000 -1.000000
vn -0.000000 -0.000000 -1.000000
vn -0.000000 -0.000000 -1.000000
vn 0.000000 0.000000 -1.000000
vn 0.000000 -0.000000 -1.000000
f 1//1 2//1 3//1
f 1//2 3//2 4//2
f 5//3 1//3 4//3
f 5//4 4//4 6//4
f 5//5 6//5 7//5
f 8//6 5//6 7//6
f 9//7 8//7 7//7
f 9//8 7//8 10//8
f 11//9 9//9 10//9
f 11//10 10//10 12//10
f 11//11 12//11 13//11
f 14//12 11//12 13//12
f 15//13 14//13 13//13
f 15//14 13//14 16//14
f 17//15 16//15 18//15
f 17//16 15//16 16//16
f 19//17 18//17 20//17
f 19//18 17//18 18//18
f 21//19 20//19 22//19
f 21//20 19//20 20//20
f 23//21 22//21 24//21
f 23//22 21//22 22//22
f 25//23 24//23 26//23
f 25//24 23//24 24//24
f 27//25 26//25 28//25
f 27//26 25//26 26//26
f 29//27 27//27 28//27
f 29//28 28//28 30//28
f 31//29 29//29 30//29
f 31//30 30//30 32//30
f 33//31 31//31 32//31
f 33//32 32//32 34//32
f 33//33 34//33 35//33
f 36//34 33//34 35//34
f 36//35 35//35 37//35
f 38//36 36//36 37//36
f 39//37 38//37 37//37
f 39//38 37//38 40//38
f 39//39 40//39 41//39
f 42//40 39//40 41//40
f 43//41 42//41 41//41
f 43//42 41//42 44//42
f 45//43 43//43 44//43
f 45//44 44//44 46//44
f 47//45 45//45 46//45
f 47//46 46//46 48//46
f 49//47 47//47 48//47
f 49//48 48//48 50//48
f 49//49 50//49 51//49
f 52//50 49//50 51//50
f 53//51 52//51 51//51
f 53//52 51//52 54//52
f 55//53 56//53 57//53
f 55//54 53//54 54//54
f 55//55 54//55 56//55
f 58//56 57//56 59//56
f 58//57 55//57 57//57
f 60//58 58//58 59//58
f 61//59 59//59 62//59
f 61//60 60//60 59//60
f 63//61 62//61 64//61
f 63//62 64//62 65//62
f 63//63 61//63 62//63
f 66//64 63//64 65//64
f 67//65 65//65 68//65
f 67//66 66//66 65//66
f 69//67 68//67 70//67
f 69//68 67//68 68//68
f 71//69 70//69 72//69
f 71//70 69//70 70//70
f 73//71 72//71 74//71
f 73//72 71//72 72//72
f 75//73 74//73 76//73
f 75//74 73//74 74//74
f 77//75 76//75 78//75
f 77//76 75//76 76//76
f 79//77 77//77 78//77
f 79//78 78//78 80//78
f 81//79 79//79 80//79
f 81//80 80//80 82//80
f 81//81 82//81 83//81
f 84//82 81//82 83//82
f 85//83 83//83 86//83
f 85//84 84//84 83//84
f 87//85 86//85 88//85
f 87//86 85//86 86//86
f 89//87 88//87 90//87
f 89//88 87//88 88//88
f 91//89 90//89 92//89
f 91//90 89//90 90//90
f 93//91 92//91 94//91
f 93//92 91//92 92//92
f 95//93 94//93 96//93
f 95//94 96//94 97//94
f 95//95 93//95 94//95
f 98//96 95//96 97//96
f 99//97 97//97 100//97
f 99//98 98//98 97//98
f 101//99 100//99 102//99
f 101//100 99//100 100//100
f 103//101 102//101 104//101
f 103//102 104//102 105//102
f 103//103 101//103 102//103
f 106//104 105//104 107//104
f 106//105 103//105 105//105
f 108//106 106//106 107//106
f 109//107 107//107 110//107
f 109//108 108//108 107//108
f 111//109 110//109 112//109
f 111//110 109//110 110//110
f 113//111 112//111 114//111
f 113//112 111//112 112//112
f 115//113 114//113 116//113
f 115//114 116//114 117//114
f 115//115 113//115 114//115
f 118//116 115//116 117//116
f 119//117 117//117 120//117
f 119//118 118//118 117//118
f 121//119 120//119 122//119
f 121//120 122//120 123//120
f 121//121 119//121 120//121
f 124//122 121//122 123//122
f 125//123 123//123 126//123
f 125//124 126//124 127//124
f 125//125 124//125 123//125
f 128//126 125//126 127//126
f 129//127 128//127 127//127
f 129//128 127//128 130//128
f 131//129 129//129 130//129
f 131//130 130//130 132//130
f 133//131 131//131 132//131
f 133//132 132//132 134//132
f 135//133 133//133 134//133
f 135//134 134//134 136//134
f 137//135 135//135 136//135
f 137//136 136//136 138//136
f 139//137 137//137 138//137
f 139//138 138//138 140//138
f 139//139 140//139 141//139
f 142//140 139//140 141//140
f 143//141 142//141 141//141
f 143//142 141//142 144//142
f 2//143 143//143 144//143
f 2//144 144//144 3//144
f 87//145 89//145 91//145
f 87//146 91//146 93//146
f 84//147 85//147 87//147
f 84//148 93//148 95//148
f 84//149 87//149 93//149
f 101//150 95//150 98//150
f 101//151 98//151 99//151
f 77//152 79//152 81//152
f 77//153 81//153 84//153
f 108//154 101//154 103//154
f 108//155 103//155 106//155
f 108//156 77//156 84//156
f 108//157 84//157 95//157
f 108//158 95//158 101//158
f 73//159 75//159 77//159
f 113//160 108//160 109//160
f 113//161 109//161 111//161
f 67//162 73//162 77//162
f 67//163 69//163 71//163
f 67//164 71//164 73//164
f 118//165 113//165 115//165
f 119//166 108//166 113//166
f 119//167 113//167 118//167
f 63//168 66//168 67//168
f 125//169 119//169 121//169
f 125//170 121//170 124//170
f 58//171 60//171 61//171
f 53//172 55//172 58//172
f 131//173 108//173 119//173
f 131//174 67//174 77//174
f 131//175 63//175 67//175
f 131//176 119//176 125//176
f 131//177 125//177 128//177
f 131//178 128//178 129//178
f 131//179 77//179 108//179
f 52//180 53//180 58//180
f 135//181 131//181 133//181
f 42//182 43//182 45//182
f 42//183 45//183 47//183
f 42//184 47//184 49//184
f 42//185 49//185 52//185
f 42//186 52//186 58//186
f 143//187 135//187 137//187
f 143//188 137//188 139//188
f 143//189 139//189 142//189
f 38//190 39//190 42//190
f 5//191 2//191 1//191
f 5//192 143//192 2//192
f 33//193 36//193 38//193
f 29//194 31//194 33//194
f 29//195 38//195 42//195
f 29//196 33//196 38//196
f 11//197 5//197 8//197
f 11//198 8//198 9//198
f 11//199 61//199 63//199
f 11//200 58//200 61//200
f 11//201 63//201 131//201
f 11//202 131//202 135//202
f 11//203 143//203 5//203
f 11//204 135//204 143//204
f 25//205 27//205 29//205
f 25//206 42//206 58//206
f 25//207 29//207 42//207
f 15//208 11//208 14//208
f 21//209 23//209 25//209
f 21//210 25//210 58//210
f 19//211 15//211 17//211
f 19//212 11//212 15//212
f 19//213 21//213 58//213
f 19//214 58//214 11//214
f 92//215 145//215 94//215
f 146//216 145//216 92//216
f 88//217 147//217 90//217
f 90//218 147//218 92//218
f 92//219 147//219 146//219
f 94//220 148//220 96//220
f 145//221 148//221 94//221
f 88//222 149//222 147//222
f 96//223 150//223 97//223
f 97//224 150//224 100//224
f 148//225 150//225 96//225
f 83//226 151//226 86//226
f 86//227 151//227 88//227
f 88//228 151//228 149//228
f 100//229 152//229 102//229
f 150//230 152//230 100//230
f 83//231 153//231 151//231
f 152//232 154//232 102//232
f 82//233 155//233 83//233
f 83//234 155//234 153//234
f 102//235 156//235 104//235
f 154//236 156//236 102//236
f 78//237 157//237 80//237
f 80//238 157//238 82//238
f 82//239 157//239 155//239
f 156//240 158//240 104//240
f 104//241 158//241 105//241
f 78//242 159//242 157//242
f 158//243 160//243 105//243
f 105//244 160//244 107//244
f 107//245 160//245 110//245
f 76//246 161//246 78//246
f 78//247 161//247 159//247
f 110//248 162//248 112//248
f 160//249 162//249 110//249
f 76//250 163//250 161//250
f 74//251 163//251 76//251
f 162//252 164//252 112//252
f 74//253 165//253 163//253
f 72//254 165//254 74//254
f 72//255 70//255 165//255
f 164//256 166//256 112//256
f 112//257 166//257 114//257
f 70//258 167//258 165//258
f 166//259 116//259 114//259
f 166//260 168//260 116//260
f 70//261 169//261 167//261
f 68//262 169//262 70//262
f 168//263 170//263 116//263
f 116//264 170//264 117//264
f 65//265 171//265 68//265
f 68//266 171//266 169//266
f 170//267 172//267 117//267
f 117//268 172//268 120//268
f 65//269 173//269 171//269
f 64//270 173//270 65//270
f 172//271 174//271 120//271
f 120//272 174//272 122//272
f 62//273 175//273 64//273
f 64//274 175//274 173//274
f 174//275 176//275 122//275
f 122//276 176//276 123//276
f 59//277 177//277 62//277
f 62//278 177//278 175//278
f 59//279 57//279 177//279
f 176//280 178//280 123//280
f 123//281 178//281 126//281
f 57//282 179//282 177//282
f 126//283 180//283 127//283
f 178//284 180//284 126//284
f 57//285 56//285 179//285
f 179//286 56//286 181//286
f 180//287 182//287 127//287
f 182//288 130//288 127//288
f 56//289 54//289 181//289
f 181//290 54//290 183//290
f 54//291 184//291 183//291
f 182//292 132//292 130//292
f 185//293 132//293 182//293
f 54//294 51//294 184//294
f 186//295 134//295 185//295
f 185//296 134//296 132//296
f 51//297 50//297 184//297
f 184//298 50//298 187//298
f 186//299 136//299 134//299
f 188//300 136//300 186//300
f 50//301 48//301 187//301
f 187//302 48//302 189//302
f 48//303 190//303 189//303
f 188//304 138//304 136//304
f 191//305 138//305 188//305
f 48//306 46//306 190//306
f 46//307 192//307 190//307
f 191//308 140//308 138//308
f 193//309 140//309 191//309
f 46//310 44//310 192//310
f 193//311 194//311 140//311
f 194//312 141//312 140//312
f 44//313 41//313 192//313
f 192//314 41//314 195//314
f 196//315 144//315 194//315
f 194//316 144//316 141//316
f 41//317 40//317 195//317
f 195//318 40//318 197//318
f 198//319 3//319 196//319
f 196//320 3//320 144//320
f 199//321 3//321 198//321
f 40//322 37//322 197//322
f 197//323 37//323 200//323
f 199//324 4//324 3//324
f 37//325 35//325 200//325
f 201//326 35//326 202//326
f 200//327 35//327 201//327
f 203//328 6//328 199//328
f 199//329 6//329 4//329
f 35//330 34//330 202//330
f 202//331 34//331 204//331
f 34//332 32//332 204//332
f 204//333 32//333 205//333
f 203//334 7//334 6//334
f 206//335 7//335 203//335
f 207//336 7//336 206//336
f 208//337 10//337 207//337
f 207//338 10//338 7//338
f 205//339 30//339 209//339
f 32//340 30//340 205//340
f 208//341 12//341 10//341
f 30//342 28//342 209//342
f 28//343 26//343 209//343
f 210//344 26//344 211//344
f 209//345 26//345 210//345
f 208//346 13//346 12//346
f 212//347 13//347 208//347
f 212//348 16//348 13//348
f 213//349 16//349 212//349
f 26//350 24//350 211//350
f 213//351 18//351 16//351
f 214//352 18//352 213//352
f 24//353 22//353 211//353
f 211//354 22//354 215//354
f 214//355 20//355 18//355
f 22//356 20//356 215//356
f 216//357 20//357 214//357
f 215//358 20//358 216//358
f 217//359 218//359 198//359
f 198//360 218//360 199//360
f 218//361 219//361 199//361
f 199//362 219//362 203//362
f 219//363 220//363 203//363
f 203//364 220//364 206//364
f 220//365 221//365 206//365
f 206//366 221//366 207//366
f 221//367 222//367 207//367
f 207//368 222//368 208//368
f 222//369 223//369 208//369
f 208//370 223//370 212//370
f 223//371 224//371 212//371
f 212//372 224//372 213//372
f 213//373 225//373 214//373
f 224//374 225//374 213//374
f 214//375 226//375 216//375
f 225//376 226//376 214//376
f 216//377 227//377 215//377
f 226//378 227//378 216//378
f 215//379 228//379 211//379
f 227//380 228//380 215//380
f 211//381 229//381 210//381
f 228//382 229//382 211//382
f 210//383 230//383 209//383
f 229//384 230//384 210//384
f 230//385 231//385 209//385
f 209//386 231//386 205//386
f 231//387 232//387 205//387
f 205//388 232//388 204//388
f 204//389 232//389 202//389
f 232//390 233//390 202//390
f 233//391 234//391 202//391
f 202//392 234//392 201//392
f 234//393 235//393 201//393
f 201//394 235//394 200//394
f 235//395 236//395 200//395
f 200//396 236//396 197//396
f 236//397 237//397 197//397
f 197//398 237//398 195//398
f 237//399 238//399 195//399
f 195//400 238//400 192//400
f 238//401 239//401 192//401
f 192//402 239//402 190//402
f 239//403 240//403 190//403
f 190//404 240//404 189//404
f 240//405 241//405 189//405
f 189//406 241//406 187//406
f 241//407 242//407 187//407
f 187//408 242//408 184//408
f 184//409 242//409 183//409
f 242//410 243//410 183//410
f 183//411 243//411 181//411
f 181//412 244//412 179//412
f 243//413 244//413 181//413
f 244//414 245//414 179//414
f 179//415 246//415 177//415
f 245//416 246//416 179//416
f 177//417 247//417 175//417
f 246//418 247//418 177//418
f 175//419 248//419 173//419
f 247//420 248//420 175//420
f 173//421 249//421 171//421
f 248//422 249//422 173//422
f 171//423 250//423 169//423
f 249//424 250//424 171//424
f 169//425 251//425 167//425
f 250//426 251//426 169//426
f 167//427 252//427 165//427
f 251//428 252//428 167//428
f 165//429 253//429 163//429
f 252//430 253//430 165//430
f 163//431 254//431 161//431
f 253//432 254//432 163//432
f 161//433 255//433 159//433
f 254//434 255//434 161//434
f 255//435 256//435 159//435
f 159//436 256//436 157//436
f 256//437 257//437 157//437
f 157//438 257//438 155//438
f 155//439 258//439 153//439
f 257//440 258//440 155//440
f 258//441 259//441 153//441
f 153//442 259//442 151//442
f 151//443 260//443 149//443
f 259//444 260//444 151//444
f 149//445 261//445 147//445
f 147//446 261//446 146//446
f 260//447 261//447 149//447
f 261//448 262//448 146//448
f 146//449 263//449 145//449
f 262//450 263//450 146//450
f 145//451 264//451 148//451
f 263//452 264//452 145//452
f 148//453 265//453 150//453
f 264//454 265//454 148//454
f 150//455 266//455 152//455
f 265//456 266//456 150//456
f 152//457 267//457 154//457
f 266//458 267//458 152//458
f 154//459 268//459 156//459
f 267//460 268//460 154//460
f 156//461 269//461 158//461
f 268//462 269//462 156//462
f 158//463 270//463 160//463
f 269//464 270//464 158//464
f 160//465 271//465 162//465
f 270//466 271//466 160//466
f 162//467 272//467 164//467
f 271//468 272//468 162//468
f 164//469 273//469 166//469
f 272//470 273//470 164//470
f 166//471 274//471 168//471
f 273//472 274//472 166//472
f 168//473 275//473 170//473
f 274//474 275//474 168//474
f 170//475 276//475 172//475
f 275//476 276//476 170//476
f 172//477 277//477 174//477
f 276//478 277//478 172//478
f 174//479 278//479 176//479
f 277//480 278//480 174//480
f 176//481 279//481 178//481
f 278//482 279//482 176//482
f 178//483 280//483 180//483
f 279//484 280//484 178//484
f 280//485 281//485 180//485
f 180//486 281//486 182//486
f 281//487 282//487 182//487
f 182//488 282//488 185//488
f 282//489 283//489 185//489
f 185//490 283//490 186//490
f 283//491 284//491 186//491
f 186//492 284//492 188//492
f 284//493 285//493 188//493
f 188//494 285//494 191//494
f 285//495 286//495 191//495
f 191//496 286//496 193//496
f 193//497 286//497 194//497
f 286//498 287//498 194//498
f 287//499 288//499 194//499
f 194//500 288//500 196//500
f 288//501 217//501 196//501
f 196//502 217//502 198//502
f 262//503 265//503 263//503
f 263//504 265//504 264//504
f 260//505 259//505 261//505
f 261//506 258//506 262//506
f 259//507 258//507 261//507
f 262//508 258//508 265//508
f 256//509 255//509 257//509
f 257//510 255//510 258//510
f 258//511 255//511 265//511
f 265//512 271//512 266//512
f 266//513 271//513 267//513
f 267//514 271//514 268//514
f 268//515 271//515 269//515
f 269//516 271//516 270//516
f 254//517 272//517 255//517
f 265//518 272//518 271//518
f 255//519 272//519 265//519
f 272//520 274//520 273//520
f 251//521 250//521 252//521
f 252//522 250//522 253//522
f 253//523 250//523 254//523
f 254//524 250//524 272//524
f 250//525 275//525 272//525
f 272//526 275//526 274//526
f 248//527 247//527 249//527
f 249//528 247//528 250//528
f 276//529 278//529 277//529
f 246//530 245//530 247//530
f 276//531 280//531 278//531
f 275//532 280//532 276//532
f 278//533 280//533 279//533
f 243//534 242//534 244//534
f 280//535 283//535 281//535
f 281//536 283//536 282//536
f 242//537 241//537 244//537
f 280//538 284//538 283//538
f 275//539 284//539 280//539
f 240//540 239//540 241//540
f 244//541 239//541 245//541
f 245//542 239//542 247//542
f 241//543 239//543 244//543
f 285//544 287//544 286//544
f 238//545 237//545 239//545
f 284//546 217//546 285//546
f 287//547 217//547 288//547
f 285//548 217//548 287//548
f 236//549 235//549 237//549
f 237//550 234//550 239//550
f 235//551 234//551 237//551
f 217//552 220//552 218//552
f 218//553 220//553 219//553
f 250//554 220//554 275//554
f 247//555 220//555 250//555
f 275//556 220//556 284//556
f 284//557 220//557 217//557
f 233//558 232//558 234//558
f 234//559 232//559 239//559
f 232//560 231//560 239//560
f 220//561 222//561 221//561
f 230//562 229//562 231//562
f 231//563 229//563 239//563
f 222//564 225//564 223//564
f 223//565 225//565 224//565
f 247//566 225//566 220//566
f 220//567 225//567 222//567
f 229//568 226//568 239//568
f 227//569 226//569 228//569
f 228//570 226//570 229//570
f 247//571 226//571 225//571
f 239//572 226//572 247//572
